<?xml version="1.0" encoding="utf-8" standalone="no"?>
<!DOCTYPE svg PUBLIC "-//W3C//DTD SVG 1.1//EN"
  "http://www.w3.org/Graphics/SVG/1.1/DTD/svg11.dtd">
<svg xmlns:xlink="http://www.w3.org/1999/xlink" width="435.0875pt" height="588.35625pt" viewBox="0 0 435.0875 588.35625" xmlns="http://www.w3.org/2000/svg" version="1.1">
 <metadata>
  <rdf:RDF xmlns:dc="http://purl.org/dc/elements/1.1/" xmlns:cc="http://creativecommons.org/ns#" xmlns:rdf="http://www.w3.org/1999/02/22-rdf-syntax-ns#">
   <cc:Work>
    <dc:type rdf:resource="http://purl.org/dc/dcmitype/StillImage"/>
    <dc:date>2022-09-10T08:24:41.875552</dc:date>
    <dc:format>image/svg+xml</dc:format>
    <dc:creator>
     <cc:Agent>
      <dc:title>Matplotlib v3.5.1, https://matplotlib.org/</dc:title>
     </cc:Agent>
    </dc:creator>
   </cc:Work>
  </rdf:RDF>
 </metadata>
 <defs>
  <style type="text/css">*{stroke-linejoin: round; stroke-linecap: butt}</style>
 </defs>
 <g id="figure_1">
  <g id="patch_1">
   <path d="M 0 588.35625 
L 435.0875 588.35625 
L 435.0875 0 
L 0 0 
L 0 588.35625 
z
" style="fill: none"/>
  </g>
  <g id="axes_1">
   <g id="patch_2">
    <path d="M 50.14375 180.321019 
L 384.94375 180.321019 
L 384.94375 7.2 
L 50.14375 7.2 
z
" style="fill: #ffffff"/>
   </g>
   <g id="matplotlib.axis_1">
    <g id="xtick_1">
     <g id="line2d_1">
      <path d="M 50.14375 180.321019 
L 50.14375 7.2 
" clip-path="url(#pc4180a1da2)" style="fill: none; stroke-dasharray: 0.8,1.32; stroke-dashoffset: 0; stroke: #b0b0b0; stroke-width: 0.8"/>
     </g>
     <g id="line2d_2">
      <defs>
       <path id="m0aada9b068" d="M 0 0 
L 0 3.5 
" style="stroke: #000000; stroke-width: 0.8"/>
      </defs>
      <g>
       <use xlink:href="#m0aada9b068" x="50.14375" y="180.321019" style="stroke: #000000; stroke-width: 0.8"/>
      </g>
     </g>
    </g>
    <g id="xtick_2">
     <g id="line2d_3">
      <path d="M 105.94375 180.321019 
L 105.94375 7.2 
" clip-path="url(#pc4180a1da2)" style="fill: none; stroke-dasharray: 0.8,1.32; stroke-dashoffset: 0; stroke: #b0b0b0; stroke-width: 0.8"/>
     </g>
     <g id="line2d_4">
      <g>
       <use xlink:href="#m0aada9b068" x="105.94375" y="180.321019" style="stroke: #000000; stroke-width: 0.8"/>
      </g>
     </g>
    </g>
    <g id="xtick_3">
     <g id="line2d_5">
      <path d="M 161.74375 180.321019 
L 161.74375 7.2 
" clip-path="url(#pc4180a1da2)" style="fill: none; stroke-dasharray: 0.8,1.32; stroke-dashoffset: 0; stroke: #b0b0b0; stroke-width: 0.8"/>
     </g>
     <g id="line2d_6">
      <g>
       <use xlink:href="#m0aada9b068" x="161.74375" y="180.321019" style="stroke: #000000; stroke-width: 0.8"/>
      </g>
     </g>
    </g>
    <g id="xtick_4">
     <g id="line2d_7">
      <path d="M 217.54375 180.321019 
L 217.54375 7.2 
" clip-path="url(#pc4180a1da2)" style="fill: none; stroke-dasharray: 0.8,1.32; stroke-dashoffset: 0; stroke: #b0b0b0; stroke-width: 0.8"/>
     </g>
     <g id="line2d_8">
      <g>
       <use xlink:href="#m0aada9b068" x="217.54375" y="180.321019" style="stroke: #000000; stroke-width: 0.8"/>
      </g>
     </g>
    </g>
    <g id="xtick_5">
     <g id="line2d_9">
      <path d="M 273.34375 180.321019 
L 273.34375 7.2 
" clip-path="url(#pc4180a1da2)" style="fill: none; stroke-dasharray: 0.8,1.32; stroke-dashoffset: 0; stroke: #b0b0b0; stroke-width: 0.8"/>
     </g>
     <g id="line2d_10">
      <g>
       <use xlink:href="#m0aada9b068" x="273.34375" y="180.321019" style="stroke: #000000; stroke-width: 0.8"/>
      </g>
     </g>
    </g>
    <g id="xtick_6">
     <g id="line2d_11">
      <path d="M 329.14375 180.321019 
L 329.14375 7.2 
" clip-path="url(#pc4180a1da2)" style="fill: none; stroke-dasharray: 0.8,1.32; stroke-dashoffset: 0; stroke: #b0b0b0; stroke-width: 0.8"/>
     </g>
     <g id="line2d_12">
      <g>
       <use xlink:href="#m0aada9b068" x="329.14375" y="180.321019" style="stroke: #000000; stroke-width: 0.8"/>
      </g>
     </g>
    </g>
    <g id="xtick_7">
     <g id="line2d_13">
      <path d="M 384.94375 180.321019 
L 384.94375 7.2 
" clip-path="url(#pc4180a1da2)" style="fill: none; stroke-dasharray: 0.8,1.32; stroke-dashoffset: 0; stroke: #b0b0b0; stroke-width: 0.8"/>
     </g>
     <g id="line2d_14">
      <g>
       <use xlink:href="#m0aada9b068" x="384.94375" y="180.321019" style="stroke: #000000; stroke-width: 0.8"/>
      </g>
     </g>
    </g>
   </g>
   <g id="matplotlib.axis_2">
    <g id="ytick_1">
     <g id="line2d_15">
      <path d="M 50.14375 158.399513 
L 384.94375 158.399513 
" clip-path="url(#pc4180a1da2)" style="fill: none; stroke-dasharray: 0.8,1.32; stroke-dashoffset: 0; stroke: #b0b0b0; stroke-width: 0.8"/>
     </g>
     <g id="line2d_16">
      <defs>
       <path id="mca752aca78" d="M 0 0 
L -3.5 0 
" style="stroke: #000000; stroke-width: 0.8"/>
      </defs>
      <g>
       <use xlink:href="#mca752aca78" x="50.14375" y="158.399513" style="stroke: #000000; stroke-width: 0.8"/>
      </g>
     </g>
     <g id="text_1">
      <!-- 0.05 -->
      <g transform="translate(20.878125 162.198732)scale(0.1 -0.1)">
       <defs>
        <path id="DejaVuSans-30" d="M 2034 4250 
Q 1547 4250 1301 3770 
Q 1056 3291 1056 2328 
Q 1056 1369 1301 889 
Q 1547 409 2034 409 
Q 2525 409 2770 889 
Q 3016 1369 3016 2328 
Q 3016 3291 2770 3770 
Q 2525 4250 2034 4250 
z
M 2034 4750 
Q 2819 4750 3233 4129 
Q 3647 3509 3647 2328 
Q 3647 1150 3233 529 
Q 2819 -91 2034 -91 
Q 1250 -91 836 529 
Q 422 1150 422 2328 
Q 422 3509 836 4129 
Q 1250 4750 2034 4750 
z
" transform="scale(0.015625)"/>
        <path id="DejaVuSans-2e" d="M 684 794 
L 1344 794 
L 1344 0 
L 684 0 
L 684 794 
z
" transform="scale(0.015625)"/>
        <path id="DejaVuSans-35" d="M 691 4666 
L 3169 4666 
L 3169 4134 
L 1269 4134 
L 1269 2991 
Q 1406 3038 1543 3061 
Q 1681 3084 1819 3084 
Q 2600 3084 3056 2656 
Q 3513 2228 3513 1497 
Q 3513 744 3044 326 
Q 2575 -91 1722 -91 
Q 1428 -91 1123 -41 
Q 819 9 494 109 
L 494 744 
Q 775 591 1075 516 
Q 1375 441 1709 441 
Q 2250 441 2565 725 
Q 2881 1009 2881 1497 
Q 2881 1984 2565 2268 
Q 2250 2553 1709 2553 
Q 1456 2553 1204 2497 
Q 953 2441 691 2322 
L 691 4666 
z
" transform="scale(0.015625)"/>
       </defs>
       <use xlink:href="#DejaVuSans-30"/>
       <use xlink:href="#DejaVuSans-2e" x="63.623047"/>
       <use xlink:href="#DejaVuSans-30" x="95.410156"/>
       <use xlink:href="#DejaVuSans-35" x="159.033203"/>
      </g>
     </g>
    </g>
    <g id="ytick_2">
     <g id="line2d_17">
      <path d="M 50.14375 122.407602 
L 384.94375 122.407602 
" clip-path="url(#pc4180a1da2)" style="fill: none; stroke-dasharray: 0.8,1.32; stroke-dashoffset: 0; stroke: #b0b0b0; stroke-width: 0.8"/>
     </g>
     <g id="line2d_18">
      <g>
       <use xlink:href="#mca752aca78" x="50.14375" y="122.407602" style="stroke: #000000; stroke-width: 0.8"/>
      </g>
     </g>
     <g id="text_2">
      <!-- 0.10 -->
      <g transform="translate(20.878125 126.206821)scale(0.1 -0.1)">
       <defs>
        <path id="DejaVuSans-31" d="M 794 531 
L 1825 531 
L 1825 4091 
L 703 3866 
L 703 4441 
L 1819 4666 
L 2450 4666 
L 2450 531 
L 3481 531 
L 3481 0 
L 794 0 
L 794 531 
z
" transform="scale(0.015625)"/>
       </defs>
       <use xlink:href="#DejaVuSans-30"/>
       <use xlink:href="#DejaVuSans-2e" x="63.623047"/>
       <use xlink:href="#DejaVuSans-31" x="95.410156"/>
       <use xlink:href="#DejaVuSans-30" x="159.033203"/>
      </g>
     </g>
    </g>
    <g id="ytick_3">
     <g id="line2d_19">
      <path d="M 50.14375 86.415691 
L 384.94375 86.415691 
" clip-path="url(#pc4180a1da2)" style="fill: none; stroke-dasharray: 0.8,1.32; stroke-dashoffset: 0; stroke: #b0b0b0; stroke-width: 0.8"/>
     </g>
     <g id="line2d_20">
      <g>
       <use xlink:href="#mca752aca78" x="50.14375" y="86.415691" style="stroke: #000000; stroke-width: 0.8"/>
      </g>
     </g>
     <g id="text_3">
      <!-- 0.15 -->
      <g transform="translate(20.878125 90.21491)scale(0.1 -0.1)">
       <use xlink:href="#DejaVuSans-30"/>
       <use xlink:href="#DejaVuSans-2e" x="63.623047"/>
       <use xlink:href="#DejaVuSans-31" x="95.410156"/>
       <use xlink:href="#DejaVuSans-35" x="159.033203"/>
      </g>
     </g>
    </g>
    <g id="ytick_4">
     <g id="line2d_21">
      <path d="M 50.14375 50.42378 
L 384.94375 50.42378 
" clip-path="url(#pc4180a1da2)" style="fill: none; stroke-dasharray: 0.8,1.32; stroke-dashoffset: 0; stroke: #b0b0b0; stroke-width: 0.8"/>
     </g>
     <g id="line2d_22">
      <g>
       <use xlink:href="#mca752aca78" x="50.14375" y="50.42378" style="stroke: #000000; stroke-width: 0.8"/>
      </g>
     </g>
     <g id="text_4">
      <!-- 0.20 -->
      <g transform="translate(20.878125 54.222999)scale(0.1 -0.1)">
       <defs>
        <path id="DejaVuSans-32" d="M 1228 531 
L 3431 531 
L 3431 0 
L 469 0 
L 469 531 
Q 828 903 1448 1529 
Q 2069 2156 2228 2338 
Q 2531 2678 2651 2914 
Q 2772 3150 2772 3378 
Q 2772 3750 2511 3984 
Q 2250 4219 1831 4219 
Q 1534 4219 1204 4116 
Q 875 4013 500 3803 
L 500 4441 
Q 881 4594 1212 4672 
Q 1544 4750 1819 4750 
Q 2544 4750 2975 4387 
Q 3406 4025 3406 3419 
Q 3406 3131 3298 2873 
Q 3191 2616 2906 2266 
Q 2828 2175 2409 1742 
Q 1991 1309 1228 531 
z
" transform="scale(0.015625)"/>
       </defs>
       <use xlink:href="#DejaVuSans-30"/>
       <use xlink:href="#DejaVuSans-2e" x="63.623047"/>
       <use xlink:href="#DejaVuSans-32" x="95.410156"/>
       <use xlink:href="#DejaVuSans-30" x="159.033203"/>
      </g>
     </g>
    </g>
    <g id="ytick_5">
     <g id="line2d_23">
      <path d="M 50.14375 14.43187 
L 384.94375 14.43187 
" clip-path="url(#pc4180a1da2)" style="fill: none; stroke-dasharray: 0.8,1.32; stroke-dashoffset: 0; stroke: #b0b0b0; stroke-width: 0.8"/>
     </g>
     <g id="line2d_24">
      <g>
       <use xlink:href="#mca752aca78" x="50.14375" y="14.43187" style="stroke: #000000; stroke-width: 0.8"/>
      </g>
     </g>
     <g id="text_5">
      <!-- 0.25 -->
      <g transform="translate(20.878125 18.231088)scale(0.1 -0.1)">
       <use xlink:href="#DejaVuSans-30"/>
       <use xlink:href="#DejaVuSans-2e" x="63.623047"/>
       <use xlink:href="#DejaVuSans-32" x="95.410156"/>
       <use xlink:href="#DejaVuSans-35" x="159.033203"/>
      </g>
     </g>
    </g>
    <g id="text_6">
     <!-- $\langle A\rangle$ [u.a.] -->
     <g transform="translate(14.798438 116.01051)rotate(-90)scale(0.1 -0.1)">
      <defs>
       <path id="DejaVuSans-27e8" d="M 572 2006 
L 1453 4856 
L 1984 4856 
L 1103 2006 
L 1984 -844 
L 1453 -844 
L 572 2006 
z
" transform="scale(0.015625)"/>
       <path id="DejaVuSans-Oblique-41" d="M 2356 4666 
L 3072 4666 
L 3938 0 
L 3278 0 
L 3084 1197 
L 984 1197 
L 325 0 
L -341 0 
L 2356 4666 
z
M 2584 4044 
L 1275 1722 
L 2988 1722 
L 2584 4044 
z
" transform="scale(0.015625)"/>
       <path id="DejaVuSans-27e9" d="M 1925 2006 
L 1044 -844 
L 513 -844 
L 1394 2006 
L 513 4856 
L 1044 4856 
L 1925 2006 
z
" transform="scale(0.015625)"/>
       <path id="DejaVuSans-20" transform="scale(0.015625)"/>
       <path id="DejaVuSans-5b" d="M 550 4863 
L 1875 4863 
L 1875 4416 
L 1125 4416 
L 1125 -397 
L 1875 -397 
L 1875 -844 
L 550 -844 
L 550 4863 
z
" transform="scale(0.015625)"/>
       <path id="DejaVuSans-75" d="M 544 1381 
L 544 3500 
L 1119 3500 
L 1119 1403 
Q 1119 906 1312 657 
Q 1506 409 1894 409 
Q 2359 409 2629 706 
Q 2900 1003 2900 1516 
L 2900 3500 
L 3475 3500 
L 3475 0 
L 2900 0 
L 2900 538 
Q 2691 219 2414 64 
Q 2138 -91 1772 -91 
Q 1169 -91 856 284 
Q 544 659 544 1381 
z
M 1991 3584 
L 1991 3584 
z
" transform="scale(0.015625)"/>
       <path id="DejaVuSans-61" d="M 2194 1759 
Q 1497 1759 1228 1600 
Q 959 1441 959 1056 
Q 959 750 1161 570 
Q 1363 391 1709 391 
Q 2188 391 2477 730 
Q 2766 1069 2766 1631 
L 2766 1759 
L 2194 1759 
z
M 3341 1997 
L 3341 0 
L 2766 0 
L 2766 531 
Q 2569 213 2275 61 
Q 1981 -91 1556 -91 
Q 1019 -91 701 211 
Q 384 513 384 1019 
Q 384 1609 779 1909 
Q 1175 2209 1959 2209 
L 2766 2209 
L 2766 2266 
Q 2766 2663 2505 2880 
Q 2244 3097 1772 3097 
Q 1472 3097 1187 3025 
Q 903 2953 641 2809 
L 641 3341 
Q 956 3463 1253 3523 
Q 1550 3584 1831 3584 
Q 2591 3584 2966 3190 
Q 3341 2797 3341 1997 
z
" transform="scale(0.015625)"/>
       <path id="DejaVuSans-5d" d="M 1947 4863 
L 1947 -844 
L 622 -844 
L 622 -397 
L 1369 -397 
L 1369 4416 
L 622 4416 
L 622 4863 
L 1947 4863 
z
" transform="scale(0.015625)"/>
      </defs>
      <use xlink:href="#DejaVuSans-27e8" transform="translate(0 0.015625)"/>
      <use xlink:href="#DejaVuSans-Oblique-41" transform="translate(39.013672 0.015625)"/>
      <use xlink:href="#DejaVuSans-27e9" transform="translate(107.421875 0.015625)"/>
      <use xlink:href="#DejaVuSans-20" transform="translate(146.435547 0.015625)"/>
      <use xlink:href="#DejaVuSans-5b" transform="translate(178.222656 0.015625)"/>
      <use xlink:href="#DejaVuSans-75" transform="translate(217.236328 0.015625)"/>
      <use xlink:href="#DejaVuSans-2e" transform="translate(280.615234 0.015625)"/>
      <use xlink:href="#DejaVuSans-61" transform="translate(312.402344 0.015625)"/>
      <use xlink:href="#DejaVuSans-2e" transform="translate(373.681641 0.015625)"/>
      <use xlink:href="#DejaVuSans-5d" transform="translate(405.46875 0.015625)"/>
     </g>
    </g>
   </g>
   <g id="line2d_25">
    <path d="M 50.14375 16.367507 
L 61.30375 17.724693 
L 72.46375 19.677472 
L 83.62375 21.827771 
L 94.78375 24.402592 
L 105.94375 27.831949 
L 117.10375 32.296636 
L 128.26375 37.828502 
L 139.42375 45.139822 
L 150.58375 53.473968 
L 161.74375 63.073992 
L 172.90375 72.906855 
L 184.06375 84.158235 
L 195.22375 95.344085 
L 206.38375 108.254165 
L 217.54375 122.207956 
L 228.70375 134.011267 
L 239.86375 142.733161 
L 251.02375 149.870212 
L 262.18375 155.320714 
L 273.34375 160.560736 
L 284.50375 163.705829 
L 295.66375 165.767348 
L 306.82375 167.654069 
L 317.98375 168.485264 
L 329.14375 169.207429 
L 340.30375 170.160415 
L 351.46375 171.652007 
L 362.62375 171.941524 
L 373.78375 172.128173 
L 384.94375 172.451882 
" clip-path="url(#pc4180a1da2)" style="fill: none; stroke: #ff0000; stroke-width: 1.5; stroke-linecap: square"/>
   </g>
   <g id="line2d_26">
    <path d="M 50.14375 16.125971 
L 61.30375 17.538599 
L 72.46375 19.386863 
L 83.62375 21.381718 
L 94.78375 23.852732 
L 105.94375 26.989484 
L 117.10375 31.203496 
L 128.26375 36.411448 
L 139.42375 43.482579 
L 150.58375 51.566954 
L 161.74375 60.686061 
L 172.90375 70.667445 
L 184.06375 81.540456 
L 195.22375 92.955581 
L 206.38375 106.456123 
L 217.54375 121.21228 
L 228.70375 133.994621 
L 239.86375 143.272204 
L 251.02375 150.547441 
L 262.18375 156.108255 
L 273.34375 160.860433 
L 284.50375 163.820956 
L 295.66375 165.721873 
L 306.82375 167.625047 
L 317.98375 168.542044 
L 329.14375 169.39125 
L 340.30375 170.362915 
L 351.46375 171.488153 
L 362.62375 171.800179 
L 373.78375 172.015929 
L 384.94375 172.306164 
" clip-path="url(#pc4180a1da2)" style="fill: none; stroke: #ffc900; stroke-width: 1.5; stroke-linecap: square"/>
   </g>
   <g id="line2d_27">
    <path d="M 50.14375 15.846468 
L 61.30375 17.252232 
L 72.46375 18.869958 
L 83.62375 20.678962 
L 94.78375 22.939779 
L 105.94375 25.807898 
L 117.10375 29.573056 
L 128.26375 34.299582 
L 139.42375 40.240969 
L 150.58375 47.327309 
L 161.74375 55.641151 
L 172.90375 65.103846 
L 184.06375 75.760046 
L 195.22375 88.04354 
L 206.38375 102.375446 
L 217.54375 118.84994 
L 228.70375 132.34344 
L 239.86375 142.977072 
L 251.02375 150.880746 
L 262.18375 156.514729 
L 273.34375 161.178894 
L 284.50375 163.803736 
L 295.66375 165.578016 
L 306.82375 167.093435 
L 317.98375 168.131727 
L 329.14375 168.973073 
L 340.30375 169.964517 
L 351.46375 170.836281 
L 362.62375 171.23204 
L 373.78375 171.596414 
L 384.94375 171.894194 
" clip-path="url(#pc4180a1da2)" style="fill: none; stroke: #6cff00; stroke-width: 1.5; stroke-linecap: square"/>
   </g>
   <g id="line2d_28">
    <path d="M 50.14375 15.495309 
L 61.30375 16.735708 
L 72.46375 18.156143 
L 83.62375 19.779575 
L 94.78375 21.767932 
L 105.94375 24.288005 
L 117.10375 27.630838 
L 128.26375 31.890315 
L 139.42375 37.138492 
L 150.58375 43.496863 
L 161.74375 51.210375 
L 172.90375 60.334597 
L 184.06375 70.920085 
L 195.22375 83.248214 
L 206.38375 97.808013 
L 217.54375 113.712927 
L 228.70375 130.01597 
L 239.86375 141.970674 
L 251.02375 150.717496 
L 262.18375 156.807474 
L 273.34375 161.125097 
L 284.50375 163.699529 
L 295.66375 165.886063 
L 306.82375 167.591405 
L 317.98375 168.740467 
L 329.14375 169.620333 
L 340.30375 170.30632 
L 351.46375 170.883587 
L 362.62375 171.285264 
L 373.78375 171.667647 
L 384.94375 172.073809 
" clip-path="url(#pc4180a1da2)" style="fill: none; stroke: #00ff5c; stroke-width: 1.5; stroke-linecap: square"/>
   </g>
   <g id="line2d_29">
    <path d="M 50.14375 15.329364 
L 61.30375 16.446504 
L 72.46375 17.62613 
L 83.62375 19.057968 
L 94.78375 20.833167 
L 105.94375 23.038702 
L 117.10375 25.974097 
L 128.26375 29.676225 
L 139.42375 34.239392 
L 150.58375 39.768915 
L 161.74375 46.535105 
L 172.90375 54.994371 
L 184.06375 65.423902 
L 195.22375 77.641818 
L 206.38375 91.877467 
L 217.54375 108.483895 
L 228.70375 125.7316 
L 239.86375 140.756504 
L 251.02375 151.199713 
L 262.18375 156.991418 
L 273.34375 161.130846 
L 284.50375 163.922642 
L 295.66375 165.857726 
L 306.82375 167.297451 
L 317.98375 168.377541 
L 329.14375 169.208869 
L 340.30375 169.952333 
L 351.46375 170.454787 
L 362.62375 171.003591 
L 373.78375 171.432469 
L 384.94375 171.75033 
" clip-path="url(#pc4180a1da2)" style="fill: none; stroke: #00d9ff; stroke-width: 1.5; stroke-linecap: square"/>
   </g>
   <g id="line2d_30">
    <path d="M 50.14375 15.19494 
L 61.30375 16.217306 
L 72.46375 17.270739 
L 83.62375 18.568565 
L 94.78375 20.166937 
L 105.94375 22.195696 
L 117.10375 24.87674 
L 128.26375 28.276738 
L 139.42375 32.543326 
L 150.58375 37.798672 
L 161.74375 44.311461 
L 172.90375 52.691623 
L 184.06375 62.522185 
L 195.22375 74.77315 
L 206.38375 89.149744 
L 217.54375 105.161547 
L 228.70375 123.366463 
L 239.86375 138.412634 
L 251.02375 148.88233 
L 262.18375 155.648897 
L 273.34375 159.978267 
L 284.50375 162.764288 
L 295.66375 164.703901 
L 306.82375 166.400006 
L 317.98375 167.71138 
L 329.14375 168.630119 
L 340.30375 169.379647 
L 351.46375 170.039471 
L 362.62375 170.639355 
L 373.78375 171.138828 
L 384.94375 171.574614 
" clip-path="url(#pc4180a1da2)" style="fill: none; stroke: #0010ff; stroke-width: 1.5; stroke-linecap: square"/>
   </g>
   <g id="line2d_31">
    <path d="M 50.14375 15.069137 
L 61.30375 15.824162 
L 72.46375 16.607513 
L 83.62375 17.614423 
L 94.78375 18.925405 
L 105.94375 20.637558 
L 117.10375 22.904849 
L 128.26375 25.842265 
L 139.42375 29.554994 
L 150.58375 34.353441 
L 161.74375 40.514889 
L 172.90375 48.553926 
L 184.06375 58.729346 
L 195.22375 71.789737 
L 206.38375 87.298416 
L 217.54375 105.357318 
L 228.70375 124.327469 
L 239.86375 139.835187 
L 251.02375 150.51835 
L 262.18375 157.225777 
L 273.34375 161.214702 
L 284.50375 163.968247 
L 295.66375 166.009095 
L 306.82375 167.525776 
L 317.98375 168.598044 
L 329.14375 169.42596 
L 340.30375 170.034838 
L 351.46375 170.76451 
L 362.62375 171.232456 
L 373.78375 171.630536 
L 384.94375 171.969189 
" clip-path="url(#pc4180a1da2)" style="fill: none; stroke: #b900ff; stroke-width: 1.5; stroke-linecap: square"/>
   </g>
   <g id="patch_3">
    <path d="M 50.14375 180.321019 
L 50.14375 7.2 
" style="fill: none; stroke: #000000; stroke-width: 0.8; stroke-linejoin: miter; stroke-linecap: square"/>
   </g>
   <g id="patch_4">
    <path d="M 384.94375 180.321019 
L 384.94375 7.2 
" style="fill: none; stroke: #000000; stroke-width: 0.8; stroke-linejoin: miter; stroke-linecap: square"/>
   </g>
   <g id="patch_5">
    <path d="M 50.14375 180.321019 
L 384.94375 180.321019 
" style="fill: none; stroke: #000000; stroke-width: 0.8; stroke-linejoin: miter; stroke-linecap: square"/>
   </g>
   <g id="patch_6">
    <path d="M 50.14375 7.2 
L 384.94375 7.2 
" style="fill: none; stroke: #000000; stroke-width: 0.8; stroke-linejoin: miter; stroke-linecap: square"/>
   </g>
   <g id="legend_1">
    <g id="patch_7">
     <path d="M 297.614062 117.946875 
L 377.94375 117.946875 
Q 379.94375 117.946875 379.94375 115.946875 
L 379.94375 14.2 
Q 379.94375 12.2 377.94375 12.2 
L 297.614062 12.2 
Q 295.614062 12.2 295.614062 14.2 
L 295.614062 115.946875 
Q 295.614062 117.946875 297.614062 117.946875 
z
" style="fill: #ffffff; opacity: 0.8; stroke: #cccccc; stroke-linejoin: miter"/>
    </g>
    <g id="line2d_32">
     <path d="M 299.614062 20.298438 
L 309.614062 20.298438 
L 319.614062 20.298438 
" style="fill: none; stroke: #ff0000; stroke-width: 1.5; stroke-linecap: square"/>
    </g>
    <g id="text_7">
     <!-- +0 link -->
     <g transform="translate(327.614062 23.798438)scale(0.1 -0.1)">
      <defs>
       <path id="DejaVuSans-2b" d="M 2944 4013 
L 2944 2272 
L 4684 2272 
L 4684 1741 
L 2944 1741 
L 2944 0 
L 2419 0 
L 2419 1741 
L 678 1741 
L 678 2272 
L 2419 2272 
L 2419 4013 
L 2944 4013 
z
" transform="scale(0.015625)"/>
       <path id="DejaVuSans-6c" d="M 603 4863 
L 1178 4863 
L 1178 0 
L 603 0 
L 603 4863 
z
" transform="scale(0.015625)"/>
       <path id="DejaVuSans-69" d="M 603 3500 
L 1178 3500 
L 1178 0 
L 603 0 
L 603 3500 
z
M 603 4863 
L 1178 4863 
L 1178 4134 
L 603 4134 
L 603 4863 
z
" transform="scale(0.015625)"/>
       <path id="DejaVuSans-6e" d="M 3513 2113 
L 3513 0 
L 2938 0 
L 2938 2094 
Q 2938 2591 2744 2837 
Q 2550 3084 2163 3084 
Q 1697 3084 1428 2787 
Q 1159 2491 1159 1978 
L 1159 0 
L 581 0 
L 581 3500 
L 1159 3500 
L 1159 2956 
Q 1366 3272 1645 3428 
Q 1925 3584 2291 3584 
Q 2894 3584 3203 3211 
Q 3513 2838 3513 2113 
z
" transform="scale(0.015625)"/>
       <path id="DejaVuSans-6b" d="M 581 4863 
L 1159 4863 
L 1159 1991 
L 2875 3500 
L 3609 3500 
L 1753 1863 
L 3688 0 
L 2938 0 
L 1159 1709 
L 1159 0 
L 581 0 
L 581 4863 
z
" transform="scale(0.015625)"/>
      </defs>
      <use xlink:href="#DejaVuSans-2b"/>
      <use xlink:href="#DejaVuSans-30" x="83.789062"/>
      <use xlink:href="#DejaVuSans-20" x="147.412109"/>
      <use xlink:href="#DejaVuSans-6c" x="179.199219"/>
      <use xlink:href="#DejaVuSans-69" x="206.982422"/>
      <use xlink:href="#DejaVuSans-6e" x="234.765625"/>
      <use xlink:href="#DejaVuSans-6b" x="298.144531"/>
     </g>
    </g>
    <g id="line2d_33">
     <path d="M 299.614062 34.976563 
L 309.614062 34.976563 
L 319.614062 34.976563 
" style="fill: none; stroke: #ffc900; stroke-width: 1.5; stroke-linecap: square"/>
    </g>
    <g id="text_8">
     <!-- +20 link -->
     <g transform="translate(327.614062 38.476563)scale(0.1 -0.1)">
      <use xlink:href="#DejaVuSans-2b"/>
      <use xlink:href="#DejaVuSans-32" x="83.789062"/>
      <use xlink:href="#DejaVuSans-30" x="147.412109"/>
      <use xlink:href="#DejaVuSans-20" x="211.035156"/>
      <use xlink:href="#DejaVuSans-6c" x="242.822266"/>
      <use xlink:href="#DejaVuSans-69" x="270.605469"/>
      <use xlink:href="#DejaVuSans-6e" x="298.388672"/>
      <use xlink:href="#DejaVuSans-6b" x="361.767578"/>
     </g>
    </g>
    <g id="line2d_34">
     <path d="M 299.614062 49.654688 
L 309.614062 49.654688 
L 319.614062 49.654688 
" style="fill: none; stroke: #6cff00; stroke-width: 1.5; stroke-linecap: square"/>
    </g>
    <g id="text_9">
     <!-- +50 link -->
     <g transform="translate(327.614062 53.154688)scale(0.1 -0.1)">
      <use xlink:href="#DejaVuSans-2b"/>
      <use xlink:href="#DejaVuSans-35" x="83.789062"/>
      <use xlink:href="#DejaVuSans-30" x="147.412109"/>
      <use xlink:href="#DejaVuSans-20" x="211.035156"/>
      <use xlink:href="#DejaVuSans-6c" x="242.822266"/>
      <use xlink:href="#DejaVuSans-69" x="270.605469"/>
      <use xlink:href="#DejaVuSans-6e" x="298.388672"/>
      <use xlink:href="#DejaVuSans-6b" x="361.767578"/>
     </g>
    </g>
    <g id="line2d_35">
     <path d="M 299.614062 64.332813 
L 309.614062 64.332813 
L 319.614062 64.332813 
" style="fill: none; stroke: #00ff5c; stroke-width: 1.5; stroke-linecap: square"/>
    </g>
    <g id="text_10">
     <!-- +100 link -->
     <g transform="translate(327.614062 67.832813)scale(0.1 -0.1)">
      <use xlink:href="#DejaVuSans-2b"/>
      <use xlink:href="#DejaVuSans-31" x="83.789062"/>
      <use xlink:href="#DejaVuSans-30" x="147.412109"/>
      <use xlink:href="#DejaVuSans-30" x="211.035156"/>
      <use xlink:href="#DejaVuSans-20" x="274.658203"/>
      <use xlink:href="#DejaVuSans-6c" x="306.445312"/>
      <use xlink:href="#DejaVuSans-69" x="334.228516"/>
      <use xlink:href="#DejaVuSans-6e" x="362.011719"/>
      <use xlink:href="#DejaVuSans-6b" x="425.390625"/>
     </g>
    </g>
    <g id="line2d_36">
     <path d="M 299.614062 79.010938 
L 309.614062 79.010938 
L 319.614062 79.010938 
" style="fill: none; stroke: #00d9ff; stroke-width: 1.5; stroke-linecap: square"/>
    </g>
    <g id="text_11">
     <!-- +150 link -->
     <g transform="translate(327.614062 82.510938)scale(0.1 -0.1)">
      <use xlink:href="#DejaVuSans-2b"/>
      <use xlink:href="#DejaVuSans-31" x="83.789062"/>
      <use xlink:href="#DejaVuSans-35" x="147.412109"/>
      <use xlink:href="#DejaVuSans-30" x="211.035156"/>
      <use xlink:href="#DejaVuSans-20" x="274.658203"/>
      <use xlink:href="#DejaVuSans-6c" x="306.445312"/>
      <use xlink:href="#DejaVuSans-69" x="334.228516"/>
      <use xlink:href="#DejaVuSans-6e" x="362.011719"/>
      <use xlink:href="#DejaVuSans-6b" x="425.390625"/>
     </g>
    </g>
    <g id="line2d_37">
     <path d="M 299.614062 93.689063 
L 309.614062 93.689063 
L 319.614062 93.689063 
" style="fill: none; stroke: #0010ff; stroke-width: 1.5; stroke-linecap: square"/>
    </g>
    <g id="text_12">
     <!-- +200 link -->
     <g transform="translate(327.614062 97.189063)scale(0.1 -0.1)">
      <use xlink:href="#DejaVuSans-2b"/>
      <use xlink:href="#DejaVuSans-32" x="83.789062"/>
      <use xlink:href="#DejaVuSans-30" x="147.412109"/>
      <use xlink:href="#DejaVuSans-30" x="211.035156"/>
      <use xlink:href="#DejaVuSans-20" x="274.658203"/>
      <use xlink:href="#DejaVuSans-6c" x="306.445312"/>
      <use xlink:href="#DejaVuSans-69" x="334.228516"/>
      <use xlink:href="#DejaVuSans-6e" x="362.011719"/>
      <use xlink:href="#DejaVuSans-6b" x="425.390625"/>
     </g>
    </g>
    <g id="line2d_38">
     <path d="M 299.614062 108.367188 
L 309.614062 108.367188 
L 319.614062 108.367188 
" style="fill: none; stroke: #b900ff; stroke-width: 1.5; stroke-linecap: square"/>
    </g>
    <g id="text_13">
     <!-- +300 link -->
     <g transform="translate(327.614062 111.867188)scale(0.1 -0.1)">
      <defs>
       <path id="DejaVuSans-33" d="M 2597 2516 
Q 3050 2419 3304 2112 
Q 3559 1806 3559 1356 
Q 3559 666 3084 287 
Q 2609 -91 1734 -91 
Q 1441 -91 1130 -33 
Q 819 25 488 141 
L 488 750 
Q 750 597 1062 519 
Q 1375 441 1716 441 
Q 2309 441 2620 675 
Q 2931 909 2931 1356 
Q 2931 1769 2642 2001 
Q 2353 2234 1838 2234 
L 1294 2234 
L 1294 2753 
L 1863 2753 
Q 2328 2753 2575 2939 
Q 2822 3125 2822 3475 
Q 2822 3834 2567 4026 
Q 2313 4219 1838 4219 
Q 1578 4219 1281 4162 
Q 984 4106 628 3988 
L 628 4550 
Q 988 4650 1302 4700 
Q 1616 4750 1894 4750 
Q 2613 4750 3031 4423 
Q 3450 4097 3450 3541 
Q 3450 3153 3228 2886 
Q 3006 2619 2597 2516 
z
" transform="scale(0.015625)"/>
      </defs>
      <use xlink:href="#DejaVuSans-2b"/>
      <use xlink:href="#DejaVuSans-33" x="83.789062"/>
      <use xlink:href="#DejaVuSans-30" x="147.412109"/>
      <use xlink:href="#DejaVuSans-30" x="211.035156"/>
      <use xlink:href="#DejaVuSans-20" x="274.658203"/>
      <use xlink:href="#DejaVuSans-6c" x="306.445312"/>
      <use xlink:href="#DejaVuSans-69" x="334.228516"/>
      <use xlink:href="#DejaVuSans-6e" x="362.011719"/>
      <use xlink:href="#DejaVuSans-6b" x="425.390625"/>
     </g>
    </g>
   </g>
  </g>
  <g id="axes_2">
   <g id="patch_8">
    <path d="M 50.14375 365.56051 
L 384.94375 365.56051 
L 384.94375 192.43949 
L 50.14375 192.43949 
z
" style="fill: #ffffff"/>
   </g>
   <g id="matplotlib.axis_3">
    <g id="xtick_8">
     <g id="line2d_39">
      <path d="M 50.14375 365.56051 
L 50.14375 192.43949 
" clip-path="url(#p0935a5f86f)" style="fill: none; stroke-dasharray: 0.8,1.32; stroke-dashoffset: 0; stroke: #b0b0b0; stroke-width: 0.8"/>
     </g>
     <g id="line2d_40">
      <g>
       <use xlink:href="#m0aada9b068" x="50.14375" y="365.56051" style="stroke: #000000; stroke-width: 0.8"/>
      </g>
     </g>
    </g>
    <g id="xtick_9">
     <g id="line2d_41">
      <path d="M 105.94375 365.56051 
L 105.94375 192.43949 
" clip-path="url(#p0935a5f86f)" style="fill: none; stroke-dasharray: 0.8,1.32; stroke-dashoffset: 0; stroke: #b0b0b0; stroke-width: 0.8"/>
     </g>
     <g id="line2d_42">
      <g>
       <use xlink:href="#m0aada9b068" x="105.94375" y="365.56051" style="stroke: #000000; stroke-width: 0.8"/>
      </g>
     </g>
    </g>
    <g id="xtick_10">
     <g id="line2d_43">
      <path d="M 161.74375 365.56051 
L 161.74375 192.43949 
" clip-path="url(#p0935a5f86f)" style="fill: none; stroke-dasharray: 0.8,1.32; stroke-dashoffset: 0; stroke: #b0b0b0; stroke-width: 0.8"/>
     </g>
     <g id="line2d_44">
      <g>
       <use xlink:href="#m0aada9b068" x="161.74375" y="365.56051" style="stroke: #000000; stroke-width: 0.8"/>
      </g>
     </g>
    </g>
    <g id="xtick_11">
     <g id="line2d_45">
      <path d="M 217.54375 365.56051 
L 217.54375 192.43949 
" clip-path="url(#p0935a5f86f)" style="fill: none; stroke-dasharray: 0.8,1.32; stroke-dashoffset: 0; stroke: #b0b0b0; stroke-width: 0.8"/>
     </g>
     <g id="line2d_46">
      <g>
       <use xlink:href="#m0aada9b068" x="217.54375" y="365.56051" style="stroke: #000000; stroke-width: 0.8"/>
      </g>
     </g>
    </g>
    <g id="xtick_12">
     <g id="line2d_47">
      <path d="M 273.34375 365.56051 
L 273.34375 192.43949 
" clip-path="url(#p0935a5f86f)" style="fill: none; stroke-dasharray: 0.8,1.32; stroke-dashoffset: 0; stroke: #b0b0b0; stroke-width: 0.8"/>
     </g>
     <g id="line2d_48">
      <g>
       <use xlink:href="#m0aada9b068" x="273.34375" y="365.56051" style="stroke: #000000; stroke-width: 0.8"/>
      </g>
     </g>
    </g>
    <g id="xtick_13">
     <g id="line2d_49">
      <path d="M 329.14375 365.56051 
L 329.14375 192.43949 
" clip-path="url(#p0935a5f86f)" style="fill: none; stroke-dasharray: 0.8,1.32; stroke-dashoffset: 0; stroke: #b0b0b0; stroke-width: 0.8"/>
     </g>
     <g id="line2d_50">
      <g>
       <use xlink:href="#m0aada9b068" x="329.14375" y="365.56051" style="stroke: #000000; stroke-width: 0.8"/>
      </g>
     </g>
    </g>
    <g id="xtick_14">
     <g id="line2d_51">
      <path d="M 384.94375 365.56051 
L 384.94375 192.43949 
" clip-path="url(#p0935a5f86f)" style="fill: none; stroke-dasharray: 0.8,1.32; stroke-dashoffset: 0; stroke: #b0b0b0; stroke-width: 0.8"/>
     </g>
     <g id="line2d_52">
      <g>
       <use xlink:href="#m0aada9b068" x="384.94375" y="365.56051" style="stroke: #000000; stroke-width: 0.8"/>
      </g>
     </g>
    </g>
   </g>
   <g id="matplotlib.axis_4">
    <g id="ytick_6">
     <g id="line2d_53">
      <path d="M 50.14375 342.116163 
L 384.94375 342.116163 
" clip-path="url(#p0935a5f86f)" style="fill: none; stroke-dasharray: 0.8,1.32; stroke-dashoffset: 0; stroke: #b0b0b0; stroke-width: 0.8"/>
     </g>
     <g id="line2d_54">
      <g>
       <use xlink:href="#mca752aca78" x="50.14375" y="342.116163" style="stroke: #000000; stroke-width: 0.8"/>
      </g>
     </g>
     <g id="text_14">
      <!-- 0.4 -->
      <g transform="translate(27.240625 345.915382)scale(0.1 -0.1)">
       <defs>
        <path id="DejaVuSans-34" d="M 2419 4116 
L 825 1625 
L 2419 1625 
L 2419 4116 
z
M 2253 4666 
L 3047 4666 
L 3047 1625 
L 3713 1625 
L 3713 1100 
L 3047 1100 
L 3047 0 
L 2419 0 
L 2419 1100 
L 313 1100 
L 313 1709 
L 2253 4666 
z
" transform="scale(0.015625)"/>
       </defs>
       <use xlink:href="#DejaVuSans-30"/>
       <use xlink:href="#DejaVuSans-2e" x="63.623047"/>
       <use xlink:href="#DejaVuSans-34" x="95.410156"/>
      </g>
     </g>
    </g>
    <g id="ytick_7">
     <g id="line2d_55">
      <path d="M 50.14375 311.474512 
L 384.94375 311.474512 
" clip-path="url(#p0935a5f86f)" style="fill: none; stroke-dasharray: 0.8,1.32; stroke-dashoffset: 0; stroke: #b0b0b0; stroke-width: 0.8"/>
     </g>
     <g id="line2d_56">
      <g>
       <use xlink:href="#mca752aca78" x="50.14375" y="311.474512" style="stroke: #000000; stroke-width: 0.8"/>
      </g>
     </g>
     <g id="text_15">
      <!-- 0.6 -->
      <g transform="translate(27.240625 315.27373)scale(0.1 -0.1)">
       <defs>
        <path id="DejaVuSans-36" d="M 2113 2584 
Q 1688 2584 1439 2293 
Q 1191 2003 1191 1497 
Q 1191 994 1439 701 
Q 1688 409 2113 409 
Q 2538 409 2786 701 
Q 3034 994 3034 1497 
Q 3034 2003 2786 2293 
Q 2538 2584 2113 2584 
z
M 3366 4563 
L 3366 3988 
Q 3128 4100 2886 4159 
Q 2644 4219 2406 4219 
Q 1781 4219 1451 3797 
Q 1122 3375 1075 2522 
Q 1259 2794 1537 2939 
Q 1816 3084 2150 3084 
Q 2853 3084 3261 2657 
Q 3669 2231 3669 1497 
Q 3669 778 3244 343 
Q 2819 -91 2113 -91 
Q 1303 -91 875 529 
Q 447 1150 447 2328 
Q 447 3434 972 4092 
Q 1497 4750 2381 4750 
Q 2619 4750 2861 4703 
Q 3103 4656 3366 4563 
z
" transform="scale(0.015625)"/>
       </defs>
       <use xlink:href="#DejaVuSans-30"/>
       <use xlink:href="#DejaVuSans-2e" x="63.623047"/>
       <use xlink:href="#DejaVuSans-36" x="95.410156"/>
      </g>
     </g>
    </g>
    <g id="ytick_8">
     <g id="line2d_57">
      <path d="M 50.14375 280.83286 
L 384.94375 280.83286 
" clip-path="url(#p0935a5f86f)" style="fill: none; stroke-dasharray: 0.8,1.32; stroke-dashoffset: 0; stroke: #b0b0b0; stroke-width: 0.8"/>
     </g>
     <g id="line2d_58">
      <g>
       <use xlink:href="#mca752aca78" x="50.14375" y="280.83286" style="stroke: #000000; stroke-width: 0.8"/>
      </g>
     </g>
     <g id="text_16">
      <!-- 0.8 -->
      <g transform="translate(27.240625 284.632079)scale(0.1 -0.1)">
       <defs>
        <path id="DejaVuSans-38" d="M 2034 2216 
Q 1584 2216 1326 1975 
Q 1069 1734 1069 1313 
Q 1069 891 1326 650 
Q 1584 409 2034 409 
Q 2484 409 2743 651 
Q 3003 894 3003 1313 
Q 3003 1734 2745 1975 
Q 2488 2216 2034 2216 
z
M 1403 2484 
Q 997 2584 770 2862 
Q 544 3141 544 3541 
Q 544 4100 942 4425 
Q 1341 4750 2034 4750 
Q 2731 4750 3128 4425 
Q 3525 4100 3525 3541 
Q 3525 3141 3298 2862 
Q 3072 2584 2669 2484 
Q 3125 2378 3379 2068 
Q 3634 1759 3634 1313 
Q 3634 634 3220 271 
Q 2806 -91 2034 -91 
Q 1263 -91 848 271 
Q 434 634 434 1313 
Q 434 1759 690 2068 
Q 947 2378 1403 2484 
z
M 1172 3481 
Q 1172 3119 1398 2916 
Q 1625 2713 2034 2713 
Q 2441 2713 2670 2916 
Q 2900 3119 2900 3481 
Q 2900 3844 2670 4047 
Q 2441 4250 2034 4250 
Q 1625 4250 1398 4047 
Q 1172 3844 1172 3481 
z
" transform="scale(0.015625)"/>
       </defs>
       <use xlink:href="#DejaVuSans-30"/>
       <use xlink:href="#DejaVuSans-2e" x="63.623047"/>
       <use xlink:href="#DejaVuSans-38" x="95.410156"/>
      </g>
     </g>
    </g>
    <g id="ytick_9">
     <g id="line2d_59">
      <path d="M 50.14375 250.191208 
L 384.94375 250.191208 
" clip-path="url(#p0935a5f86f)" style="fill: none; stroke-dasharray: 0.8,1.32; stroke-dashoffset: 0; stroke: #b0b0b0; stroke-width: 0.8"/>
     </g>
     <g id="line2d_60">
      <g>
       <use xlink:href="#mca752aca78" x="50.14375" y="250.191208" style="stroke: #000000; stroke-width: 0.8"/>
      </g>
     </g>
     <g id="text_17">
      <!-- 1.0 -->
      <g transform="translate(27.240625 253.990427)scale(0.1 -0.1)">
       <use xlink:href="#DejaVuSans-31"/>
       <use xlink:href="#DejaVuSans-2e" x="63.623047"/>
       <use xlink:href="#DejaVuSans-30" x="95.410156"/>
      </g>
     </g>
    </g>
    <g id="ytick_10">
     <g id="line2d_61">
      <path d="M 50.14375 219.549557 
L 384.94375 219.549557 
" clip-path="url(#p0935a5f86f)" style="fill: none; stroke-dasharray: 0.8,1.32; stroke-dashoffset: 0; stroke: #b0b0b0; stroke-width: 0.8"/>
     </g>
     <g id="line2d_62">
      <g>
       <use xlink:href="#mca752aca78" x="50.14375" y="219.549557" style="stroke: #000000; stroke-width: 0.8"/>
      </g>
     </g>
     <g id="text_18">
      <!-- 1.2 -->
      <g transform="translate(27.240625 223.348775)scale(0.1 -0.1)">
       <use xlink:href="#DejaVuSans-31"/>
       <use xlink:href="#DejaVuSans-2e" x="63.623047"/>
       <use xlink:href="#DejaVuSans-32" x="95.410156"/>
      </g>
     </g>
    </g>
    <g id="text_19">
     <!-- Distanza $\chi^2$ -->
     <g transform="translate(21.140625 307.9)rotate(-90)scale(0.1 -0.1)">
      <defs>
       <path id="DejaVuSans-44" d="M 1259 4147 
L 1259 519 
L 2022 519 
Q 2988 519 3436 956 
Q 3884 1394 3884 2338 
Q 3884 3275 3436 3711 
Q 2988 4147 2022 4147 
L 1259 4147 
z
M 628 4666 
L 1925 4666 
Q 3281 4666 3915 4102 
Q 4550 3538 4550 2338 
Q 4550 1131 3912 565 
Q 3275 0 1925 0 
L 628 0 
L 628 4666 
z
" transform="scale(0.015625)"/>
       <path id="DejaVuSans-73" d="M 2834 3397 
L 2834 2853 
Q 2591 2978 2328 3040 
Q 2066 3103 1784 3103 
Q 1356 3103 1142 2972 
Q 928 2841 928 2578 
Q 928 2378 1081 2264 
Q 1234 2150 1697 2047 
L 1894 2003 
Q 2506 1872 2764 1633 
Q 3022 1394 3022 966 
Q 3022 478 2636 193 
Q 2250 -91 1575 -91 
Q 1294 -91 989 -36 
Q 684 19 347 128 
L 347 722 
Q 666 556 975 473 
Q 1284 391 1588 391 
Q 1994 391 2212 530 
Q 2431 669 2431 922 
Q 2431 1156 2273 1281 
Q 2116 1406 1581 1522 
L 1381 1569 
Q 847 1681 609 1914 
Q 372 2147 372 2553 
Q 372 3047 722 3315 
Q 1072 3584 1716 3584 
Q 2034 3584 2315 3537 
Q 2597 3491 2834 3397 
z
" transform="scale(0.015625)"/>
       <path id="DejaVuSans-74" d="M 1172 4494 
L 1172 3500 
L 2356 3500 
L 2356 3053 
L 1172 3053 
L 1172 1153 
Q 1172 725 1289 603 
Q 1406 481 1766 481 
L 2356 481 
L 2356 0 
L 1766 0 
Q 1100 0 847 248 
Q 594 497 594 1153 
L 594 3053 
L 172 3053 
L 172 3500 
L 594 3500 
L 594 4494 
L 1172 4494 
z
" transform="scale(0.015625)"/>
       <path id="DejaVuSans-7a" d="M 353 3500 
L 3084 3500 
L 3084 2975 
L 922 459 
L 3084 459 
L 3084 0 
L 275 0 
L 275 525 
L 2438 3041 
L 353 3041 
L 353 3500 
z
" transform="scale(0.015625)"/>
       <path id="DejaVuSans-Oblique-3c7" d="M 1922 -781 
L 1691 416 
L 394 -1334 
L -284 -1334 
L 1553 1141 
L 1269 2613 
Q 1194 3006 713 3006 
L 559 3006 
L 653 3500 
L 872 3494 
Q 1675 3472 1775 2950 
L 2006 1753 
L 3303 3503 
L 3981 3503 
L 2144 1028 
L 2428 -444 
Q 2503 -838 2984 -838 
L 3138 -838 
L 3044 -1331 
L 2825 -1325 
Q 2022 -1303 1922 -781 
z
" transform="scale(0.015625)"/>
      </defs>
      <use xlink:href="#DejaVuSans-44" transform="translate(0 0.765625)"/>
      <use xlink:href="#DejaVuSans-69" transform="translate(77.001953 0.765625)"/>
      <use xlink:href="#DejaVuSans-73" transform="translate(104.785156 0.765625)"/>
      <use xlink:href="#DejaVuSans-74" transform="translate(156.884766 0.765625)"/>
      <use xlink:href="#DejaVuSans-61" transform="translate(196.09375 0.765625)"/>
      <use xlink:href="#DejaVuSans-6e" transform="translate(257.373047 0.765625)"/>
      <use xlink:href="#DejaVuSans-7a" transform="translate(320.751953 0.765625)"/>
      <use xlink:href="#DejaVuSans-61" transform="translate(373.242188 0.765625)"/>
      <use xlink:href="#DejaVuSans-20" transform="translate(434.521484 0.765625)"/>
      <use xlink:href="#DejaVuSans-Oblique-3c7" transform="translate(466.308594 0.765625)"/>
      <use xlink:href="#DejaVuSans-32" transform="translate(529.96099 39.046875)scale(0.7)"/>
     </g>
    </g>
   </g>
   <g id="line2d_63">
    <path d="M 50.14375 319.735228 
L 61.30375 312.694377 
L 72.46375 325.081867 
L 83.62375 314.171323 
L 94.78375 304.764539 
L 105.94375 311.462797 
L 117.10375 327.655706 
L 128.26375 349.859891 
L 139.42375 347.568113 
L 150.58375 343.907816 
L 161.74375 346.077881 
L 172.90375 336.869689 
L 184.06375 331.387154 
L 195.22375 312.662465 
L 206.38375 311.470292 
L 217.54375 311.390249 
L 228.70375 292.300877 
L 239.86375 276.060087 
L 251.02375 254.957353 
L 262.18375 244.909269 
L 273.34375 235.702291 
L 284.50375 223.424791 
L 295.66375 214.707517 
L 306.82375 211.189194 
L 317.98375 209.087632 
L 329.14375 205.973446 
L 340.30375 204.383435 
L 351.46375 202.756827 
L 362.62375 200.670923 
L 373.78375 200.880559 
L 384.94375 203.42202 
" clip-path="url(#p0935a5f86f)" style="fill: none; stroke: #ff0000; stroke-width: 1.5; stroke-linecap: square"/>
   </g>
   <g id="line2d_64">
    <path d="M 50.14375 304.492582 
L 61.30375 316.311173 
L 72.46375 323.642596 
L 83.62375 316.535596 
L 94.78375 317.556567 
L 105.94375 323.311543 
L 117.10375 333.945618 
L 128.26375 339.64865 
L 139.42375 344.80077 
L 150.58375 340.383414 
L 161.74375 347.369372 
L 172.90375 345.769684 
L 184.06375 336.765534 
L 195.22375 326.338966 
L 206.38375 325.026095 
L 217.54375 319.060989 
L 228.70375 299.68366 
L 239.86375 276.023496 
L 251.02375 254.023141 
L 262.18375 241.911598 
L 273.34375 230.856198 
L 284.50375 221.580019 
L 295.66375 215.810797 
L 306.82375 211.573094 
L 317.98375 208.062443 
L 329.14375 205.670852 
L 340.30375 203.659727 
L 351.46375 202.278592 
L 362.62375 201.0903 
L 373.78375 200.308628 
L 384.94375 201.718771 
" clip-path="url(#p0935a5f86f)" style="fill: none; stroke: #ffc900; stroke-width: 1.5; stroke-linecap: square"/>
   </g>
   <g id="line2d_65">
    <path d="M 50.14375 295.462339 
L 61.30375 306.140563 
L 72.46375 329.583168 
L 83.62375 334.312963 
L 94.78375 333.450951 
L 105.94375 334.373564 
L 117.10375 338.263655 
L 128.26375 333.853886 
L 139.42375 335.875551 
L 150.58375 348.111647 
L 161.74375 355.564988 
L 172.90375 357.32434 
L 184.06375 357.691372 
L 195.22375 354.312188 
L 206.38375 350.427516 
L 217.54375 345.047817 
L 228.70375 316.706227 
L 239.86375 284.392545 
L 251.02375 258.184646 
L 262.18375 240.8358 
L 273.34375 229.311199 
L 284.50375 221.10602 
L 295.66375 215.399799 
L 306.82375 211.107685 
L 317.98375 208.023339 
L 329.14375 205.800188 
L 340.30375 203.741009 
L 351.46375 202.499971 
L 362.62375 201.654654 
L 373.78375 201.671901 
L 384.94375 202.064222 
" clip-path="url(#p0935a5f86f)" style="fill: none; stroke: #6cff00; stroke-width: 1.5; stroke-linecap: square"/>
   </g>
   <g id="line2d_66">
    <path d="M 50.14375 258.932793 
L 61.30375 282.125176 
L 72.46375 311.850158 
L 83.62375 328.014528 
L 94.78375 331.216896 
L 105.94375 332.304899 
L 117.10375 333.401224 
L 128.26375 334.411995 
L 139.42375 333.094831 
L 150.58375 345.542685 
L 161.74375 353.481795 
L 172.90375 347.299321 
L 184.06375 344.033695 
L 195.22375 347.431131 
L 206.38375 349.976195 
L 217.54375 355.40284 
L 228.70375 343.222532 
L 239.86375 298.69778 
L 251.02375 262.476215 
L 262.18375 240.48087 
L 273.34375 228.70651 
L 284.50375 220.170043 
L 295.66375 214.278425 
L 306.82375 210.241697 
L 317.98375 207.303113 
L 329.14375 205.079644 
L 340.30375 204.698366 
L 351.46375 203.572637 
L 362.62375 201.533596 
L 373.78375 201.305304 
L 384.94375 201.00579 
" clip-path="url(#p0935a5f86f)" style="fill: none; stroke: #00ff5c; stroke-width: 1.5; stroke-linecap: square"/>
   </g>
   <g id="line2d_67">
    <path d="M 50.14375 254.028867 
L 61.30375 273.782485 
L 72.46375 299.052332 
L 83.62375 316.354186 
L 94.78375 330.567139 
L 105.94375 346.082679 
L 117.10375 350.389944 
L 128.26375 351.669569 
L 139.42375 343.480758 
L 150.58375 340.384141 
L 161.74375 350.536438 
L 172.90375 340.157564 
L 184.06375 330.711857 
L 195.22375 327.586576 
L 206.38375 330.288727 
L 217.54375 337.023436 
L 228.70375 346.129935 
L 239.86375 320.403403 
L 251.02375 268.034127 
L 262.18375 243.782619 
L 273.34375 228.781789 
L 284.50375 219.792749 
L 295.66375 213.952197 
L 306.82375 210.333754 
L 317.98375 207.800679 
L 329.14375 205.21009 
L 340.30375 204.152876 
L 351.46375 202.256101 
L 362.62375 202.751998 
L 373.78375 203.129685 
L 384.94375 202.801899 
" clip-path="url(#p0935a5f86f)" style="fill: none; stroke: #00d9ff; stroke-width: 1.5; stroke-linecap: square"/>
   </g>
   <g id="line2d_68">
    <path d="M 50.14375 254.172434 
L 61.30375 272.528659 
L 72.46375 283.145183 
L 83.62375 295.113961 
L 94.78375 314.294281 
L 105.94375 331.237848 
L 117.10375 348.202278 
L 128.26375 352.663268 
L 139.42375 347.073961 
L 150.58375 353.26458 
L 161.74375 350.306078 
L 172.90375 330.835252 
L 184.06375 313.652001 
L 195.22375 306.176643 
L 206.38375 311.12091 
L 217.54375 318.570296 
L 228.70375 332.330682 
L 239.86375 330.693987 
L 251.02375 277.268876 
L 262.18375 243.209639 
L 273.34375 227.581729 
L 284.50375 218.701942 
L 295.66375 213.595193 
L 306.82375 209.624376 
L 317.98375 207.235563 
L 329.14375 204.80578 
L 340.30375 203.4754 
L 351.46375 202.986553 
L 362.62375 202.218521 
L 373.78375 201.582638 
L 384.94375 202.079805 
" clip-path="url(#p0935a5f86f)" style="fill: none; stroke: #0010ff; stroke-width: 1.5; stroke-linecap: square"/>
   </g>
   <g id="line2d_69">
    <path d="M 50.14375 248.317148 
L 61.30375 251.145234 
L 72.46375 262.201107 
L 83.62375 279.542164 
L 94.78375 284.125605 
L 105.94375 319.235948 
L 117.10375 337.723788 
L 128.26375 341.547981 
L 139.42375 350.144446 
L 150.58375 350.12221 
L 161.74375 339.428882 
L 172.90375 306.471445 
L 184.06375 282.389287 
L 195.22375 269.30864 
L 206.38375 272.134908 
L 217.54375 283.88592 
L 228.70375 310.66162 
L 239.86375 330.378833 
L 251.02375 276.588301 
L 262.18375 240.595984 
L 273.34375 225.670731 
L 284.50375 218.120224 
L 295.66375 213.079504 
L 306.82375 209.278778 
L 317.98375 206.900884 
L 329.14375 204.744925 
L 340.30375 203.603486 
L 351.46375 202.906757 
L 362.62375 202.180265 
L 373.78375 201.648291 
L 384.94375 201.348656 
" clip-path="url(#p0935a5f86f)" style="fill: none; stroke: #b900ff; stroke-width: 1.5; stroke-linecap: square"/>
   </g>
   <g id="patch_9">
    <path d="M 50.14375 365.56051 
L 50.14375 192.43949 
" style="fill: none; stroke: #000000; stroke-width: 0.8; stroke-linejoin: miter; stroke-linecap: square"/>
   </g>
   <g id="patch_10">
    <path d="M 384.94375 365.56051 
L 384.94375 192.43949 
" style="fill: none; stroke: #000000; stroke-width: 0.8; stroke-linejoin: miter; stroke-linecap: square"/>
   </g>
   <g id="patch_11">
    <path d="M 50.14375 365.56051 
L 384.94375 365.56051 
" style="fill: none; stroke: #000000; stroke-width: 0.8; stroke-linejoin: miter; stroke-linecap: square"/>
   </g>
   <g id="patch_12">
    <path d="M 50.14375 192.43949 
L 384.94375 192.43949 
" style="fill: none; stroke: #000000; stroke-width: 0.8; stroke-linejoin: miter; stroke-linecap: square"/>
   </g>
  </g>
  <g id="axes_3">
   <g id="patch_13">
    <path d="M 50.14375 550.8 
L 384.94375 550.8 
L 384.94375 377.678981 
L 50.14375 377.678981 
z
" style="fill: #ffffff"/>
   </g>
   <g id="matplotlib.axis_5">
    <g id="xtick_15">
     <g id="line2d_70">
      <path d="M 50.14375 550.8 
L 50.14375 377.678981 
" clip-path="url(#p3098704a80)" style="fill: none; stroke-dasharray: 0.8,1.32; stroke-dashoffset: 0; stroke: #b0b0b0; stroke-width: 0.8"/>
     </g>
     <g id="line2d_71">
      <g>
       <use xlink:href="#m0aada9b068" x="50.14375" y="550.8" style="stroke: #000000; stroke-width: 0.8"/>
      </g>
     </g>
     <g id="text_20">
      <!-- 0.00 -->
      <g transform="translate(39.010938 565.398438)scale(0.1 -0.1)">
       <use xlink:href="#DejaVuSans-30"/>
       <use xlink:href="#DejaVuSans-2e" x="63.623047"/>
       <use xlink:href="#DejaVuSans-30" x="95.410156"/>
       <use xlink:href="#DejaVuSans-30" x="159.033203"/>
      </g>
     </g>
    </g>
    <g id="xtick_16">
     <g id="line2d_72">
      <path d="M 105.94375 550.8 
L 105.94375 377.678981 
" clip-path="url(#p3098704a80)" style="fill: none; stroke-dasharray: 0.8,1.32; stroke-dashoffset: 0; stroke: #b0b0b0; stroke-width: 0.8"/>
     </g>
     <g id="line2d_73">
      <g>
       <use xlink:href="#m0aada9b068" x="105.94375" y="550.8" style="stroke: #000000; stroke-width: 0.8"/>
      </g>
     </g>
     <g id="text_21">
      <!-- 0.05 -->
      <g transform="translate(94.810938 565.398438)scale(0.1 -0.1)">
       <use xlink:href="#DejaVuSans-30"/>
       <use xlink:href="#DejaVuSans-2e" x="63.623047"/>
       <use xlink:href="#DejaVuSans-30" x="95.410156"/>
       <use xlink:href="#DejaVuSans-35" x="159.033203"/>
      </g>
     </g>
    </g>
    <g id="xtick_17">
     <g id="line2d_74">
      <path d="M 161.74375 550.8 
L 161.74375 377.678981 
" clip-path="url(#p3098704a80)" style="fill: none; stroke-dasharray: 0.8,1.32; stroke-dashoffset: 0; stroke: #b0b0b0; stroke-width: 0.8"/>
     </g>
     <g id="line2d_75">
      <g>
       <use xlink:href="#m0aada9b068" x="161.74375" y="550.8" style="stroke: #000000; stroke-width: 0.8"/>
      </g>
     </g>
     <g id="text_22">
      <!-- 0.10 -->
      <g transform="translate(150.610938 565.398438)scale(0.1 -0.1)">
       <use xlink:href="#DejaVuSans-30"/>
       <use xlink:href="#DejaVuSans-2e" x="63.623047"/>
       <use xlink:href="#DejaVuSans-31" x="95.410156"/>
       <use xlink:href="#DejaVuSans-30" x="159.033203"/>
      </g>
     </g>
    </g>
    <g id="xtick_18">
     <g id="line2d_76">
      <path d="M 217.54375 550.8 
L 217.54375 377.678981 
" clip-path="url(#p3098704a80)" style="fill: none; stroke-dasharray: 0.8,1.32; stroke-dashoffset: 0; stroke: #b0b0b0; stroke-width: 0.8"/>
     </g>
     <g id="line2d_77">
      <g>
       <use xlink:href="#m0aada9b068" x="217.54375" y="550.8" style="stroke: #000000; stroke-width: 0.8"/>
      </g>
     </g>
     <g id="text_23">
      <!-- 0.15 -->
      <g transform="translate(206.410938 565.398438)scale(0.1 -0.1)">
       <use xlink:href="#DejaVuSans-30"/>
       <use xlink:href="#DejaVuSans-2e" x="63.623047"/>
       <use xlink:href="#DejaVuSans-31" x="95.410156"/>
       <use xlink:href="#DejaVuSans-35" x="159.033203"/>
      </g>
     </g>
    </g>
    <g id="xtick_19">
     <g id="line2d_78">
      <path d="M 273.34375 550.8 
L 273.34375 377.678981 
" clip-path="url(#p3098704a80)" style="fill: none; stroke-dasharray: 0.8,1.32; stroke-dashoffset: 0; stroke: #b0b0b0; stroke-width: 0.8"/>
     </g>
     <g id="line2d_79">
      <g>
       <use xlink:href="#m0aada9b068" x="273.34375" y="550.8" style="stroke: #000000; stroke-width: 0.8"/>
      </g>
     </g>
     <g id="text_24">
      <!-- 0.20 -->
      <g transform="translate(262.210938 565.398438)scale(0.1 -0.1)">
       <use xlink:href="#DejaVuSans-30"/>
       <use xlink:href="#DejaVuSans-2e" x="63.623047"/>
       <use xlink:href="#DejaVuSans-32" x="95.410156"/>
       <use xlink:href="#DejaVuSans-30" x="159.033203"/>
      </g>
     </g>
    </g>
    <g id="xtick_20">
     <g id="line2d_80">
      <path d="M 329.14375 550.8 
L 329.14375 377.678981 
" clip-path="url(#p3098704a80)" style="fill: none; stroke-dasharray: 0.8,1.32; stroke-dashoffset: 0; stroke: #b0b0b0; stroke-width: 0.8"/>
     </g>
     <g id="line2d_81">
      <g>
       <use xlink:href="#m0aada9b068" x="329.14375" y="550.8" style="stroke: #000000; stroke-width: 0.8"/>
      </g>
     </g>
     <g id="text_25">
      <!-- 0.25 -->
      <g transform="translate(318.010938 565.398438)scale(0.1 -0.1)">
       <use xlink:href="#DejaVuSans-30"/>
       <use xlink:href="#DejaVuSans-2e" x="63.623047"/>
       <use xlink:href="#DejaVuSans-32" x="95.410156"/>
       <use xlink:href="#DejaVuSans-35" x="159.033203"/>
      </g>
     </g>
    </g>
    <g id="xtick_21">
     <g id="line2d_82">
      <path d="M 384.94375 550.8 
L 384.94375 377.678981 
" clip-path="url(#p3098704a80)" style="fill: none; stroke-dasharray: 0.8,1.32; stroke-dashoffset: 0; stroke: #b0b0b0; stroke-width: 0.8"/>
     </g>
     <g id="line2d_83">
      <g>
       <use xlink:href="#m0aada9b068" x="384.94375" y="550.8" style="stroke: #000000; stroke-width: 0.8"/>
      </g>
     </g>
     <g id="text_26">
      <!-- 0.30 -->
      <g transform="translate(373.810938 565.398438)scale(0.1 -0.1)">
       <use xlink:href="#DejaVuSans-30"/>
       <use xlink:href="#DejaVuSans-2e" x="63.623047"/>
       <use xlink:href="#DejaVuSans-33" x="95.410156"/>
       <use xlink:href="#DejaVuSans-30" x="159.033203"/>
      </g>
     </g>
    </g>
    <g id="text_27">
     <!-- Parametro T [u.a.] -->
     <g transform="translate(172.116406 579.076563)scale(0.1 -0.1)">
      <defs>
       <path id="DejaVuSans-50" d="M 1259 4147 
L 1259 2394 
L 2053 2394 
Q 2494 2394 2734 2622 
Q 2975 2850 2975 3272 
Q 2975 3691 2734 3919 
Q 2494 4147 2053 4147 
L 1259 4147 
z
M 628 4666 
L 2053 4666 
Q 2838 4666 3239 4311 
Q 3641 3956 3641 3272 
Q 3641 2581 3239 2228 
Q 2838 1875 2053 1875 
L 1259 1875 
L 1259 0 
L 628 0 
L 628 4666 
z
" transform="scale(0.015625)"/>
       <path id="DejaVuSans-72" d="M 2631 2963 
Q 2534 3019 2420 3045 
Q 2306 3072 2169 3072 
Q 1681 3072 1420 2755 
Q 1159 2438 1159 1844 
L 1159 0 
L 581 0 
L 581 3500 
L 1159 3500 
L 1159 2956 
Q 1341 3275 1631 3429 
Q 1922 3584 2338 3584 
Q 2397 3584 2469 3576 
Q 2541 3569 2628 3553 
L 2631 2963 
z
" transform="scale(0.015625)"/>
       <path id="DejaVuSans-6d" d="M 3328 2828 
Q 3544 3216 3844 3400 
Q 4144 3584 4550 3584 
Q 5097 3584 5394 3201 
Q 5691 2819 5691 2113 
L 5691 0 
L 5113 0 
L 5113 2094 
Q 5113 2597 4934 2840 
Q 4756 3084 4391 3084 
Q 3944 3084 3684 2787 
Q 3425 2491 3425 1978 
L 3425 0 
L 2847 0 
L 2847 2094 
Q 2847 2600 2669 2842 
Q 2491 3084 2119 3084 
Q 1678 3084 1418 2786 
Q 1159 2488 1159 1978 
L 1159 0 
L 581 0 
L 581 3500 
L 1159 3500 
L 1159 2956 
Q 1356 3278 1631 3431 
Q 1906 3584 2284 3584 
Q 2666 3584 2933 3390 
Q 3200 3197 3328 2828 
z
" transform="scale(0.015625)"/>
       <path id="DejaVuSans-65" d="M 3597 1894 
L 3597 1613 
L 953 1613 
Q 991 1019 1311 708 
Q 1631 397 2203 397 
Q 2534 397 2845 478 
Q 3156 559 3463 722 
L 3463 178 
Q 3153 47 2828 -22 
Q 2503 -91 2169 -91 
Q 1331 -91 842 396 
Q 353 884 353 1716 
Q 353 2575 817 3079 
Q 1281 3584 2069 3584 
Q 2775 3584 3186 3129 
Q 3597 2675 3597 1894 
z
M 3022 2063 
Q 3016 2534 2758 2815 
Q 2500 3097 2075 3097 
Q 1594 3097 1305 2825 
Q 1016 2553 972 2059 
L 3022 2063 
z
" transform="scale(0.015625)"/>
       <path id="DejaVuSans-6f" d="M 1959 3097 
Q 1497 3097 1228 2736 
Q 959 2375 959 1747 
Q 959 1119 1226 758 
Q 1494 397 1959 397 
Q 2419 397 2687 759 
Q 2956 1122 2956 1747 
Q 2956 2369 2687 2733 
Q 2419 3097 1959 3097 
z
M 1959 3584 
Q 2709 3584 3137 3096 
Q 3566 2609 3566 1747 
Q 3566 888 3137 398 
Q 2709 -91 1959 -91 
Q 1206 -91 779 398 
Q 353 888 353 1747 
Q 353 2609 779 3096 
Q 1206 3584 1959 3584 
z
" transform="scale(0.015625)"/>
       <path id="DejaVuSans-54" d="M -19 4666 
L 3928 4666 
L 3928 4134 
L 2272 4134 
L 2272 0 
L 1638 0 
L 1638 4134 
L -19 4134 
L -19 4666 
z
" transform="scale(0.015625)"/>
      </defs>
      <use xlink:href="#DejaVuSans-50"/>
      <use xlink:href="#DejaVuSans-61" x="55.802734"/>
      <use xlink:href="#DejaVuSans-72" x="117.082031"/>
      <use xlink:href="#DejaVuSans-61" x="158.195312"/>
      <use xlink:href="#DejaVuSans-6d" x="219.474609"/>
      <use xlink:href="#DejaVuSans-65" x="316.886719"/>
      <use xlink:href="#DejaVuSans-74" x="378.410156"/>
      <use xlink:href="#DejaVuSans-72" x="417.619141"/>
      <use xlink:href="#DejaVuSans-6f" x="456.482422"/>
      <use xlink:href="#DejaVuSans-20" x="517.664062"/>
      <use xlink:href="#DejaVuSans-54" x="549.451172"/>
      <use xlink:href="#DejaVuSans-20" x="610.535156"/>
      <use xlink:href="#DejaVuSans-5b" x="642.322266"/>
      <use xlink:href="#DejaVuSans-75" x="681.335938"/>
      <use xlink:href="#DejaVuSans-2e" x="744.714844"/>
      <use xlink:href="#DejaVuSans-61" x="776.501953"/>
      <use xlink:href="#DejaVuSans-2e" x="837.78125"/>
      <use xlink:href="#DejaVuSans-5d" x="869.568359"/>
     </g>
    </g>
   </g>
   <g id="matplotlib.axis_6">
    <g id="ytick_11">
     <g id="line2d_84">
      <path d="M 50.14375 541.329381 
L 384.94375 541.329381 
" clip-path="url(#p3098704a80)" style="fill: none; stroke-dasharray: 0.8,1.32; stroke-dashoffset: 0; stroke: #b0b0b0; stroke-width: 0.8"/>
     </g>
     <g id="line2d_85">
      <g>
       <use xlink:href="#mca752aca78" x="50.14375" y="541.329381" style="stroke: #000000; stroke-width: 0.8"/>
      </g>
     </g>
     <g id="text_28">
      <!-- 0.0 -->
      <g transform="translate(27.240625 545.1286)scale(0.1 -0.1)">
       <use xlink:href="#DejaVuSans-30"/>
       <use xlink:href="#DejaVuSans-2e" x="63.623047"/>
       <use xlink:href="#DejaVuSans-30" x="95.410156"/>
      </g>
     </g>
    </g>
    <g id="ytick_12">
     <g id="line2d_86">
      <path d="M 50.14375 509.912576 
L 384.94375 509.912576 
" clip-path="url(#p3098704a80)" style="fill: none; stroke-dasharray: 0.8,1.32; stroke-dashoffset: 0; stroke: #b0b0b0; stroke-width: 0.8"/>
     </g>
     <g id="line2d_87">
      <g>
       <use xlink:href="#mca752aca78" x="50.14375" y="509.912576" style="stroke: #000000; stroke-width: 0.8"/>
      </g>
     </g>
     <g id="text_29">
      <!-- 0.1 -->
      <g transform="translate(27.240625 513.711794)scale(0.1 -0.1)">
       <use xlink:href="#DejaVuSans-30"/>
       <use xlink:href="#DejaVuSans-2e" x="63.623047"/>
       <use xlink:href="#DejaVuSans-31" x="95.410156"/>
      </g>
     </g>
    </g>
    <g id="ytick_13">
     <g id="line2d_88">
      <path d="M 50.14375 478.49577 
L 384.94375 478.49577 
" clip-path="url(#p3098704a80)" style="fill: none; stroke-dasharray: 0.8,1.32; stroke-dashoffset: 0; stroke: #b0b0b0; stroke-width: 0.8"/>
     </g>
     <g id="line2d_89">
      <g>
       <use xlink:href="#mca752aca78" x="50.14375" y="478.49577" style="stroke: #000000; stroke-width: 0.8"/>
      </g>
     </g>
     <g id="text_30">
      <!-- 0.2 -->
      <g transform="translate(27.240625 482.294989)scale(0.1 -0.1)">
       <use xlink:href="#DejaVuSans-30"/>
       <use xlink:href="#DejaVuSans-2e" x="63.623047"/>
       <use xlink:href="#DejaVuSans-32" x="95.410156"/>
      </g>
     </g>
    </g>
    <g id="ytick_14">
     <g id="line2d_90">
      <path d="M 50.14375 447.078965 
L 384.94375 447.078965 
" clip-path="url(#p3098704a80)" style="fill: none; stroke-dasharray: 0.8,1.32; stroke-dashoffset: 0; stroke: #b0b0b0; stroke-width: 0.8"/>
     </g>
     <g id="line2d_91">
      <g>
       <use xlink:href="#mca752aca78" x="50.14375" y="447.078965" style="stroke: #000000; stroke-width: 0.8"/>
      </g>
     </g>
     <g id="text_31">
      <!-- 0.3 -->
      <g transform="translate(27.240625 450.878184)scale(0.1 -0.1)">
       <use xlink:href="#DejaVuSans-30"/>
       <use xlink:href="#DejaVuSans-2e" x="63.623047"/>
       <use xlink:href="#DejaVuSans-33" x="95.410156"/>
      </g>
     </g>
    </g>
    <g id="ytick_15">
     <g id="line2d_92">
      <path d="M 50.14375 415.66216 
L 384.94375 415.66216 
" clip-path="url(#p3098704a80)" style="fill: none; stroke-dasharray: 0.8,1.32; stroke-dashoffset: 0; stroke: #b0b0b0; stroke-width: 0.8"/>
     </g>
     <g id="line2d_93">
      <g>
       <use xlink:href="#mca752aca78" x="50.14375" y="415.66216" style="stroke: #000000; stroke-width: 0.8"/>
      </g>
     </g>
     <g id="text_32">
      <!-- 0.4 -->
      <g transform="translate(27.240625 419.461378)scale(0.1 -0.1)">
       <use xlink:href="#DejaVuSans-30"/>
       <use xlink:href="#DejaVuSans-2e" x="63.623047"/>
       <use xlink:href="#DejaVuSans-34" x="95.410156"/>
      </g>
     </g>
    </g>
    <g id="ytick_16">
     <g id="line2d_94">
      <path d="M 50.14375 384.245354 
L 384.94375 384.245354 
" clip-path="url(#p3098704a80)" style="fill: none; stroke-dasharray: 0.8,1.32; stroke-dashoffset: 0; stroke: #b0b0b0; stroke-width: 0.8"/>
     </g>
     <g id="line2d_95">
      <g>
       <use xlink:href="#mca752aca78" x="50.14375" y="384.245354" style="stroke: #000000; stroke-width: 0.8"/>
      </g>
     </g>
     <g id="text_33">
      <!-- 0.5 -->
      <g transform="translate(27.240625 388.044573)scale(0.1 -0.1)">
       <use xlink:href="#DejaVuSans-30"/>
       <use xlink:href="#DejaVuSans-2e" x="63.623047"/>
       <use xlink:href="#DejaVuSans-35" x="95.410156"/>
      </g>
     </g>
    </g>
    <g id="text_34">
     <!-- Correlazione $\rho$ -->
     <g transform="translate(21.140625 500.53949)rotate(-90)scale(0.1 -0.1)">
      <defs>
       <path id="DejaVuSans-43" d="M 4122 4306 
L 4122 3641 
Q 3803 3938 3442 4084 
Q 3081 4231 2675 4231 
Q 1875 4231 1450 3742 
Q 1025 3253 1025 2328 
Q 1025 1406 1450 917 
Q 1875 428 2675 428 
Q 3081 428 3442 575 
Q 3803 722 4122 1019 
L 4122 359 
Q 3791 134 3420 21 
Q 3050 -91 2638 -91 
Q 1578 -91 968 557 
Q 359 1206 359 2328 
Q 359 3453 968 4101 
Q 1578 4750 2638 4750 
Q 3056 4750 3426 4639 
Q 3797 4528 4122 4306 
z
" transform="scale(0.015625)"/>
       <path id="DejaVuSans-Oblique-3c1" d="M 1203 2875 
Q 1453 3194 1981 3475 
Q 2188 3584 2756 3584 
Q 3394 3584 3694 3078 
Q 3994 2572 3834 1747 
Q 3672 922 3175 415 
Q 2678 -91 2041 -91 
Q 1656 -91 1409 63 
Q 1163 213 1044 525 
L 681 -1331 
L 103 -1331 
L 697 1716 
Q 838 2438 1203 2875 
z
M 3238 1747 
Q 3359 2381 3169 2744 
Q 2978 3103 2522 3103 
Q 2066 3103 1734 2744 
Q 1403 2381 1281 1747 
Q 1156 1113 1347 750 
Q 1538 391 1994 391 
Q 2450 391 2781 750 
Q 3113 1113 3238 1747 
z
" transform="scale(0.015625)"/>
      </defs>
      <use xlink:href="#DejaVuSans-43" transform="translate(0 0.015625)"/>
      <use xlink:href="#DejaVuSans-6f" transform="translate(69.824219 0.015625)"/>
      <use xlink:href="#DejaVuSans-72" transform="translate(131.005859 0.015625)"/>
      <use xlink:href="#DejaVuSans-72" transform="translate(172.119141 0.015625)"/>
      <use xlink:href="#DejaVuSans-65" transform="translate(213.232422 0.015625)"/>
      <use xlink:href="#DejaVuSans-6c" transform="translate(274.755859 0.015625)"/>
      <use xlink:href="#DejaVuSans-61" transform="translate(302.539062 0.015625)"/>
      <use xlink:href="#DejaVuSans-7a" transform="translate(363.818359 0.015625)"/>
      <use xlink:href="#DejaVuSans-69" transform="translate(416.308594 0.015625)"/>
      <use xlink:href="#DejaVuSans-6f" transform="translate(444.091797 0.015625)"/>
      <use xlink:href="#DejaVuSans-6e" transform="translate(505.273438 0.015625)"/>
      <use xlink:href="#DejaVuSans-65" transform="translate(568.652344 0.015625)"/>
      <use xlink:href="#DejaVuSans-20" transform="translate(630.175781 0.015625)"/>
      <use xlink:href="#DejaVuSans-Oblique-3c1" transform="translate(661.962891 0.015625)"/>
     </g>
    </g>
   </g>
   <g id="line2d_96">
    <path d="M 50.14375 529.2555 
L 61.30375 502.159893 
L 72.46375 457.999222 
L 83.62375 448.803534 
L 94.78375 424.200197 
L 105.94375 401.186124 
L 117.10375 389.64411 
L 128.26375 385.548118 
L 139.42375 388.370589 
L 150.58375 387.593098 
L 161.74375 387.931707 
L 172.90375 389.870176 
L 184.06375 393.996216 
L 195.22375 394.448417 
L 206.38375 394.141643 
L 217.54375 398.406201 
L 228.70375 398.810937 
L 239.86375 402.755098 
L 251.02375 409.817304 
L 262.18375 418.224067 
L 273.34375 426.881201 
L 284.50375 439.475986 
L 295.66375 450.467908 
L 306.82375 455.592854 
L 317.98375 469.149799 
L 329.14375 477.829491 
L 340.30375 487.507688 
L 351.46375 489.395809 
L 362.62375 496.535421 
L 373.78375 504.727161 
L 384.94375 509.346443 
" clip-path="url(#p3098704a80)" style="fill: none; stroke: #ff0000; stroke-width: 1.5; stroke-linecap: square"/>
   </g>
   <g id="line2d_97">
    <path d="M 50.14375 536.183926 
L 61.30375 506.091378 
L 72.46375 472.032806 
L 83.62375 447.535228 
L 94.78375 422.765128 
L 105.94375 403.116 
L 117.10375 389.102991 
L 128.26375 385.73508 
L 139.42375 385.836557 
L 150.58375 387.544865 
L 161.74375 389.453823 
L 172.90375 389.44219 
L 184.06375 393.038788 
L 195.22375 392.908538 
L 206.38375 393.345543 
L 217.54375 399.326565 
L 228.70375 399.993089 
L 239.86375 404.086589 
L 251.02375 412.664436 
L 262.18375 420.05181 
L 273.34375 429.650178 
L 284.50375 443.257023 
L 295.66375 453.571849 
L 306.82375 463.607705 
L 317.98375 472.822425 
L 329.14375 483.43785 
L 340.30375 491.939416 
L 351.46375 496.1152 
L 362.62375 502.70032 
L 373.78375 508.240022 
L 384.94375 512.59616 
" clip-path="url(#p3098704a80)" style="fill: none; stroke: #ffc900; stroke-width: 1.5; stroke-linecap: square"/>
   </g>
   <g id="line2d_98">
    <path d="M 50.14375 538.321655 
L 61.30375 516.277853 
L 72.46375 484.156878 
L 83.62375 456.119435 
L 94.78375 429.471758 
L 105.94375 409.50524 
L 117.10375 393.012672 
L 128.26375 387.257679 
L 139.42375 386.852174 
L 150.58375 387.672845 
L 161.74375 390.432752 
L 172.90375 390.931266 
L 184.06375 394.68232 
L 195.22375 396.726724 
L 206.38375 400.151723 
L 217.54375 406.161023 
L 228.70375 410.575139 
L 239.86375 416.58602 
L 251.02375 423.153651 
L 262.18375 431.371496 
L 273.34375 442.605728 
L 284.50375 455.858244 
L 295.66375 467.117283 
L 306.82375 475.452842 
L 317.98375 484.006337 
L 329.14375 492.676578 
L 340.30375 498.856982 
L 351.46375 505.856929 
L 362.62375 512.362271 
L 373.78375 515.487641 
L 384.94375 520.513012 
" clip-path="url(#p3098704a80)" style="fill: none; stroke: #6cff00; stroke-width: 1.5; stroke-linecap: square"/>
   </g>
   <g id="line2d_99">
    <path d="M 50.14375 542.930863 
L 61.30375 520.467611 
L 72.46375 492.737762 
L 83.62375 465.545473 
L 94.78375 438.27188 
L 105.94375 416.105894 
L 117.10375 402.434014 
L 128.26375 393.765581 
L 139.42375 390.812623 
L 150.58375 391.666153 
L 161.74375 390.638013 
L 172.90375 392.648715 
L 184.06375 397.247233 
L 195.22375 401.665141 
L 206.38375 405.805185 
L 217.54375 411.452564 
L 228.70375 416.875916 
L 239.86375 424.974271 
L 251.02375 433.277734 
L 262.18375 445.070159 
L 273.34375 457.682222 
L 284.50375 468.71141 
L 295.66375 478.855144 
L 306.82375 485.704356 
L 317.98375 491.797504 
L 329.14375 500.233508 
L 340.30375 507.157632 
L 351.46375 513.694806 
L 362.62375 518.719497 
L 373.78375 522.737552 
L 384.94375 526.434574 
" clip-path="url(#p3098704a80)" style="fill: none; stroke: #00ff5c; stroke-width: 1.5; stroke-linecap: square"/>
   </g>
   <g id="line2d_100">
    <path d="M 50.14375 540.435923 
L 61.30375 525.437423 
L 72.46375 502.429864 
L 83.62375 477.379329 
L 94.78375 453.412143 
L 105.94375 431.152856 
L 117.10375 412.751112 
L 128.26375 403.532813 
L 139.42375 399.531613 
L 150.58375 397.233349 
L 161.74375 398.375835 
L 172.90375 400.254525 
L 184.06375 404.578715 
L 195.22375 410.347063 
L 206.38375 415.945747 
L 217.54375 418.411561 
L 228.70375 423.265506 
L 239.86375 432.473129 
L 251.02375 444.497232 
L 262.18375 457.384682 
L 273.34375 470.219667 
L 284.50375 480.343145 
L 295.66375 488.261357 
L 306.82375 495.947818 
L 317.98375 502.98245 
L 329.14375 508.569089 
L 340.30375 514.010528 
L 351.46375 518.86607 
L 362.62375 522.422663 
L 373.78375 526.068181 
L 384.94375 530.819762 
" clip-path="url(#p3098704a80)" style="fill: none; stroke: #00d9ff; stroke-width: 1.5; stroke-linecap: square"/>
   </g>
   <g id="line2d_101">
    <path d="M 50.14375 542.566077 
L 61.30375 526.880815 
L 72.46375 506.602303 
L 83.62375 486.192969 
L 94.78375 459.08345 
L 105.94375 437.157506 
L 117.10375 419.452059 
L 128.26375 407.188402 
L 139.42375 399.557487 
L 150.58375 397.884465 
L 161.74375 398.93013 
L 172.90375 403.711998 
L 184.06375 411.869223 
L 195.22375 420.702589 
L 206.38375 427.883255 
L 217.54375 433.817029 
L 228.70375 437.333422 
L 239.86375 443.957133 
L 251.02375 454.260317 
L 262.18375 466.238572 
L 273.34375 477.35303 
L 284.50375 488.899514 
L 295.66375 498.023894 
L 306.82375 505.104998 
L 317.98375 511.593556 
L 329.14375 517.877334 
L 340.30375 523.876658 
L 351.46375 527.084533 
L 362.62375 528.401174 
L 373.78375 531.01491 
L 384.94375 534.712003 
" clip-path="url(#p3098704a80)" style="fill: none; stroke: #0010ff; stroke-width: 1.5; stroke-linecap: square"/>
   </g>
   <g id="line2d_102">
    <path d="M 50.14375 537.449474 
L 61.30375 534.554647 
L 72.46375 519.674765 
L 83.62375 503.773224 
L 94.78375 478.945598 
L 105.94375 457.46387 
L 117.10375 439.348247 
L 128.26375 423.993998 
L 139.42375 414.533458 
L 150.58375 408.963506 
L 161.74375 408.780093 
L 172.90375 412.100257 
L 184.06375 416.219688 
L 195.22375 423.879009 
L 206.38375 429.31339 
L 217.54375 436.343959 
L 228.70375 440.560194 
L 239.86375 447.397328 
L 251.02375 461.678271 
L 262.18375 477.786372 
L 273.34375 489.795005 
L 284.50375 499.866076 
L 295.66375 506.072818 
L 306.82375 512.785136 
L 317.98375 517.5177 
L 329.14375 522.75112 
L 340.30375 527.000992 
L 351.46375 527.816357 
L 362.62375 530.745429 
L 373.78375 533.744511 
L 384.94375 534.790636 
" clip-path="url(#p3098704a80)" style="fill: none; stroke: #b900ff; stroke-width: 1.5; stroke-linecap: square"/>
   </g>
   <g id="patch_14">
    <path d="M 50.14375 550.8 
L 50.14375 377.678981 
" style="fill: none; stroke: #000000; stroke-width: 0.8; stroke-linejoin: miter; stroke-linecap: square"/>
   </g>
   <g id="patch_15">
    <path d="M 384.94375 550.8 
L 384.94375 377.678981 
" style="fill: none; stroke: #000000; stroke-width: 0.8; stroke-linejoin: miter; stroke-linecap: square"/>
   </g>
   <g id="patch_16">
    <path d="M 50.14375 550.8 
L 384.94375 550.8 
" style="fill: none; stroke: #000000; stroke-width: 0.8; stroke-linejoin: miter; stroke-linecap: square"/>
   </g>
   <g id="patch_17">
    <path d="M 50.14375 377.678981 
L 384.94375 377.678981 
" style="fill: none; stroke: #000000; stroke-width: 0.8; stroke-linejoin: miter; stroke-linecap: square"/>
   </g>
  </g>
  <g id="axes_4">
   <g id="matplotlib.axis_7">
    <g id="ytick_17">
     <g id="line2d_103">
      <defs>
       <path id="mfddf1f1f46" d="M 0 0 
L 3.5 0 
" style="stroke: #000000; stroke-width: 0.8"/>
      </defs>
      <g>
       <use xlink:href="#mfddf1f1f46" x="384.94375" y="175.823348" style="stroke: #000000; stroke-width: 0.8"/>
      </g>
     </g>
     <g id="text_35">
      <!-- 0.02 -->
      <g transform="translate(391.94375 179.622567)scale(0.1 -0.1)">
       <use xlink:href="#DejaVuSans-30"/>
       <use xlink:href="#DejaVuSans-2e" x="63.623047"/>
       <use xlink:href="#DejaVuSans-30" x="95.410156"/>
       <use xlink:href="#DejaVuSans-32" x="159.033203"/>
      </g>
     </g>
    </g>
    <g id="ytick_18">
     <g id="line2d_104">
      <g>
       <use xlink:href="#mfddf1f1f46" x="384.94375" y="149.240397" style="stroke: #000000; stroke-width: 0.8"/>
      </g>
     </g>
     <g id="text_36">
      <!-- 0.03 -->
      <g transform="translate(391.94375 153.039616)scale(0.1 -0.1)">
       <use xlink:href="#DejaVuSans-30"/>
       <use xlink:href="#DejaVuSans-2e" x="63.623047"/>
       <use xlink:href="#DejaVuSans-30" x="95.410156"/>
       <use xlink:href="#DejaVuSans-33" x="159.033203"/>
      </g>
     </g>
    </g>
    <g id="ytick_19">
     <g id="line2d_105">
      <g>
       <use xlink:href="#mfddf1f1f46" x="384.94375" y="122.657446" style="stroke: #000000; stroke-width: 0.8"/>
      </g>
     </g>
     <g id="text_37">
      <!-- 0.04 -->
      <g transform="translate(391.94375 126.456665)scale(0.1 -0.1)">
       <use xlink:href="#DejaVuSans-30"/>
       <use xlink:href="#DejaVuSans-2e" x="63.623047"/>
       <use xlink:href="#DejaVuSans-30" x="95.410156"/>
       <use xlink:href="#DejaVuSans-34" x="159.033203"/>
      </g>
     </g>
    </g>
    <g id="ytick_20">
     <g id="line2d_106">
      <g>
       <use xlink:href="#mfddf1f1f46" x="384.94375" y="96.074496" style="stroke: #000000; stroke-width: 0.8"/>
      </g>
     </g>
     <g id="text_38">
      <!-- 0.05 -->
      <g transform="translate(391.94375 99.873714)scale(0.1 -0.1)">
       <use xlink:href="#DejaVuSans-30"/>
       <use xlink:href="#DejaVuSans-2e" x="63.623047"/>
       <use xlink:href="#DejaVuSans-30" x="95.410156"/>
       <use xlink:href="#DejaVuSans-35" x="159.033203"/>
      </g>
     </g>
    </g>
    <g id="ytick_21">
     <g id="line2d_107">
      <g>
       <use xlink:href="#mfddf1f1f46" x="384.94375" y="69.491545" style="stroke: #000000; stroke-width: 0.8"/>
      </g>
     </g>
     <g id="text_39">
      <!-- 0.06 -->
      <g transform="translate(391.94375 73.290763)scale(0.1 -0.1)">
       <use xlink:href="#DejaVuSans-30"/>
       <use xlink:href="#DejaVuSans-2e" x="63.623047"/>
       <use xlink:href="#DejaVuSans-30" x="95.410156"/>
       <use xlink:href="#DejaVuSans-36" x="159.033203"/>
      </g>
     </g>
    </g>
    <g id="ytick_22">
     <g id="line2d_108">
      <g>
       <use xlink:href="#mfddf1f1f46" x="384.94375" y="42.908594" style="stroke: #000000; stroke-width: 0.8"/>
      </g>
     </g>
     <g id="text_40">
      <!-- 0.07 -->
      <g transform="translate(391.94375 46.707813)scale(0.1 -0.1)">
       <defs>
        <path id="DejaVuSans-37" d="M 525 4666 
L 3525 4666 
L 3525 4397 
L 1831 0 
L 1172 0 
L 2766 4134 
L 525 4134 
L 525 4666 
z
" transform="scale(0.015625)"/>
       </defs>
       <use xlink:href="#DejaVuSans-30"/>
       <use xlink:href="#DejaVuSans-2e" x="63.623047"/>
       <use xlink:href="#DejaVuSans-30" x="95.410156"/>
       <use xlink:href="#DejaVuSans-37" x="159.033203"/>
      </g>
     </g>
    </g>
    <g id="ytick_23">
     <g id="line2d_109">
      <g>
       <use xlink:href="#mfddf1f1f46" x="384.94375" y="16.325643" style="stroke: #000000; stroke-width: 0.8"/>
      </g>
     </g>
     <g id="text_41">
      <!-- 0.08 -->
      <g transform="translate(391.94375 20.124862)scale(0.1 -0.1)">
       <use xlink:href="#DejaVuSans-30"/>
       <use xlink:href="#DejaVuSans-2e" x="63.623047"/>
       <use xlink:href="#DejaVuSans-30" x="95.410156"/>
       <use xlink:href="#DejaVuSans-38" x="159.033203"/>
      </g>
     </g>
    </g>
    <g id="text_42">
     <!-- $\sigma (A)$ [u.a.] -->
     <g transform="translate(425.807813 119.16051)rotate(-90)scale(0.1 -0.1)">
      <defs>
       <path id="DejaVuSans-Oblique-3c3" d="M 2219 3044 
Q 1744 3044 1422 2700 
Q 1081 2341 969 1747 
Q 844 1119 1044 756 
Q 1241 397 1706 397 
Q 2166 397 2503 759 
Q 2844 1122 2966 1747 
Q 3075 2319 2881 2700 
Q 2700 3044 2219 3044 
z
M 2309 3503 
L 4219 3500 
L 4106 2925 
L 3463 2925 
Q 3706 2438 3575 1747 
Q 3406 888 2884 400 
Q 2359 -91 1609 -91 
Q 856 -91 525 400 
Q 194 888 363 1747 
Q 528 2609 1050 3097 
Q 1484 3503 2309 3503 
z
" transform="scale(0.015625)"/>
       <path id="DejaVuSans-28" d="M 1984 4856 
Q 1566 4138 1362 3434 
Q 1159 2731 1159 2009 
Q 1159 1288 1364 580 
Q 1569 -128 1984 -844 
L 1484 -844 
Q 1016 -109 783 600 
Q 550 1309 550 2009 
Q 550 2706 781 3412 
Q 1013 4119 1484 4856 
L 1984 4856 
z
" transform="scale(0.015625)"/>
       <path id="DejaVuSans-29" d="M 513 4856 
L 1013 4856 
Q 1481 4119 1714 3412 
Q 1947 2706 1947 2009 
Q 1947 1309 1714 600 
Q 1481 -109 1013 -844 
L 513 -844 
Q 928 -128 1133 580 
Q 1338 1288 1338 2009 
Q 1338 2731 1133 3434 
Q 928 4138 513 4856 
z
" transform="scale(0.015625)"/>
      </defs>
      <use xlink:href="#DejaVuSans-Oblique-3c3" transform="translate(0 0.015625)"/>
      <use xlink:href="#DejaVuSans-28" transform="translate(63.378906 0.015625)"/>
      <use xlink:href="#DejaVuSans-Oblique-41" transform="translate(102.392578 0.015625)"/>
      <use xlink:href="#DejaVuSans-29" transform="translate(170.800781 0.015625)"/>
      <use xlink:href="#DejaVuSans-20" transform="translate(209.814453 0.015625)"/>
      <use xlink:href="#DejaVuSans-5b" transform="translate(241.601562 0.015625)"/>
      <use xlink:href="#DejaVuSans-75" transform="translate(280.615234 0.015625)"/>
      <use xlink:href="#DejaVuSans-2e" transform="translate(343.994141 0.015625)"/>
      <use xlink:href="#DejaVuSans-61" transform="translate(375.78125 0.015625)"/>
      <use xlink:href="#DejaVuSans-2e" transform="translate(437.060547 0.015625)"/>
      <use xlink:href="#DejaVuSans-5d" transform="translate(468.847656 0.015625)"/>
     </g>
    </g>
   </g>
   <g id="line2d_110">
    <path d="M 50.14375 86.323083 
L 61.30375 82.183112 
L 72.46375 79.212094 
L 83.62375 76.921075 
L 94.78375 73.015796 
L 105.94375 68.656673 
L 117.10375 63.285476 
L 128.26375 56.631656 
L 139.42375 51.43554 
L 150.58375 46.41877 
L 161.74375 43.319748 
L 172.90375 42.872712 
L 184.06375 44.407262 
L 195.22375 51.211546 
L 206.38375 60.171777 
L 217.54375 76.028851 
L 228.70375 93.742292 
L 239.86375 112.21012 
L 251.02375 126.445008 
L 262.18375 137.294019 
L 273.34375 146.584892 
L 284.50375 153.822605 
L 295.66375 158.652773 
L 306.82375 162.54391 
L 317.98375 164.887678 
L 329.14375 166.221905 
L 340.30375 168.147877 
L 351.46375 170.738089 
L 362.62375 171.499709 
L 373.78375 172.005144 
L 384.94375 172.451882 
" clip-path="url(#pc4180a1da2)" style="fill: none; stroke-dasharray: 5.55,2.4; stroke-dashoffset: 0; stroke: #ff0000; stroke-width: 1.5"/>
   </g>
   <g id="line2d_111">
    <path d="M 50.14375 86.614164 
L 61.30375 82.580481 
L 72.46375 79.75201 
L 83.62375 77.351583 
L 94.78375 73.832263 
L 105.94375 69.514476 
L 117.10375 64.006188 
L 128.26375 57.217807 
L 139.42375 51.011211 
L 150.58375 45.77922 
L 161.74375 42.270602 
L 172.90375 40.641684 
L 184.06375 42.170807 
L 195.22375 47.767612 
L 206.38375 57.455259 
L 217.54375 73.792688 
L 228.70375 93.213056 
L 239.86375 112.100684 
L 251.02375 126.454519 
L 262.18375 137.88099 
L 273.34375 147.210566 
L 284.50375 154.055087 
L 295.66375 158.663164 
L 306.82375 162.452002 
L 317.98375 164.685817 
L 329.14375 166.400331 
L 340.30375 168.195192 
L 351.46375 170.346441 
L 362.62375 171.067096 
L 373.78375 171.591734 
L 384.94375 172.095501 
" clip-path="url(#pc4180a1da2)" style="fill: none; stroke-dasharray: 5.55,2.4; stroke-dashoffset: 0; stroke: #ffc900; stroke-width: 1.5"/>
   </g>
   <g id="line2d_112">
    <path d="M 50.14375 86.910539 
L 61.30375 83.423097 
L 72.46375 80.533718 
L 83.62375 77.965544 
L 94.78375 74.426081 
L 105.94375 70.311458 
L 117.10375 65.381834 
L 128.26375 58.912804 
L 139.42375 52.157564 
L 150.58375 45.737876 
L 161.74375 40.063447 
L 172.90375 36.164999 
L 184.06375 35.397937 
L 195.22375 39.438885 
L 206.38375 49.111695 
L 217.54375 65.564285 
L 228.70375 87.096822 
L 239.86375 107.962476 
L 251.02375 125.107297 
L 262.18375 138.032657 
L 273.34375 147.484313 
L 284.50375 153.978941 
L 295.66375 158.48878 
L 306.82375 161.988175 
L 317.98375 164.459569 
L 329.14375 166.162905 
L 340.30375 168.057306 
L 351.46375 169.637978 
L 362.62375 170.448075 
L 373.78375 171.22039 
L 384.94375 171.722018 
" clip-path="url(#pc4180a1da2)" style="fill: none; stroke-dasharray: 5.55,2.4; stroke-dashoffset: 0; stroke: #6cff00; stroke-width: 1.5"/>
   </g>
   <g id="line2d_113">
    <path d="M 50.14375 87.105474 
L 61.30375 84.029504 
L 72.46375 81.430008 
L 83.62375 78.940487 
L 94.78375 75.66452 
L 105.94375 71.814774 
L 117.10375 66.748293 
L 128.26375 60.373848 
L 139.42375 53.681279 
L 150.58375 46.458765 
L 161.74375 39.809576 
L 172.90375 34.229122 
L 184.06375 32.114413 
L 195.22375 34.556121 
L 206.38375 42.77301 
L 217.54375 58.2635 
L 228.70375 80.685887 
L 239.86375 104.057386 
L 251.02375 123.186127 
L 262.18375 137.615592 
L 273.34375 147.527206 
L 284.50375 154.228577 
L 295.66375 158.996643 
L 306.82375 162.616355 
L 317.98375 165.238522 
L 329.14375 167.072914 
L 340.30375 168.529825 
L 351.46375 169.643601 
L 362.62375 170.475004 
L 373.78375 171.204765 
L 384.94375 171.847895 
" clip-path="url(#pc4180a1da2)" style="fill: none; stroke-dasharray: 5.55,2.4; stroke-dashoffset: 0; stroke: #00ff5c; stroke-width: 1.5"/>
   </g>
   <g id="line2d_114">
    <path d="M 50.14375 87.216356 
L 61.30375 84.754646 
L 72.46375 82.295195 
L 83.62375 79.88194 
L 94.78375 76.907418 
L 105.94375 73.172269 
L 117.10375 68.356246 
L 128.26375 62.623331 
L 139.42375 56.00399 
L 150.58375 49.135645 
L 161.74375 41.388717 
L 172.90375 34.391336 
L 184.06375 29.614905 
L 195.22375 29.276884 
L 206.38375 35.800599 
L 217.54375 49.535611 
L 228.70375 71.447676 
L 239.86375 97.442973 
L 251.02375 120.849685 
L 262.18375 136.18878 
L 273.34375 146.772248 
L 284.50375 154.022704 
L 295.66375 159.048565 
L 306.82375 162.408368 
L 317.98375 164.712543 
L 329.14375 166.478864 
L 340.30375 167.942571 
L 351.46375 168.998048 
L 362.62375 170.072437 
L 373.78375 170.784162 
L 384.94375 171.381774 
" clip-path="url(#pc4180a1da2)" style="fill: none; stroke-dasharray: 5.55,2.4; stroke-dashoffset: 0; stroke: #00d9ff; stroke-width: 1.5"/>
   </g>
   <g id="line2d_115">
    <path d="M 50.14375 87.241411 
L 61.30375 85.166958 
L 72.46375 82.839788 
L 83.62375 80.437274 
L 94.78375 77.659947 
L 105.94375 74.17934 
L 117.10375 69.489128 
L 128.26375 63.544682 
L 139.42375 57.058521 
L 150.58375 49.361848 
L 161.74375 40.959162 
L 172.90375 32.255978 
L 184.06375 26.931976 
L 195.22375 25.421012 
L 206.38375 30.763781 
L 217.54375 43.304953 
L 228.70375 65.524577 
L 239.86375 92.985734 
L 251.02375 116.886657 
L 262.18375 134.766213 
L 273.34375 145.947987 
L 284.50375 152.927991 
L 295.66375 157.654364 
L 306.82375 161.204746 
L 317.98375 163.928658 
L 329.14375 165.886279 
L 340.30375 167.373189 
L 351.46375 168.602804 
L 362.62375 169.725478 
L 373.78375 170.624322 
L 384.94375 171.298819 
" clip-path="url(#pc4180a1da2)" style="fill: none; stroke-dasharray: 5.55,2.4; stroke-dashoffset: 0; stroke: #0010ff; stroke-width: 1.5"/>
   </g>
   <g id="line2d_116">
    <path d="M 50.14375 87.22168 
L 61.30375 85.913247 
L 72.46375 83.86915 
L 83.62375 81.740445 
L 94.78375 78.752085 
L 105.94375 75.095173 
L 117.10375 70.464107 
L 128.26375 64.304389 
L 139.42375 57.37292 
L 150.58375 48.301954 
L 161.74375 38.228815 
L 172.90375 27.955396 
L 184.06375 19.457309 
L 195.22375 15.069137 
L 206.38375 18.503373 
L 217.54375 32.830197 
L 228.70375 58.795024 
L 239.86375 90.315674 
L 251.02375 117.580726 
L 262.18375 136.401792 
L 273.34375 147.404283 
L 284.50375 154.336487 
L 295.66375 159.239716 
L 306.82375 162.744321 
L 317.98375 165.210605 
L 329.14375 167.014923 
L 340.30375 168.349963 
L 351.46375 169.579971 
L 362.62375 170.484491 
L 373.78375 171.213717 
L 384.94375 171.806081 
" clip-path="url(#pc4180a1da2)" style="fill: none; stroke-dasharray: 5.55,2.4; stroke-dashoffset: 0; stroke: #b900ff; stroke-width: 1.5"/>
   </g>
   <g id="patch_18">
    <path d="M 50.14375 180.321019 
L 50.14375 7.2 
" style="fill: none; stroke: #000000; stroke-width: 0.8; stroke-linejoin: miter; stroke-linecap: square"/>
   </g>
   <g id="patch_19">
    <path d="M 384.94375 180.321019 
L 384.94375 7.2 
" style="fill: none; stroke: #000000; stroke-width: 0.8; stroke-linejoin: miter; stroke-linecap: square"/>
   </g>
   <g id="patch_20">
    <path d="M 50.14375 180.321019 
L 384.94375 180.321019 
" style="fill: none; stroke: #000000; stroke-width: 0.8; stroke-linejoin: miter; stroke-linecap: square"/>
   </g>
   <g id="patch_21">
    <path d="M 50.14375 7.2 
L 384.94375 7.2 
" style="fill: none; stroke: #000000; stroke-width: 0.8; stroke-linejoin: miter; stroke-linecap: square"/>
   </g>
   <g id="legend_2">
    <g id="patch_22">
     <path d="M 57.14375 175.321019 
L 110.14375 175.321019 
Q 112.14375 175.321019 112.14375 173.321019 
L 112.14375 144.964769 
Q 112.14375 142.964769 110.14375 142.964769 
L 57.14375 142.964769 
Q 55.14375 142.964769 55.14375 144.964769 
L 55.14375 173.321019 
Q 55.14375 175.321019 57.14375 175.321019 
z
" style="fill: #ffffff; opacity: 0.8; stroke: #cccccc; stroke-linejoin: miter"/>
    </g>
    <g id="line2d_117">
     <path d="M 59.14375 151.063207 
L 69.14375 151.063207 
L 79.14375 151.063207 
" style="fill: none; stroke: #000000; stroke-width: 1.5; stroke-linecap: square"/>
    </g>
    <g id="text_43">
     <!-- $\langle A\rangle$ -->
     <g transform="translate(87.14375 154.563207)scale(0.1 -0.1)">
      <use xlink:href="#DejaVuSans-27e8" transform="translate(0 0.125)"/>
      <use xlink:href="#DejaVuSans-Oblique-41" transform="translate(39.013672 0.125)"/>
      <use xlink:href="#DejaVuSans-27e9" transform="translate(107.421875 0.125)"/>
     </g>
    </g>
    <g id="line2d_118">
     <path d="M 59.14375 165.741332 
L 69.14375 165.741332 
L 79.14375 165.741332 
" style="fill: none; stroke-dasharray: 5.55,2.4; stroke-dashoffset: 0; stroke: #000000; stroke-width: 1.5"/>
    </g>
    <g id="text_44">
     <!-- $\sigma(A)$ -->
     <g transform="translate(87.14375 169.241332)scale(0.1 -0.1)">
      <use xlink:href="#DejaVuSans-Oblique-3c3" transform="translate(0 0.125)"/>
      <use xlink:href="#DejaVuSans-28" transform="translate(63.378906 0.125)"/>
      <use xlink:href="#DejaVuSans-Oblique-41" transform="translate(102.392578 0.125)"/>
      <use xlink:href="#DejaVuSans-29" transform="translate(170.800781 0.125)"/>
     </g>
    </g>
   </g>
  </g>
 </g>
 <defs>
  <clipPath id="pc4180a1da2">
   <rect x="50.14375" y="7.2" width="334.8" height="173.121019"/>
  </clipPath>
  <clipPath id="p0935a5f86f">
   <rect x="50.14375" y="192.43949" width="334.8" height="173.121019"/>
  </clipPath>
  <clipPath id="p3098704a80">
   <rect x="50.14375" y="377.678981" width="334.8" height="173.121019"/>
  </clipPath>
 </defs>
</svg>
