<?xml version="1.0" encoding="utf-8" standalone="no"?>
<!DOCTYPE svg PUBLIC "-//W3C//DTD SVG 1.1//EN"
  "http://www.w3.org/Graphics/SVG/1.1/DTD/svg11.dtd">
<svg xmlns:xlink="http://www.w3.org/1999/xlink" width="483.158148pt" height="592.118125pt" viewBox="0 0 483.158148 592.118125" xmlns="http://www.w3.org/2000/svg" version="1.1">
 <metadata>
  <rdf:RDF xmlns:dc="http://purl.org/dc/elements/1.1/" xmlns:cc="http://creativecommons.org/ns#" xmlns:rdf="http://www.w3.org/1999/02/22-rdf-syntax-ns#">
   <cc:Work>
    <dc:type rdf:resource="http://purl.org/dc/dcmitype/StillImage"/>
    <dc:date>2022-09-13T02:25:43.899947</dc:date>
    <dc:format>image/svg+xml</dc:format>
    <dc:creator>
     <cc:Agent>
      <dc:title>Matplotlib v3.5.1, https://matplotlib.org/</dc:title>
     </cc:Agent>
    </dc:creator>
   </cc:Work>
  </rdf:RDF>
 </metadata>
 <defs>
  <style type="text/css">*{stroke-linejoin: round; stroke-linecap: butt}</style>
 </defs>
 <g id="figure_1">
  <g id="patch_1">
   <path d="M 0 592.118125 
L 483.158148 592.118125 
L 483.158148 0 
L 0 0 
L 0 592.118125 
z
" style="fill: none"/>
  </g>
  <g id="axes_1">
   <g id="patch_2">
    <path d="M 23.878125 258.866667 
L 470.278125 258.866667 
L 470.278125 7.2 
L 23.878125 7.2 
z
" style="fill: #ffffff"/>
   </g>
   <g id="patch_3">
    <path d="M 284.896985 258.866667 
L 284.896985 224.626304 
L 299.96657 224.626304 
L 299.96657 224.626304 
L 315.036156 224.626304 
L 315.036156 19.184127 
L 330.105742 19.184127 
L 330.105742 139.025397 
L 345.175328 139.025397 
L 345.175328 156.145578 
L 360.244914 156.145578 
L 360.244914 36.304308 
L 375.314499 36.304308 
L 375.314499 207.506122 
L 390.384085 207.506122 
L 390.384085 241.746485 
L 405.453671 241.746485 
L 405.453671 258.866667 
L 420.523257 258.866667 
L 420.523257 224.626304 
L 435.592843 224.626304 
L 435.592843 258.866667 
L 420.523257 258.866667 
L 420.523257 258.866667 
L 405.453671 258.866667 
L 405.453671 258.866667 
L 390.384085 258.866667 
L 390.384085 258.866667 
L 375.314499 258.866667 
L 375.314499 258.866667 
L 360.244914 258.866667 
L 360.244914 258.866667 
L 345.175328 258.866667 
L 345.175328 258.866667 
L 330.105742 258.866667 
L 330.105742 258.866667 
L 315.036156 258.866667 
L 315.036156 258.866667 
L 299.96657 258.866667 
L 299.96657 258.866667 
z
" clip-path="url(#p3845f2d942)" style="fill: #ff0000; opacity: 0.2"/>
   </g>
   <g id="patch_4">
    <path d="M 224.519273 258.866667 
L 224.519273 207.506122 
L 247.066067 207.506122 
L 247.066067 121.905215 
L 269.612861 121.905215 
L 269.612861 139.025397 
L 292.159656 139.025397 
L 292.159656 156.145578 
L 314.70645 156.145578 
L 314.70645 139.025397 
L 337.253244 139.025397 
L 337.253244 156.145578 
L 359.800039 156.145578 
L 359.800039 156.145578 
L 382.346833 156.145578 
L 382.346833 190.385941 
L 404.893627 190.385941 
L 404.893627 258.866667 
L 427.440422 258.866667 
L 427.440422 207.506122 
L 449.987216 207.506122 
L 449.987216 258.866667 
L 427.440422 258.866667 
L 427.440422 258.866667 
L 404.893627 258.866667 
L 404.893627 258.866667 
L 382.346833 258.866667 
L 382.346833 258.866667 
L 359.800039 258.866667 
L 359.800039 258.866667 
L 337.253244 258.866667 
L 337.253244 258.866667 
L 314.70645 258.866667 
L 314.70645 258.866667 
L 292.159656 258.866667 
L 292.159656 258.866667 
L 269.612861 258.866667 
L 269.612861 258.866667 
L 247.066067 258.866667 
L 247.066067 258.866667 
z
" clip-path="url(#p3845f2d942)" style="fill: #008000; opacity: 0.2"/>
   </g>
   <g id="patch_5">
    <path d="M 161.180702 258.866667 
L 161.180702 241.746485 
L 186.51998 241.746485 
L 186.51998 241.746485 
L 211.859257 241.746485 
L 211.859257 156.145578 
L 237.198535 156.145578 
L 237.198535 53.42449 
L 262.537813 53.42449 
L 262.537813 139.025397 
L 287.877091 139.025397 
L 287.877091 121.905215 
L 313.216369 121.905215 
L 313.216369 139.025397 
L 338.555647 139.025397 
L 338.555647 173.26576 
L 363.894925 173.26576 
L 363.894925 258.866667 
L 389.234203 258.866667 
L 389.234203 207.506122 
L 414.573481 207.506122 
L 414.573481 258.866667 
L 389.234203 258.866667 
L 389.234203 258.866667 
L 363.894925 258.866667 
L 363.894925 258.866667 
L 338.555647 258.866667 
L 338.555647 258.866667 
L 313.216369 258.866667 
L 313.216369 258.866667 
L 287.877091 258.866667 
L 287.877091 258.866667 
L 262.537813 258.866667 
L 262.537813 258.866667 
L 237.198535 258.866667 
L 237.198535 258.866667 
L 211.859257 258.866667 
L 211.859257 258.866667 
L 186.51998 258.866667 
L 186.51998 258.866667 
z
" clip-path="url(#p3845f2d942)" style="fill: #0000ff; opacity: 0.2"/>
   </g>
   <g id="patch_6">
    <path d="M 44.169034 258.866667 
L 44.169034 241.746485 
L 78.457587 241.746485 
L 78.457587 241.746485 
L 112.74614 241.746485 
L 112.74614 173.26576 
L 147.034692 173.26576 
L 147.034692 139.025397 
L 181.323245 139.025397 
L 181.323245 70.544671 
L 215.611798 70.544671 
L 215.611798 139.025397 
L 249.90035 139.025397 
L 249.90035 139.025397 
L 284.188903 139.025397 
L 284.188903 156.145578 
L 318.477456 156.145578 
L 318.477456 207.506122 
L 352.766009 207.506122 
L 352.766009 224.626304 
L 387.054561 224.626304 
L 387.054561 258.866667 
L 352.766009 258.866667 
L 352.766009 258.866667 
L 318.477456 258.866667 
L 318.477456 258.866667 
L 284.188903 258.866667 
L 284.188903 258.866667 
L 249.90035 258.866667 
L 249.90035 258.866667 
L 215.611798 258.866667 
L 215.611798 258.866667 
L 181.323245 258.866667 
L 181.323245 258.866667 
L 147.034692 258.866667 
L 147.034692 258.866667 
L 112.74614 258.866667 
L 112.74614 258.866667 
L 78.457587 258.866667 
L 78.457587 258.866667 
z
" clip-path="url(#p3845f2d942)" style="opacity: 0.2"/>
   </g>
   <g id="matplotlib.axis_1">
    <g id="xtick_1">
     <g id="line2d_1">
      <path d="M 52.822762 258.866667 
L 52.822762 7.2 
" clip-path="url(#p3845f2d942)" style="fill: none; stroke-dasharray: 0.8,1.32; stroke-dashoffset: 0; stroke: #b0b0b0; stroke-width: 0.8"/>
     </g>
     <g id="line2d_2">
      <defs>
       <path id="mf4a4d62ffc" d="M 0 0 
L 0 3.5 
" style="stroke: #000000; stroke-width: 0.8"/>
      </defs>
      <g>
       <use xlink:href="#mf4a4d62ffc" x="52.822762" y="258.866667" style="stroke: #000000; stroke-width: 0.8"/>
      </g>
     </g>
     <g id="text_1">
      <!-- 0.350 -->
      <g transform="translate(38.508699 273.465104)scale(0.1 -0.1)">
       <defs>
        <path id="DejaVuSans-30" d="M 2034 4250 
Q 1547 4250 1301 3770 
Q 1056 3291 1056 2328 
Q 1056 1369 1301 889 
Q 1547 409 2034 409 
Q 2525 409 2770 889 
Q 3016 1369 3016 2328 
Q 3016 3291 2770 3770 
Q 2525 4250 2034 4250 
z
M 2034 4750 
Q 2819 4750 3233 4129 
Q 3647 3509 3647 2328 
Q 3647 1150 3233 529 
Q 2819 -91 2034 -91 
Q 1250 -91 836 529 
Q 422 1150 422 2328 
Q 422 3509 836 4129 
Q 1250 4750 2034 4750 
z
" transform="scale(0.015625)"/>
        <path id="DejaVuSans-2e" d="M 684 794 
L 1344 794 
L 1344 0 
L 684 0 
L 684 794 
z
" transform="scale(0.015625)"/>
        <path id="DejaVuSans-33" d="M 2597 2516 
Q 3050 2419 3304 2112 
Q 3559 1806 3559 1356 
Q 3559 666 3084 287 
Q 2609 -91 1734 -91 
Q 1441 -91 1130 -33 
Q 819 25 488 141 
L 488 750 
Q 750 597 1062 519 
Q 1375 441 1716 441 
Q 2309 441 2620 675 
Q 2931 909 2931 1356 
Q 2931 1769 2642 2001 
Q 2353 2234 1838 2234 
L 1294 2234 
L 1294 2753 
L 1863 2753 
Q 2328 2753 2575 2939 
Q 2822 3125 2822 3475 
Q 2822 3834 2567 4026 
Q 2313 4219 1838 4219 
Q 1578 4219 1281 4162 
Q 984 4106 628 3988 
L 628 4550 
Q 988 4650 1302 4700 
Q 1616 4750 1894 4750 
Q 2613 4750 3031 4423 
Q 3450 4097 3450 3541 
Q 3450 3153 3228 2886 
Q 3006 2619 2597 2516 
z
" transform="scale(0.015625)"/>
        <path id="DejaVuSans-35" d="M 691 4666 
L 3169 4666 
L 3169 4134 
L 1269 4134 
L 1269 2991 
Q 1406 3038 1543 3061 
Q 1681 3084 1819 3084 
Q 2600 3084 3056 2656 
Q 3513 2228 3513 1497 
Q 3513 744 3044 326 
Q 2575 -91 1722 -91 
Q 1428 -91 1123 -41 
Q 819 9 494 109 
L 494 744 
Q 775 591 1075 516 
Q 1375 441 1709 441 
Q 2250 441 2565 725 
Q 2881 1009 2881 1497 
Q 2881 1984 2565 2268 
Q 2250 2553 1709 2553 
Q 1456 2553 1204 2497 
Q 953 2441 691 2322 
L 691 4666 
z
" transform="scale(0.015625)"/>
       </defs>
       <use xlink:href="#DejaVuSans-30"/>
       <use xlink:href="#DejaVuSans-2e" x="63.623047"/>
       <use xlink:href="#DejaVuSans-33" x="95.410156"/>
       <use xlink:href="#DejaVuSans-35" x="159.033203"/>
       <use xlink:href="#DejaVuSans-30" x="222.65625"/>
      </g>
     </g>
    </g>
    <g id="xtick_2">
     <g id="line2d_3">
      <path d="M 111.225808 258.866667 
L 111.225808 7.2 
" clip-path="url(#p3845f2d942)" style="fill: none; stroke-dasharray: 0.8,1.32; stroke-dashoffset: 0; stroke: #b0b0b0; stroke-width: 0.8"/>
     </g>
     <g id="line2d_4">
      <g>
       <use xlink:href="#mf4a4d62ffc" x="111.225808" y="258.866667" style="stroke: #000000; stroke-width: 0.8"/>
      </g>
     </g>
     <g id="text_2">
      <!-- 0.375 -->
      <g transform="translate(96.911746 273.465104)scale(0.1 -0.1)">
       <defs>
        <path id="DejaVuSans-37" d="M 525 4666 
L 3525 4666 
L 3525 4397 
L 1831 0 
L 1172 0 
L 2766 4134 
L 525 4134 
L 525 4666 
z
" transform="scale(0.015625)"/>
       </defs>
       <use xlink:href="#DejaVuSans-30"/>
       <use xlink:href="#DejaVuSans-2e" x="63.623047"/>
       <use xlink:href="#DejaVuSans-33" x="95.410156"/>
       <use xlink:href="#DejaVuSans-37" x="159.033203"/>
       <use xlink:href="#DejaVuSans-35" x="222.65625"/>
      </g>
     </g>
    </g>
    <g id="xtick_3">
     <g id="line2d_5">
      <path d="M 169.628854 258.866667 
L 169.628854 7.2 
" clip-path="url(#p3845f2d942)" style="fill: none; stroke-dasharray: 0.8,1.32; stroke-dashoffset: 0; stroke: #b0b0b0; stroke-width: 0.8"/>
     </g>
     <g id="line2d_6">
      <g>
       <use xlink:href="#mf4a4d62ffc" x="169.628854" y="258.866667" style="stroke: #000000; stroke-width: 0.8"/>
      </g>
     </g>
     <g id="text_3">
      <!-- 0.400 -->
      <g transform="translate(155.314792 273.465104)scale(0.1 -0.1)">
       <defs>
        <path id="DejaVuSans-34" d="M 2419 4116 
L 825 1625 
L 2419 1625 
L 2419 4116 
z
M 2253 4666 
L 3047 4666 
L 3047 1625 
L 3713 1625 
L 3713 1100 
L 3047 1100 
L 3047 0 
L 2419 0 
L 2419 1100 
L 313 1100 
L 313 1709 
L 2253 4666 
z
" transform="scale(0.015625)"/>
       </defs>
       <use xlink:href="#DejaVuSans-30"/>
       <use xlink:href="#DejaVuSans-2e" x="63.623047"/>
       <use xlink:href="#DejaVuSans-34" x="95.410156"/>
       <use xlink:href="#DejaVuSans-30" x="159.033203"/>
       <use xlink:href="#DejaVuSans-30" x="222.65625"/>
      </g>
     </g>
    </g>
    <g id="xtick_4">
     <g id="line2d_7">
      <path d="M 228.031901 258.866667 
L 228.031901 7.2 
" clip-path="url(#p3845f2d942)" style="fill: none; stroke-dasharray: 0.8,1.32; stroke-dashoffset: 0; stroke: #b0b0b0; stroke-width: 0.8"/>
     </g>
     <g id="line2d_8">
      <g>
       <use xlink:href="#mf4a4d62ffc" x="228.031901" y="258.866667" style="stroke: #000000; stroke-width: 0.8"/>
      </g>
     </g>
     <g id="text_4">
      <!-- 0.425 -->
      <g transform="translate(213.717838 273.465104)scale(0.1 -0.1)">
       <defs>
        <path id="DejaVuSans-32" d="M 1228 531 
L 3431 531 
L 3431 0 
L 469 0 
L 469 531 
Q 828 903 1448 1529 
Q 2069 2156 2228 2338 
Q 2531 2678 2651 2914 
Q 2772 3150 2772 3378 
Q 2772 3750 2511 3984 
Q 2250 4219 1831 4219 
Q 1534 4219 1204 4116 
Q 875 4013 500 3803 
L 500 4441 
Q 881 4594 1212 4672 
Q 1544 4750 1819 4750 
Q 2544 4750 2975 4387 
Q 3406 4025 3406 3419 
Q 3406 3131 3298 2873 
Q 3191 2616 2906 2266 
Q 2828 2175 2409 1742 
Q 1991 1309 1228 531 
z
" transform="scale(0.015625)"/>
       </defs>
       <use xlink:href="#DejaVuSans-30"/>
       <use xlink:href="#DejaVuSans-2e" x="63.623047"/>
       <use xlink:href="#DejaVuSans-34" x="95.410156"/>
       <use xlink:href="#DejaVuSans-32" x="159.033203"/>
       <use xlink:href="#DejaVuSans-35" x="222.65625"/>
      </g>
     </g>
    </g>
    <g id="xtick_5">
     <g id="line2d_9">
      <path d="M 286.434947 258.866667 
L 286.434947 7.2 
" clip-path="url(#p3845f2d942)" style="fill: none; stroke-dasharray: 0.8,1.32; stroke-dashoffset: 0; stroke: #b0b0b0; stroke-width: 0.8"/>
     </g>
     <g id="line2d_10">
      <g>
       <use xlink:href="#mf4a4d62ffc" x="286.434947" y="258.866667" style="stroke: #000000; stroke-width: 0.8"/>
      </g>
     </g>
     <g id="text_5">
      <!-- 0.450 -->
      <g transform="translate(272.120884 273.465104)scale(0.1 -0.1)">
       <use xlink:href="#DejaVuSans-30"/>
       <use xlink:href="#DejaVuSans-2e" x="63.623047"/>
       <use xlink:href="#DejaVuSans-34" x="95.410156"/>
       <use xlink:href="#DejaVuSans-35" x="159.033203"/>
       <use xlink:href="#DejaVuSans-30" x="222.65625"/>
      </g>
     </g>
    </g>
    <g id="xtick_6">
     <g id="line2d_11">
      <path d="M 344.837993 258.866667 
L 344.837993 7.2 
" clip-path="url(#p3845f2d942)" style="fill: none; stroke-dasharray: 0.8,1.32; stroke-dashoffset: 0; stroke: #b0b0b0; stroke-width: 0.8"/>
     </g>
     <g id="line2d_12">
      <g>
       <use xlink:href="#mf4a4d62ffc" x="344.837993" y="258.866667" style="stroke: #000000; stroke-width: 0.8"/>
      </g>
     </g>
     <g id="text_6">
      <!-- 0.475 -->
      <g transform="translate(330.523931 273.465104)scale(0.1 -0.1)">
       <use xlink:href="#DejaVuSans-30"/>
       <use xlink:href="#DejaVuSans-2e" x="63.623047"/>
       <use xlink:href="#DejaVuSans-34" x="95.410156"/>
       <use xlink:href="#DejaVuSans-37" x="159.033203"/>
       <use xlink:href="#DejaVuSans-35" x="222.65625"/>
      </g>
     </g>
    </g>
    <g id="xtick_7">
     <g id="line2d_13">
      <path d="M 403.241039 258.866667 
L 403.241039 7.2 
" clip-path="url(#p3845f2d942)" style="fill: none; stroke-dasharray: 0.8,1.32; stroke-dashoffset: 0; stroke: #b0b0b0; stroke-width: 0.8"/>
     </g>
     <g id="line2d_14">
      <g>
       <use xlink:href="#mf4a4d62ffc" x="403.241039" y="258.866667" style="stroke: #000000; stroke-width: 0.8"/>
      </g>
     </g>
     <g id="text_7">
      <!-- 0.500 -->
      <g transform="translate(388.926977 273.465104)scale(0.1 -0.1)">
       <use xlink:href="#DejaVuSans-30"/>
       <use xlink:href="#DejaVuSans-2e" x="63.623047"/>
       <use xlink:href="#DejaVuSans-35" x="95.410156"/>
       <use xlink:href="#DejaVuSans-30" x="159.033203"/>
       <use xlink:href="#DejaVuSans-30" x="222.65625"/>
      </g>
     </g>
    </g>
    <g id="xtick_8">
     <g id="line2d_15">
      <path d="M 461.644086 258.866667 
L 461.644086 7.2 
" clip-path="url(#p3845f2d942)" style="fill: none; stroke-dasharray: 0.8,1.32; stroke-dashoffset: 0; stroke: #b0b0b0; stroke-width: 0.8"/>
     </g>
     <g id="line2d_16">
      <g>
       <use xlink:href="#mf4a4d62ffc" x="461.644086" y="258.866667" style="stroke: #000000; stroke-width: 0.8"/>
      </g>
     </g>
     <g id="text_8">
      <!-- 0.525 -->
      <g transform="translate(447.330023 273.465104)scale(0.1 -0.1)">
       <use xlink:href="#DejaVuSans-30"/>
       <use xlink:href="#DejaVuSans-2e" x="63.623047"/>
       <use xlink:href="#DejaVuSans-35" x="95.410156"/>
       <use xlink:href="#DejaVuSans-32" x="159.033203"/>
       <use xlink:href="#DejaVuSans-35" x="222.65625"/>
      </g>
     </g>
    </g>
    <g id="text_9">
     <!-- Correlazione $\rho$ -->
     <g transform="translate(203.518125 288.664792)scale(0.12 -0.12)">
      <defs>
       <path id="DejaVuSans-43" d="M 4122 4306 
L 4122 3641 
Q 3803 3938 3442 4084 
Q 3081 4231 2675 4231 
Q 1875 4231 1450 3742 
Q 1025 3253 1025 2328 
Q 1025 1406 1450 917 
Q 1875 428 2675 428 
Q 3081 428 3442 575 
Q 3803 722 4122 1019 
L 4122 359 
Q 3791 134 3420 21 
Q 3050 -91 2638 -91 
Q 1578 -91 968 557 
Q 359 1206 359 2328 
Q 359 3453 968 4101 
Q 1578 4750 2638 4750 
Q 3056 4750 3426 4639 
Q 3797 4528 4122 4306 
z
" transform="scale(0.015625)"/>
       <path id="DejaVuSans-6f" d="M 1959 3097 
Q 1497 3097 1228 2736 
Q 959 2375 959 1747 
Q 959 1119 1226 758 
Q 1494 397 1959 397 
Q 2419 397 2687 759 
Q 2956 1122 2956 1747 
Q 2956 2369 2687 2733 
Q 2419 3097 1959 3097 
z
M 1959 3584 
Q 2709 3584 3137 3096 
Q 3566 2609 3566 1747 
Q 3566 888 3137 398 
Q 2709 -91 1959 -91 
Q 1206 -91 779 398 
Q 353 888 353 1747 
Q 353 2609 779 3096 
Q 1206 3584 1959 3584 
z
" transform="scale(0.015625)"/>
       <path id="DejaVuSans-72" d="M 2631 2963 
Q 2534 3019 2420 3045 
Q 2306 3072 2169 3072 
Q 1681 3072 1420 2755 
Q 1159 2438 1159 1844 
L 1159 0 
L 581 0 
L 581 3500 
L 1159 3500 
L 1159 2956 
Q 1341 3275 1631 3429 
Q 1922 3584 2338 3584 
Q 2397 3584 2469 3576 
Q 2541 3569 2628 3553 
L 2631 2963 
z
" transform="scale(0.015625)"/>
       <path id="DejaVuSans-65" d="M 3597 1894 
L 3597 1613 
L 953 1613 
Q 991 1019 1311 708 
Q 1631 397 2203 397 
Q 2534 397 2845 478 
Q 3156 559 3463 722 
L 3463 178 
Q 3153 47 2828 -22 
Q 2503 -91 2169 -91 
Q 1331 -91 842 396 
Q 353 884 353 1716 
Q 353 2575 817 3079 
Q 1281 3584 2069 3584 
Q 2775 3584 3186 3129 
Q 3597 2675 3597 1894 
z
M 3022 2063 
Q 3016 2534 2758 2815 
Q 2500 3097 2075 3097 
Q 1594 3097 1305 2825 
Q 1016 2553 972 2059 
L 3022 2063 
z
" transform="scale(0.015625)"/>
       <path id="DejaVuSans-6c" d="M 603 4863 
L 1178 4863 
L 1178 0 
L 603 0 
L 603 4863 
z
" transform="scale(0.015625)"/>
       <path id="DejaVuSans-61" d="M 2194 1759 
Q 1497 1759 1228 1600 
Q 959 1441 959 1056 
Q 959 750 1161 570 
Q 1363 391 1709 391 
Q 2188 391 2477 730 
Q 2766 1069 2766 1631 
L 2766 1759 
L 2194 1759 
z
M 3341 1997 
L 3341 0 
L 2766 0 
L 2766 531 
Q 2569 213 2275 61 
Q 1981 -91 1556 -91 
Q 1019 -91 701 211 
Q 384 513 384 1019 
Q 384 1609 779 1909 
Q 1175 2209 1959 2209 
L 2766 2209 
L 2766 2266 
Q 2766 2663 2505 2880 
Q 2244 3097 1772 3097 
Q 1472 3097 1187 3025 
Q 903 2953 641 2809 
L 641 3341 
Q 956 3463 1253 3523 
Q 1550 3584 1831 3584 
Q 2591 3584 2966 3190 
Q 3341 2797 3341 1997 
z
" transform="scale(0.015625)"/>
       <path id="DejaVuSans-7a" d="M 353 3500 
L 3084 3500 
L 3084 2975 
L 922 459 
L 3084 459 
L 3084 0 
L 275 0 
L 275 525 
L 2438 3041 
L 353 3041 
L 353 3500 
z
" transform="scale(0.015625)"/>
       <path id="DejaVuSans-69" d="M 603 3500 
L 1178 3500 
L 1178 0 
L 603 0 
L 603 3500 
z
M 603 4863 
L 1178 4863 
L 1178 4134 
L 603 4134 
L 603 4863 
z
" transform="scale(0.015625)"/>
       <path id="DejaVuSans-6e" d="M 3513 2113 
L 3513 0 
L 2938 0 
L 2938 2094 
Q 2938 2591 2744 2837 
Q 2550 3084 2163 3084 
Q 1697 3084 1428 2787 
Q 1159 2491 1159 1978 
L 1159 0 
L 581 0 
L 581 3500 
L 1159 3500 
L 1159 2956 
Q 1366 3272 1645 3428 
Q 1925 3584 2291 3584 
Q 2894 3584 3203 3211 
Q 3513 2838 3513 2113 
z
" transform="scale(0.015625)"/>
       <path id="DejaVuSans-20" transform="scale(0.015625)"/>
       <path id="DejaVuSans-Oblique-3c1" d="M 1203 2875 
Q 1453 3194 1981 3475 
Q 2188 3584 2756 3584 
Q 3394 3584 3694 3078 
Q 3994 2572 3834 1747 
Q 3672 922 3175 415 
Q 2678 -91 2041 -91 
Q 1656 -91 1409 63 
Q 1163 213 1044 525 
L 681 -1331 
L 103 -1331 
L 697 1716 
Q 838 2438 1203 2875 
z
M 3238 1747 
Q 3359 2381 3169 2744 
Q 2978 3103 2522 3103 
Q 2066 3103 1734 2744 
Q 1403 2381 1281 1747 
Q 1156 1113 1347 750 
Q 1538 391 1994 391 
Q 2450 391 2781 750 
Q 3113 1113 3238 1747 
z
" transform="scale(0.015625)"/>
      </defs>
      <use xlink:href="#DejaVuSans-43" transform="translate(0 0.015625)"/>
      <use xlink:href="#DejaVuSans-6f" transform="translate(69.824219 0.015625)"/>
      <use xlink:href="#DejaVuSans-72" transform="translate(131.005859 0.015625)"/>
      <use xlink:href="#DejaVuSans-72" transform="translate(172.119141 0.015625)"/>
      <use xlink:href="#DejaVuSans-65" transform="translate(213.232422 0.015625)"/>
      <use xlink:href="#DejaVuSans-6c" transform="translate(274.755859 0.015625)"/>
      <use xlink:href="#DejaVuSans-61" transform="translate(302.539062 0.015625)"/>
      <use xlink:href="#DejaVuSans-7a" transform="translate(363.818359 0.015625)"/>
      <use xlink:href="#DejaVuSans-69" transform="translate(416.308594 0.015625)"/>
      <use xlink:href="#DejaVuSans-6f" transform="translate(444.091797 0.015625)"/>
      <use xlink:href="#DejaVuSans-6e" transform="translate(505.273438 0.015625)"/>
      <use xlink:href="#DejaVuSans-65" transform="translate(568.652344 0.015625)"/>
      <use xlink:href="#DejaVuSans-20" transform="translate(630.175781 0.015625)"/>
      <use xlink:href="#DejaVuSans-Oblique-3c1" transform="translate(661.962891 0.015625)"/>
     </g>
    </g>
   </g>
   <g id="matplotlib.axis_2">
    <g id="ytick_1">
     <g id="line2d_17">
      <path d="M 23.878125 258.866667 
L 470.278125 258.866667 
" clip-path="url(#p3845f2d942)" style="fill: none; stroke-dasharray: 0.8,1.32; stroke-dashoffset: 0; stroke: #b0b0b0; stroke-width: 0.8"/>
     </g>
     <g id="line2d_18">
      <defs>
       <path id="m312aa81436" d="M 0 0 
L -3.5 0 
" style="stroke: #000000; stroke-width: 0.8"/>
      </defs>
      <g>
       <use xlink:href="#m312aa81436" x="23.878125" y="258.866667" style="stroke: #000000; stroke-width: 0.8"/>
      </g>
     </g>
     <g id="text_10">
      <!-- 0% -->
      <g transform="translate(14.798438 266.798698)rotate(-90)scale(0.1 -0.1)">
       <defs>
        <path id="DejaVuSans-25" d="M 4653 2053 
Q 4381 2053 4226 1822 
Q 4072 1591 4072 1178 
Q 4072 772 4226 539 
Q 4381 306 4653 306 
Q 4919 306 5073 539 
Q 5228 772 5228 1178 
Q 5228 1588 5073 1820 
Q 4919 2053 4653 2053 
z
M 4653 2450 
Q 5147 2450 5437 2106 
Q 5728 1763 5728 1178 
Q 5728 594 5436 251 
Q 5144 -91 4653 -91 
Q 4153 -91 3862 251 
Q 3572 594 3572 1178 
Q 3572 1766 3864 2108 
Q 4156 2450 4653 2450 
z
M 1428 4353 
Q 1159 4353 1004 4120 
Q 850 3888 850 3481 
Q 850 3069 1003 2837 
Q 1156 2606 1428 2606 
Q 1700 2606 1854 2837 
Q 2009 3069 2009 3481 
Q 2009 3884 1853 4118 
Q 1697 4353 1428 4353 
z
M 4250 4750 
L 4750 4750 
L 1831 -91 
L 1331 -91 
L 4250 4750 
z
M 1428 4750 
Q 1922 4750 2215 4408 
Q 2509 4066 2509 3481 
Q 2509 2891 2217 2550 
Q 1925 2209 1428 2209 
Q 931 2209 642 2551 
Q 353 2894 353 3481 
Q 353 4063 643 4406 
Q 934 4750 1428 4750 
z
" transform="scale(0.015625)"/>
       </defs>
       <use xlink:href="#DejaVuSans-30"/>
       <use xlink:href="#DejaVuSans-25" x="63.623047"/>
      </g>
     </g>
    </g>
    <g id="ytick_2">
     <g id="line2d_19">
      <path d="M 23.878125 216.066213 
L 470.278125 216.066213 
" clip-path="url(#p3845f2d942)" style="fill: none; stroke-dasharray: 0.8,1.32; stroke-dashoffset: 0; stroke: #b0b0b0; stroke-width: 0.8"/>
     </g>
     <g id="line2d_20">
      <g>
       <use xlink:href="#m312aa81436" x="23.878125" y="216.066213" style="stroke: #000000; stroke-width: 0.8"/>
      </g>
     </g>
     <g id="text_11">
      <!-- 5% -->
      <g transform="translate(14.798438 223.998244)rotate(-90)scale(0.1 -0.1)">
       <use xlink:href="#DejaVuSans-35"/>
       <use xlink:href="#DejaVuSans-25" x="63.623047"/>
      </g>
     </g>
    </g>
    <g id="ytick_3">
     <g id="line2d_21">
      <path d="M 23.878125 173.26576 
L 470.278125 173.26576 
" clip-path="url(#p3845f2d942)" style="fill: none; stroke-dasharray: 0.8,1.32; stroke-dashoffset: 0; stroke: #b0b0b0; stroke-width: 0.8"/>
     </g>
     <g id="line2d_22">
      <g>
       <use xlink:href="#m312aa81436" x="23.878125" y="173.26576" style="stroke: #000000; stroke-width: 0.8"/>
      </g>
     </g>
     <g id="text_12">
      <!-- 10% -->
      <g transform="translate(14.798438 184.379041)rotate(-90)scale(0.1 -0.1)">
       <defs>
        <path id="DejaVuSans-31" d="M 794 531 
L 1825 531 
L 1825 4091 
L 703 3866 
L 703 4441 
L 1819 4666 
L 2450 4666 
L 2450 531 
L 3481 531 
L 3481 0 
L 794 0 
L 794 531 
z
" transform="scale(0.015625)"/>
       </defs>
       <use xlink:href="#DejaVuSans-31"/>
       <use xlink:href="#DejaVuSans-30" x="63.623047"/>
       <use xlink:href="#DejaVuSans-25" x="127.246094"/>
      </g>
     </g>
    </g>
    <g id="ytick_4">
     <g id="line2d_23">
      <path d="M 23.878125 130.465306 
L 470.278125 130.465306 
" clip-path="url(#p3845f2d942)" style="fill: none; stroke-dasharray: 0.8,1.32; stroke-dashoffset: 0; stroke: #b0b0b0; stroke-width: 0.8"/>
     </g>
     <g id="line2d_24">
      <g>
       <use xlink:href="#m312aa81436" x="23.878125" y="130.465306" style="stroke: #000000; stroke-width: 0.8"/>
      </g>
     </g>
     <g id="text_13">
      <!-- 15% -->
      <g transform="translate(14.798438 141.578587)rotate(-90)scale(0.1 -0.1)">
       <use xlink:href="#DejaVuSans-31"/>
       <use xlink:href="#DejaVuSans-35" x="63.623047"/>
       <use xlink:href="#DejaVuSans-25" x="127.246094"/>
      </g>
     </g>
    </g>
    <g id="ytick_5">
     <g id="line2d_25">
      <path d="M 23.878125 87.664853 
L 470.278125 87.664853 
" clip-path="url(#p3845f2d942)" style="fill: none; stroke-dasharray: 0.8,1.32; stroke-dashoffset: 0; stroke: #b0b0b0; stroke-width: 0.8"/>
     </g>
     <g id="line2d_26">
      <g>
       <use xlink:href="#m312aa81436" x="23.878125" y="87.664853" style="stroke: #000000; stroke-width: 0.8"/>
      </g>
     </g>
     <g id="text_14">
      <!-- 20% -->
      <g transform="translate(14.798438 98.778134)rotate(-90)scale(0.1 -0.1)">
       <use xlink:href="#DejaVuSans-32"/>
       <use xlink:href="#DejaVuSans-30" x="63.623047"/>
       <use xlink:href="#DejaVuSans-25" x="127.246094"/>
      </g>
     </g>
    </g>
    <g id="ytick_6">
     <g id="line2d_27">
      <path d="M 23.878125 44.864399 
L 470.278125 44.864399 
" clip-path="url(#p3845f2d942)" style="fill: none; stroke-dasharray: 0.8,1.32; stroke-dashoffset: 0; stroke: #b0b0b0; stroke-width: 0.8"/>
     </g>
     <g id="line2d_28">
      <g>
       <use xlink:href="#m312aa81436" x="23.878125" y="44.864399" style="stroke: #000000; stroke-width: 0.8"/>
      </g>
     </g>
     <g id="text_15">
      <!-- 25% -->
      <g transform="translate(14.798438 55.97768)rotate(-90)scale(0.1 -0.1)">
       <use xlink:href="#DejaVuSans-32"/>
       <use xlink:href="#DejaVuSans-35" x="63.623047"/>
       <use xlink:href="#DejaVuSans-25" x="127.246094"/>
      </g>
     </g>
    </g>
   </g>
   <g id="patch_7">
    <path d="M 284.896985 258.866667 
L 284.896985 224.626304 
L 299.96657 224.626304 
L 299.96657 224.626304 
L 315.036156 224.626304 
L 315.036156 19.184127 
L 330.105742 19.184127 
L 330.105742 139.025397 
L 345.175328 139.025397 
L 345.175328 156.145578 
L 360.244914 156.145578 
L 360.244914 36.304308 
L 375.314499 36.304308 
L 375.314499 207.506122 
L 390.384085 207.506122 
L 390.384085 241.746485 
L 405.453671 241.746485 
L 405.453671 258.866667 
L 420.523257 258.866667 
L 420.523257 224.626304 
L 435.592843 224.626304 
L 435.592843 258.866667 
" clip-path="url(#p3845f2d942)" style="fill: none; stroke: #ff0000; stroke-width: 2.3; stroke-linejoin: miter"/>
   </g>
   <g id="patch_8">
    <path d="M 224.519273 258.866667 
L 224.519273 207.506122 
L 247.066067 207.506122 
L 247.066067 121.905215 
L 269.612861 121.905215 
L 269.612861 139.025397 
L 292.159656 139.025397 
L 292.159656 156.145578 
L 314.70645 156.145578 
L 314.70645 139.025397 
L 337.253244 139.025397 
L 337.253244 156.145578 
L 359.800039 156.145578 
L 359.800039 156.145578 
L 382.346833 156.145578 
L 382.346833 190.385941 
L 404.893627 190.385941 
L 404.893627 258.866667 
L 427.440422 258.866667 
L 427.440422 207.506122 
L 449.987216 207.506122 
L 449.987216 258.866667 
" clip-path="url(#p3845f2d942)" style="fill: none; stroke: #008000; stroke-width: 2.3; stroke-linejoin: miter"/>
   </g>
   <g id="patch_9">
    <path d="M 161.180702 258.866667 
L 161.180702 241.746485 
L 186.51998 241.746485 
L 186.51998 241.746485 
L 211.859257 241.746485 
L 211.859257 156.145578 
L 237.198535 156.145578 
L 237.198535 53.42449 
L 262.537813 53.42449 
L 262.537813 139.025397 
L 287.877091 139.025397 
L 287.877091 121.905215 
L 313.216369 121.905215 
L 313.216369 139.025397 
L 338.555647 139.025397 
L 338.555647 173.26576 
L 363.894925 173.26576 
L 363.894925 258.866667 
L 389.234203 258.866667 
L 389.234203 207.506122 
L 414.573481 207.506122 
L 414.573481 258.866667 
" clip-path="url(#p3845f2d942)" style="fill: none; stroke: #0000ff; stroke-width: 2.3; stroke-linejoin: miter"/>
   </g>
   <g id="patch_10">
    <path d="M 44.169034 258.866667 
L 44.169034 241.746485 
L 78.457587 241.746485 
L 78.457587 241.746485 
L 112.74614 241.746485 
L 112.74614 173.26576 
L 147.034692 173.26576 
L 147.034692 139.025397 
L 181.323245 139.025397 
L 181.323245 70.544671 
L 215.611798 70.544671 
L 215.611798 139.025397 
L 249.90035 139.025397 
L 249.90035 139.025397 
L 284.188903 139.025397 
L 284.188903 156.145578 
L 318.477456 156.145578 
L 318.477456 207.506122 
L 352.766009 207.506122 
L 352.766009 224.626304 
L 387.054561 224.626304 
L 387.054561 258.866667 
" clip-path="url(#p3845f2d942)" style="fill: none; stroke: #000000; stroke-width: 2.3; stroke-linejoin: miter"/>
   </g>
   <g id="patch_11">
    <path d="M 23.878125 258.866667 
L 23.878125 7.2 
" style="fill: none; stroke: #000000; stroke-width: 0.8; stroke-linejoin: miter; stroke-linecap: square"/>
   </g>
   <g id="patch_12">
    <path d="M 470.278125 258.866667 
L 470.278125 7.2 
" style="fill: none; stroke: #000000; stroke-width: 0.8; stroke-linejoin: miter; stroke-linecap: square"/>
   </g>
   <g id="patch_13">
    <path d="M 23.878125 258.866667 
L 470.278125 258.866667 
" style="fill: none; stroke: #000000; stroke-width: 0.8; stroke-linejoin: miter; stroke-linecap: square"/>
   </g>
   <g id="patch_14">
    <path d="M 23.878125 7.2 
L 470.278125 7.2 
" style="fill: none; stroke: #000000; stroke-width: 0.8; stroke-linejoin: miter; stroke-linecap: square"/>
   </g>
  </g>
  <g id="axes_2">
   <g id="patch_15">
    <path d="M 23.878125 550.8 
L 470.278125 550.8 
L 470.278125 299.133333 
L 23.878125 299.133333 
z
" style="fill: #ffffff"/>
   </g>
   <g id="patch_16">
    <path d="M 44.169034 550.8 
L 44.169034 502.863492 
L 61.908115 502.863492 
L 61.908115 502.863492 
L 79.647197 502.863492 
L 79.647197 502.863492 
L 97.386278 502.863492 
L 97.386278 406.990476 
L 115.125359 406.990476 
L 115.125359 454.926984 
L 132.86444 454.926984 
L 132.86444 406.990476 
L 150.603522 406.990476 
L 150.603522 383.022222 
L 168.342603 383.022222 
L 168.342603 311.11746 
L 186.081684 311.11746 
L 186.081684 454.926984 
L 203.820765 454.926984 
L 203.820765 383.022222 
L 221.559847 383.022222 
L 221.559847 550.8 
L 203.820765 550.8 
L 203.820765 550.8 
L 186.081684 550.8 
L 186.081684 550.8 
L 168.342603 550.8 
L 168.342603 550.8 
L 150.603522 550.8 
L 150.603522 550.8 
L 132.86444 550.8 
L 132.86444 550.8 
L 115.125359 550.8 
L 115.125359 550.8 
L 97.386278 550.8 
L 97.386278 550.8 
L 79.647197 550.8 
L 79.647197 550.8 
L 61.908115 550.8 
L 61.908115 550.8 
z
" clip-path="url(#pa323e73959)" style="fill: #ff0000; opacity: 0.2"/>
   </g>
   <g id="patch_17">
    <path d="M 50.660124 550.8 
L 50.660124 406.990476 
L 65.577733 406.990476 
L 65.577733 406.990476 
L 80.495341 406.990476 
L 80.495341 430.95873 
L 95.41295 430.95873 
L 95.41295 430.95873 
L 110.330558 430.95873 
L 110.330558 335.085714 
L 125.248166 335.085714 
L 125.248166 359.053968 
L 140.165775 359.053968 
L 140.165775 430.95873 
L 155.083383 430.95873 
L 155.083383 502.863492 
L 170.000991 502.863492 
L 170.000991 478.895238 
L 184.9186 478.895238 
L 184.9186 526.831746 
L 199.836208 526.831746 
L 199.836208 550.8 
L 184.9186 550.8 
L 184.9186 550.8 
L 170.000991 550.8 
L 170.000991 550.8 
L 155.083383 550.8 
L 155.083383 550.8 
L 140.165775 550.8 
L 140.165775 550.8 
L 125.248166 550.8 
L 125.248166 550.8 
L 110.330558 550.8 
L 110.330558 550.8 
L 95.41295 550.8 
L 95.41295 550.8 
L 80.495341 550.8 
L 80.495341 550.8 
L 65.577733 550.8 
L 65.577733 550.8 
z
" clip-path="url(#pa323e73959)" style="fill: #008000; opacity: 0.2"/>
   </g>
   <g id="patch_18">
    <path d="M 57.540474 550.8 
L 57.540474 478.895238 
L 78.928563 478.895238 
L 78.928563 478.895238 
L 100.316652 478.895238 
L 100.316652 406.990476 
L 121.70474 406.990476 
L 121.70474 335.085714 
L 143.092829 335.085714 
L 143.092829 359.053968 
L 164.480918 359.053968 
L 164.480918 359.053968 
L 185.869006 359.053968 
L 185.869006 430.95873 
L 207.257095 430.95873 
L 207.257095 478.895238 
L 228.645184 478.895238 
L 228.645184 502.863492 
L 250.033272 502.863492 
L 250.033272 478.895238 
L 271.421361 478.895238 
L 271.421361 550.8 
L 250.033272 550.8 
L 250.033272 550.8 
L 228.645184 550.8 
L 228.645184 550.8 
L 207.257095 550.8 
L 207.257095 550.8 
L 185.869006 550.8 
L 185.869006 550.8 
L 164.480918 550.8 
L 164.480918 550.8 
L 143.092829 550.8 
L 143.092829 550.8 
L 121.70474 550.8 
L 121.70474 550.8 
L 100.316652 550.8 
L 100.316652 550.8 
L 78.928563 550.8 
L 78.928563 550.8 
z
" clip-path="url(#pa323e73959)" style="fill: #0000ff; opacity: 0.2"/>
   </g>
   <g id="patch_19">
    <path d="M 75.262762 550.8 
L 75.262762 478.895238 
L 112.735207 478.895238 
L 112.735207 502.863492 
L 150.207652 502.863492 
L 150.207652 430.95873 
L 187.680098 430.95873 
L 187.680098 311.11746 
L 225.152543 311.11746 
L 225.152543 406.990476 
L 262.624989 406.990476 
L 262.624989 430.95873 
L 300.097434 430.95873 
L 300.097434 430.95873 
L 337.56988 430.95873 
L 337.56988 454.926984 
L 375.042325 454.926984 
L 375.042325 430.95873 
L 412.51477 430.95873 
L 412.51477 430.95873 
L 449.987216 430.95873 
L 449.987216 550.8 
L 412.51477 550.8 
L 412.51477 550.8 
L 375.042325 550.8 
L 375.042325 550.8 
L 337.56988 550.8 
L 337.56988 550.8 
L 300.097434 550.8 
L 300.097434 550.8 
L 262.624989 550.8 
L 262.624989 550.8 
L 225.152543 550.8 
L 225.152543 550.8 
L 187.680098 550.8 
L 187.680098 550.8 
L 150.207652 550.8 
L 150.207652 550.8 
L 112.735207 550.8 
L 112.735207 550.8 
z
" clip-path="url(#pa323e73959)" style="opacity: 0.2"/>
   </g>
   <g id="matplotlib.axis_3">
    <g id="xtick_9">
     <g id="line2d_29">
      <path d="M 29.083163 550.8 
L 29.083163 299.133333 
" clip-path="url(#pa323e73959)" style="fill: none; stroke-dasharray: 0.8,1.32; stroke-dashoffset: 0; stroke: #b0b0b0; stroke-width: 0.8"/>
     </g>
     <g id="line2d_30">
      <g>
       <use xlink:href="#mf4a4d62ffc" x="29.083163" y="550.8" style="stroke: #000000; stroke-width: 0.8"/>
      </g>
     </g>
     <g id="text_16">
      <!-- 0.25 -->
      <g transform="translate(17.950351 565.398438)scale(0.1 -0.1)">
       <use xlink:href="#DejaVuSans-30"/>
       <use xlink:href="#DejaVuSans-2e" x="63.623047"/>
       <use xlink:href="#DejaVuSans-32" x="95.410156"/>
       <use xlink:href="#DejaVuSans-35" x="159.033203"/>
      </g>
     </g>
    </g>
    <g id="xtick_10">
     <g id="line2d_31">
      <path d="M 87.745396 550.8 
L 87.745396 299.133333 
" clip-path="url(#pa323e73959)" style="fill: none; stroke-dasharray: 0.8,1.32; stroke-dashoffset: 0; stroke: #b0b0b0; stroke-width: 0.8"/>
     </g>
     <g id="line2d_32">
      <g>
       <use xlink:href="#mf4a4d62ffc" x="87.745396" y="550.8" style="stroke: #000000; stroke-width: 0.8"/>
      </g>
     </g>
     <g id="text_17">
      <!-- 0.30 -->
      <g transform="translate(76.612584 565.398438)scale(0.1 -0.1)">
       <use xlink:href="#DejaVuSans-30"/>
       <use xlink:href="#DejaVuSans-2e" x="63.623047"/>
       <use xlink:href="#DejaVuSans-33" x="95.410156"/>
       <use xlink:href="#DejaVuSans-30" x="159.033203"/>
      </g>
     </g>
    </g>
    <g id="xtick_11">
     <g id="line2d_33">
      <path d="M 146.407629 550.8 
L 146.407629 299.133333 
" clip-path="url(#pa323e73959)" style="fill: none; stroke-dasharray: 0.8,1.32; stroke-dashoffset: 0; stroke: #b0b0b0; stroke-width: 0.8"/>
     </g>
     <g id="line2d_34">
      <g>
       <use xlink:href="#mf4a4d62ffc" x="146.407629" y="550.8" style="stroke: #000000; stroke-width: 0.8"/>
      </g>
     </g>
     <g id="text_18">
      <!-- 0.35 -->
      <g transform="translate(135.274816 565.398438)scale(0.1 -0.1)">
       <use xlink:href="#DejaVuSans-30"/>
       <use xlink:href="#DejaVuSans-2e" x="63.623047"/>
       <use xlink:href="#DejaVuSans-33" x="95.410156"/>
       <use xlink:href="#DejaVuSans-35" x="159.033203"/>
      </g>
     </g>
    </g>
    <g id="xtick_12">
     <g id="line2d_35">
      <path d="M 205.069862 550.8 
L 205.069862 299.133333 
" clip-path="url(#pa323e73959)" style="fill: none; stroke-dasharray: 0.8,1.32; stroke-dashoffset: 0; stroke: #b0b0b0; stroke-width: 0.8"/>
     </g>
     <g id="line2d_36">
      <g>
       <use xlink:href="#mf4a4d62ffc" x="205.069862" y="550.8" style="stroke: #000000; stroke-width: 0.8"/>
      </g>
     </g>
     <g id="text_19">
      <!-- 0.40 -->
      <g transform="translate(193.937049 565.398438)scale(0.1 -0.1)">
       <use xlink:href="#DejaVuSans-30"/>
       <use xlink:href="#DejaVuSans-2e" x="63.623047"/>
       <use xlink:href="#DejaVuSans-34" x="95.410156"/>
       <use xlink:href="#DejaVuSans-30" x="159.033203"/>
      </g>
     </g>
    </g>
    <g id="xtick_13">
     <g id="line2d_37">
      <path d="M 263.732095 550.8 
L 263.732095 299.133333 
" clip-path="url(#pa323e73959)" style="fill: none; stroke-dasharray: 0.8,1.32; stroke-dashoffset: 0; stroke: #b0b0b0; stroke-width: 0.8"/>
     </g>
     <g id="line2d_38">
      <g>
       <use xlink:href="#mf4a4d62ffc" x="263.732095" y="550.8" style="stroke: #000000; stroke-width: 0.8"/>
      </g>
     </g>
     <g id="text_20">
      <!-- 0.45 -->
      <g transform="translate(252.599282 565.398438)scale(0.1 -0.1)">
       <use xlink:href="#DejaVuSans-30"/>
       <use xlink:href="#DejaVuSans-2e" x="63.623047"/>
       <use xlink:href="#DejaVuSans-34" x="95.410156"/>
       <use xlink:href="#DejaVuSans-35" x="159.033203"/>
      </g>
     </g>
    </g>
    <g id="xtick_14">
     <g id="line2d_39">
      <path d="M 322.394327 550.8 
L 322.394327 299.133333 
" clip-path="url(#pa323e73959)" style="fill: none; stroke-dasharray: 0.8,1.32; stroke-dashoffset: 0; stroke: #b0b0b0; stroke-width: 0.8"/>
     </g>
     <g id="line2d_40">
      <g>
       <use xlink:href="#mf4a4d62ffc" x="322.394327" y="550.8" style="stroke: #000000; stroke-width: 0.8"/>
      </g>
     </g>
     <g id="text_21">
      <!-- 0.50 -->
      <g transform="translate(311.261515 565.398438)scale(0.1 -0.1)">
       <use xlink:href="#DejaVuSans-30"/>
       <use xlink:href="#DejaVuSans-2e" x="63.623047"/>
       <use xlink:href="#DejaVuSans-35" x="95.410156"/>
       <use xlink:href="#DejaVuSans-30" x="159.033203"/>
      </g>
     </g>
    </g>
    <g id="xtick_15">
     <g id="line2d_41">
      <path d="M 381.05656 550.8 
L 381.05656 299.133333 
" clip-path="url(#pa323e73959)" style="fill: none; stroke-dasharray: 0.8,1.32; stroke-dashoffset: 0; stroke: #b0b0b0; stroke-width: 0.8"/>
     </g>
     <g id="line2d_42">
      <g>
       <use xlink:href="#mf4a4d62ffc" x="381.05656" y="550.8" style="stroke: #000000; stroke-width: 0.8"/>
      </g>
     </g>
     <g id="text_22">
      <!-- 0.55 -->
      <g transform="translate(369.923748 565.398438)scale(0.1 -0.1)">
       <use xlink:href="#DejaVuSans-30"/>
       <use xlink:href="#DejaVuSans-2e" x="63.623047"/>
       <use xlink:href="#DejaVuSans-35" x="95.410156"/>
       <use xlink:href="#DejaVuSans-35" x="159.033203"/>
      </g>
     </g>
    </g>
    <g id="xtick_16">
     <g id="line2d_43">
      <path d="M 439.718793 550.8 
L 439.718793 299.133333 
" clip-path="url(#pa323e73959)" style="fill: none; stroke-dasharray: 0.8,1.32; stroke-dashoffset: 0; stroke: #b0b0b0; stroke-width: 0.8"/>
     </g>
     <g id="line2d_44">
      <g>
       <use xlink:href="#mf4a4d62ffc" x="439.718793" y="550.8" style="stroke: #000000; stroke-width: 0.8"/>
      </g>
     </g>
     <g id="text_23">
      <!-- 0.60 -->
      <g transform="translate(428.585981 565.398438)scale(0.1 -0.1)">
       <defs>
        <path id="DejaVuSans-36" d="M 2113 2584 
Q 1688 2584 1439 2293 
Q 1191 2003 1191 1497 
Q 1191 994 1439 701 
Q 1688 409 2113 409 
Q 2538 409 2786 701 
Q 3034 994 3034 1497 
Q 3034 2003 2786 2293 
Q 2538 2584 2113 2584 
z
M 3366 4563 
L 3366 3988 
Q 3128 4100 2886 4159 
Q 2644 4219 2406 4219 
Q 1781 4219 1451 3797 
Q 1122 3375 1075 2522 
Q 1259 2794 1537 2939 
Q 1816 3084 2150 3084 
Q 2853 3084 3261 2657 
Q 3669 2231 3669 1497 
Q 3669 778 3244 343 
Q 2819 -91 2113 -91 
Q 1303 -91 875 529 
Q 447 1150 447 2328 
Q 447 3434 972 4092 
Q 1497 4750 2381 4750 
Q 2619 4750 2861 4703 
Q 3103 4656 3366 4563 
z
" transform="scale(0.015625)"/>
       </defs>
       <use xlink:href="#DejaVuSans-30"/>
       <use xlink:href="#DejaVuSans-2e" x="63.623047"/>
       <use xlink:href="#DejaVuSans-36" x="95.410156"/>
       <use xlink:href="#DejaVuSans-30" x="159.033203"/>
      </g>
     </g>
    </g>
    <g id="text_24">
     <!-- Distanza $\chi^2$ -->
     <g transform="translate(212.398125 582.398125)scale(0.12 -0.12)">
      <defs>
       <path id="DejaVuSans-44" d="M 1259 4147 
L 1259 519 
L 2022 519 
Q 2988 519 3436 956 
Q 3884 1394 3884 2338 
Q 3884 3275 3436 3711 
Q 2988 4147 2022 4147 
L 1259 4147 
z
M 628 4666 
L 1925 4666 
Q 3281 4666 3915 4102 
Q 4550 3538 4550 2338 
Q 4550 1131 3912 565 
Q 3275 0 1925 0 
L 628 0 
L 628 4666 
z
" transform="scale(0.015625)"/>
       <path id="DejaVuSans-73" d="M 2834 3397 
L 2834 2853 
Q 2591 2978 2328 3040 
Q 2066 3103 1784 3103 
Q 1356 3103 1142 2972 
Q 928 2841 928 2578 
Q 928 2378 1081 2264 
Q 1234 2150 1697 2047 
L 1894 2003 
Q 2506 1872 2764 1633 
Q 3022 1394 3022 966 
Q 3022 478 2636 193 
Q 2250 -91 1575 -91 
Q 1294 -91 989 -36 
Q 684 19 347 128 
L 347 722 
Q 666 556 975 473 
Q 1284 391 1588 391 
Q 1994 391 2212 530 
Q 2431 669 2431 922 
Q 2431 1156 2273 1281 
Q 2116 1406 1581 1522 
L 1381 1569 
Q 847 1681 609 1914 
Q 372 2147 372 2553 
Q 372 3047 722 3315 
Q 1072 3584 1716 3584 
Q 2034 3584 2315 3537 
Q 2597 3491 2834 3397 
z
" transform="scale(0.015625)"/>
       <path id="DejaVuSans-74" d="M 1172 4494 
L 1172 3500 
L 2356 3500 
L 2356 3053 
L 1172 3053 
L 1172 1153 
Q 1172 725 1289 603 
Q 1406 481 1766 481 
L 2356 481 
L 2356 0 
L 1766 0 
Q 1100 0 847 248 
Q 594 497 594 1153 
L 594 3053 
L 172 3053 
L 172 3500 
L 594 3500 
L 594 4494 
L 1172 4494 
z
" transform="scale(0.015625)"/>
       <path id="DejaVuSans-Oblique-3c7" d="M 1922 -781 
L 1691 416 
L 394 -1334 
L -284 -1334 
L 1553 1141 
L 1269 2613 
Q 1194 3006 713 3006 
L 559 3006 
L 653 3500 
L 872 3494 
Q 1675 3472 1775 2950 
L 2006 1753 
L 3303 3503 
L 3981 3503 
L 2144 1028 
L 2428 -444 
Q 2503 -838 2984 -838 
L 3138 -838 
L 3044 -1331 
L 2825 -1325 
Q 2022 -1303 1922 -781 
z
" transform="scale(0.015625)"/>
      </defs>
      <use xlink:href="#DejaVuSans-44" transform="translate(0 0.765625)"/>
      <use xlink:href="#DejaVuSans-69" transform="translate(77.001953 0.765625)"/>
      <use xlink:href="#DejaVuSans-73" transform="translate(104.785156 0.765625)"/>
      <use xlink:href="#DejaVuSans-74" transform="translate(156.884766 0.765625)"/>
      <use xlink:href="#DejaVuSans-61" transform="translate(196.09375 0.765625)"/>
      <use xlink:href="#DejaVuSans-6e" transform="translate(257.373047 0.765625)"/>
      <use xlink:href="#DejaVuSans-7a" transform="translate(320.751953 0.765625)"/>
      <use xlink:href="#DejaVuSans-61" transform="translate(373.242188 0.765625)"/>
      <use xlink:href="#DejaVuSans-20" transform="translate(434.521484 0.765625)"/>
      <use xlink:href="#DejaVuSans-Oblique-3c7" transform="translate(466.308594 0.765625)"/>
      <use xlink:href="#DejaVuSans-32" transform="translate(529.96099 39.046875)scale(0.7)"/>
     </g>
    </g>
   </g>
   <g id="matplotlib.axis_4">
    <g id="ytick_7">
     <g id="line2d_45">
      <path d="M 23.878125 550.8 
L 470.278125 550.8 
" clip-path="url(#pa323e73959)" style="fill: none; stroke-dasharray: 0.8,1.32; stroke-dashoffset: 0; stroke: #b0b0b0; stroke-width: 0.8"/>
     </g>
     <g id="line2d_46">
      <g>
       <use xlink:href="#m312aa81436" x="23.878125" y="550.8" style="stroke: #000000; stroke-width: 0.8"/>
      </g>
     </g>
     <g id="text_25">
      <!-- 0% -->
      <g transform="translate(14.798438 558.732031)rotate(-90)scale(0.1 -0.1)">
       <use xlink:href="#DejaVuSans-30"/>
       <use xlink:href="#DejaVuSans-25" x="63.623047"/>
      </g>
     </g>
    </g>
    <g id="ytick_8">
     <g id="line2d_47">
      <path d="M 23.878125 490.879365 
L 470.278125 490.879365 
" clip-path="url(#pa323e73959)" style="fill: none; stroke-dasharray: 0.8,1.32; stroke-dashoffset: 0; stroke: #b0b0b0; stroke-width: 0.8"/>
     </g>
     <g id="line2d_48">
      <g>
       <use xlink:href="#m312aa81436" x="23.878125" y="490.879365" style="stroke: #000000; stroke-width: 0.8"/>
      </g>
     </g>
     <g id="text_26">
      <!-- 5% -->
      <g transform="translate(14.798438 498.811396)rotate(-90)scale(0.1 -0.1)">
       <use xlink:href="#DejaVuSans-35"/>
       <use xlink:href="#DejaVuSans-25" x="63.623047"/>
      </g>
     </g>
    </g>
    <g id="ytick_9">
     <g id="line2d_49">
      <path d="M 23.878125 430.95873 
L 470.278125 430.95873 
" clip-path="url(#pa323e73959)" style="fill: none; stroke-dasharray: 0.8,1.32; stroke-dashoffset: 0; stroke: #b0b0b0; stroke-width: 0.8"/>
     </g>
     <g id="line2d_50">
      <g>
       <use xlink:href="#m312aa81436" x="23.878125" y="430.95873" style="stroke: #000000; stroke-width: 0.8"/>
      </g>
     </g>
     <g id="text_27">
      <!-- 10% -->
      <g transform="translate(14.798438 442.072011)rotate(-90)scale(0.1 -0.1)">
       <use xlink:href="#DejaVuSans-31"/>
       <use xlink:href="#DejaVuSans-30" x="63.623047"/>
       <use xlink:href="#DejaVuSans-25" x="127.246094"/>
      </g>
     </g>
    </g>
    <g id="ytick_10">
     <g id="line2d_51">
      <path d="M 23.878125 371.038095 
L 470.278125 371.038095 
" clip-path="url(#pa323e73959)" style="fill: none; stroke-dasharray: 0.8,1.32; stroke-dashoffset: 0; stroke: #b0b0b0; stroke-width: 0.8"/>
     </g>
     <g id="line2d_52">
      <g>
       <use xlink:href="#m312aa81436" x="23.878125" y="371.038095" style="stroke: #000000; stroke-width: 0.8"/>
      </g>
     </g>
     <g id="text_28">
      <!-- 15% -->
      <g transform="translate(14.798438 382.151376)rotate(-90)scale(0.1 -0.1)">
       <use xlink:href="#DejaVuSans-31"/>
       <use xlink:href="#DejaVuSans-35" x="63.623047"/>
       <use xlink:href="#DejaVuSans-25" x="127.246094"/>
      </g>
     </g>
    </g>
    <g id="ytick_11">
     <g id="line2d_53">
      <path d="M 23.878125 311.11746 
L 470.278125 311.11746 
" clip-path="url(#pa323e73959)" style="fill: none; stroke-dasharray: 0.8,1.32; stroke-dashoffset: 0; stroke: #b0b0b0; stroke-width: 0.8"/>
     </g>
     <g id="line2d_54">
      <g>
       <use xlink:href="#m312aa81436" x="23.878125" y="311.11746" style="stroke: #000000; stroke-width: 0.8"/>
      </g>
     </g>
     <g id="text_29">
      <!-- 20% -->
      <g transform="translate(14.798438 322.230742)rotate(-90)scale(0.1 -0.1)">
       <use xlink:href="#DejaVuSans-32"/>
       <use xlink:href="#DejaVuSans-30" x="63.623047"/>
       <use xlink:href="#DejaVuSans-25" x="127.246094"/>
      </g>
     </g>
    </g>
   </g>
   <g id="patch_20">
    <path d="M 44.169034 550.8 
L 44.169034 502.863492 
L 61.908115 502.863492 
L 61.908115 502.863492 
L 79.647197 502.863492 
L 79.647197 502.863492 
L 97.386278 502.863492 
L 97.386278 406.990476 
L 115.125359 406.990476 
L 115.125359 454.926984 
L 132.86444 454.926984 
L 132.86444 406.990476 
L 150.603522 406.990476 
L 150.603522 383.022222 
L 168.342603 383.022222 
L 168.342603 311.11746 
L 186.081684 311.11746 
L 186.081684 454.926984 
L 203.820765 454.926984 
L 203.820765 383.022222 
L 221.559847 383.022222 
L 221.559847 550.8 
" clip-path="url(#pa323e73959)" style="fill: none; stroke: #ff0000; stroke-width: 2.3; stroke-linejoin: miter"/>
   </g>
   <g id="patch_21">
    <path d="M 50.660124 550.8 
L 50.660124 406.990476 
L 65.577733 406.990476 
L 65.577733 406.990476 
L 80.495341 406.990476 
L 80.495341 430.95873 
L 95.41295 430.95873 
L 95.41295 430.95873 
L 110.330558 430.95873 
L 110.330558 335.085714 
L 125.248166 335.085714 
L 125.248166 359.053968 
L 140.165775 359.053968 
L 140.165775 430.95873 
L 155.083383 430.95873 
L 155.083383 502.863492 
L 170.000991 502.863492 
L 170.000991 478.895238 
L 184.9186 478.895238 
L 184.9186 526.831746 
L 199.836208 526.831746 
L 199.836208 550.8 
" clip-path="url(#pa323e73959)" style="fill: none; stroke: #008000; stroke-width: 2.3; stroke-linejoin: miter"/>
   </g>
   <g id="patch_22">
    <path d="M 57.540474 550.8 
L 57.540474 478.895238 
L 78.928563 478.895238 
L 78.928563 478.895238 
L 100.316652 478.895238 
L 100.316652 406.990476 
L 121.70474 406.990476 
L 121.70474 335.085714 
L 143.092829 335.085714 
L 143.092829 359.053968 
L 164.480918 359.053968 
L 164.480918 359.053968 
L 185.869006 359.053968 
L 185.869006 430.95873 
L 207.257095 430.95873 
L 207.257095 478.895238 
L 228.645184 478.895238 
L 228.645184 502.863492 
L 250.033272 502.863492 
L 250.033272 478.895238 
L 271.421361 478.895238 
L 271.421361 550.8 
" clip-path="url(#pa323e73959)" style="fill: none; stroke: #0000ff; stroke-width: 2.3; stroke-linejoin: miter"/>
   </g>
   <g id="patch_23">
    <path d="M 75.262762 550.8 
L 75.262762 478.895238 
L 112.735207 478.895238 
L 112.735207 502.863492 
L 150.207652 502.863492 
L 150.207652 430.95873 
L 187.680098 430.95873 
L 187.680098 311.11746 
L 225.152543 311.11746 
L 225.152543 406.990476 
L 262.624989 406.990476 
L 262.624989 430.95873 
L 300.097434 430.95873 
L 300.097434 430.95873 
L 337.56988 430.95873 
L 337.56988 454.926984 
L 375.042325 454.926984 
L 375.042325 430.95873 
L 412.51477 430.95873 
L 412.51477 430.95873 
L 449.987216 430.95873 
L 449.987216 550.8 
" clip-path="url(#pa323e73959)" style="fill: none; stroke: #000000; stroke-width: 2.3; stroke-linejoin: miter"/>
   </g>
   <g id="patch_24">
    <path d="M 23.878125 550.8 
L 23.878125 299.133333 
" style="fill: none; stroke: #000000; stroke-width: 0.8; stroke-linejoin: miter; stroke-linecap: square"/>
   </g>
   <g id="patch_25">
    <path d="M 470.278125 550.8 
L 470.278125 299.133333 
" style="fill: none; stroke: #000000; stroke-width: 0.8; stroke-linejoin: miter; stroke-linecap: square"/>
   </g>
   <g id="patch_26">
    <path d="M 23.878125 550.8 
L 470.278125 550.8 
" style="fill: none; stroke: #000000; stroke-width: 0.8; stroke-linejoin: miter; stroke-linecap: square"/>
   </g>
   <g id="patch_27">
    <path d="M 23.878125 299.133333 
L 470.278125 299.133333 
" style="fill: none; stroke: #000000; stroke-width: 0.8; stroke-linejoin: miter; stroke-linecap: square"/>
   </g>
   <g id="legend_1">
    <g id="patch_28">
     <path d="M 42.939063 103.690625 
L 128.478125 103.690625 
Q 130.478125 103.690625 130.478125 101.690625 
L 130.478125 29.3 
Q 130.478125 27.3 128.478125 27.3 
L 42.939063 27.3 
Q 40.939063 27.3 40.939063 29.3 
L 40.939063 101.690625 
Q 40.939063 103.690625 42.939063 103.690625 
z
" style="fill: #ffffff; stroke: #cccccc; stroke-linejoin: miter"/>
    </g>
    <g id="text_30">
     <!-- $T=$0.11 -->
     <g transform="translate(65.358594 38.898437)scale(0.1 -0.1)">
      <defs>
       <path id="DejaVuSans-Oblique-54" d="M 378 4666 
L 4325 4666 
L 4225 4134 
L 2559 4134 
L 1759 0 
L 1125 0 
L 1925 4134 
L 275 4134 
L 378 4666 
z
" transform="scale(0.015625)"/>
       <path id="DejaVuSans-3d" d="M 678 2906 
L 4684 2906 
L 4684 2381 
L 678 2381 
L 678 2906 
z
M 678 1631 
L 4684 1631 
L 4684 1100 
L 678 1100 
L 678 1631 
z
" transform="scale(0.015625)"/>
      </defs>
      <use xlink:href="#DejaVuSans-Oblique-54" transform="translate(0 0.78125)"/>
      <use xlink:href="#DejaVuSans-3d" transform="translate(80.566406 0.78125)"/>
      <use xlink:href="#DejaVuSans-30" transform="translate(183.837891 0.78125)"/>
      <use xlink:href="#DejaVuSans-2e" transform="translate(247.460938 0.78125)"/>
      <use xlink:href="#DejaVuSans-31" transform="translate(279.248047 0.78125)"/>
      <use xlink:href="#DejaVuSans-31" transform="translate(342.871094 0.78125)"/>
     </g>
    </g>
    <g id="patch_29">
     <path d="M 44.939063 53.576562 
L 64.939063 53.576562 
L 64.939063 46.576562 
L 44.939063 46.576562 
L 44.939063 53.576562 
z
" style="fill: none; stroke: #ff0000; stroke-width: 2.3; stroke-linejoin: miter"/>
    </g>
    <g id="text_31">
     <!-- +20 links -->
     <g transform="translate(72.939063 53.576562)scale(0.1 -0.1)">
      <defs>
       <path id="DejaVuSans-2b" d="M 2944 4013 
L 2944 2272 
L 4684 2272 
L 4684 1741 
L 2944 1741 
L 2944 0 
L 2419 0 
L 2419 1741 
L 678 1741 
L 678 2272 
L 2419 2272 
L 2419 4013 
L 2944 4013 
z
" transform="scale(0.015625)"/>
       <path id="DejaVuSans-6b" d="M 581 4863 
L 1159 4863 
L 1159 1991 
L 2875 3500 
L 3609 3500 
L 1753 1863 
L 3688 0 
L 2938 0 
L 1159 1709 
L 1159 0 
L 581 0 
L 581 4863 
z
" transform="scale(0.015625)"/>
      </defs>
      <use xlink:href="#DejaVuSans-2b"/>
      <use xlink:href="#DejaVuSans-32" x="83.789062"/>
      <use xlink:href="#DejaVuSans-30" x="147.412109"/>
      <use xlink:href="#DejaVuSans-20" x="211.035156"/>
      <use xlink:href="#DejaVuSans-6c" x="242.822266"/>
      <use xlink:href="#DejaVuSans-69" x="270.605469"/>
      <use xlink:href="#DejaVuSans-6e" x="298.388672"/>
      <use xlink:href="#DejaVuSans-6b" x="361.767578"/>
      <use xlink:href="#DejaVuSans-73" x="419.677734"/>
     </g>
    </g>
    <g id="patch_30">
     <path d="M 44.939063 68.254687 
L 64.939063 68.254687 
L 64.939063 61.254687 
L 44.939063 61.254687 
L 44.939063 68.254687 
z
" style="fill: none; stroke: #008000; stroke-width: 2.3; stroke-linejoin: miter"/>
    </g>
    <g id="text_32">
     <!-- +50 links -->
     <g transform="translate(72.939063 68.254687)scale(0.1 -0.1)">
      <use xlink:href="#DejaVuSans-2b"/>
      <use xlink:href="#DejaVuSans-35" x="83.789062"/>
      <use xlink:href="#DejaVuSans-30" x="147.412109"/>
      <use xlink:href="#DejaVuSans-20" x="211.035156"/>
      <use xlink:href="#DejaVuSans-6c" x="242.822266"/>
      <use xlink:href="#DejaVuSans-69" x="270.605469"/>
      <use xlink:href="#DejaVuSans-6e" x="298.388672"/>
      <use xlink:href="#DejaVuSans-6b" x="361.767578"/>
      <use xlink:href="#DejaVuSans-73" x="419.677734"/>
     </g>
    </g>
    <g id="patch_31">
     <path d="M 44.939063 82.932812 
L 64.939063 82.932812 
L 64.939063 75.932812 
L 44.939063 75.932812 
L 44.939063 82.932812 
z
" style="fill: none; stroke: #0000ff; stroke-width: 2.3; stroke-linejoin: miter"/>
    </g>
    <g id="text_33">
     <!-- +100 links -->
     <g transform="translate(72.939063 82.932812)scale(0.1 -0.1)">
      <use xlink:href="#DejaVuSans-2b"/>
      <use xlink:href="#DejaVuSans-31" x="83.789062"/>
      <use xlink:href="#DejaVuSans-30" x="147.412109"/>
      <use xlink:href="#DejaVuSans-30" x="211.035156"/>
      <use xlink:href="#DejaVuSans-20" x="274.658203"/>
      <use xlink:href="#DejaVuSans-6c" x="306.445312"/>
      <use xlink:href="#DejaVuSans-69" x="334.228516"/>
      <use xlink:href="#DejaVuSans-6e" x="362.011719"/>
      <use xlink:href="#DejaVuSans-6b" x="425.390625"/>
      <use xlink:href="#DejaVuSans-73" x="483.300781"/>
     </g>
    </g>
    <g id="patch_32">
     <path d="M 44.939063 97.610937 
L 64.939063 97.610937 
L 64.939063 90.610937 
L 44.939063 90.610937 
L 44.939063 97.610937 
z
" style="fill: none; stroke: #000000; stroke-width: 2.3; stroke-linejoin: miter"/>
    </g>
    <g id="text_34">
     <!-- +200 links -->
     <g transform="translate(72.939063 97.610937)scale(0.1 -0.1)">
      <use xlink:href="#DejaVuSans-2b"/>
      <use xlink:href="#DejaVuSans-32" x="83.789062"/>
      <use xlink:href="#DejaVuSans-30" x="147.412109"/>
      <use xlink:href="#DejaVuSans-30" x="211.035156"/>
      <use xlink:href="#DejaVuSans-20" x="274.658203"/>
      <use xlink:href="#DejaVuSans-6c" x="306.445312"/>
      <use xlink:href="#DejaVuSans-69" x="334.228516"/>
      <use xlink:href="#DejaVuSans-6e" x="362.011719"/>
      <use xlink:href="#DejaVuSans-6b" x="425.390625"/>
      <use xlink:href="#DejaVuSans-73" x="483.300781"/>
     </g>
    </g>
   </g>
  </g>
 </g>
 <defs>
  <clipPath id="p3845f2d942">
   <rect x="23.878125" y="7.2" width="446.4" height="251.666667"/>
  </clipPath>
  <clipPath id="pa323e73959">
   <rect x="23.878125" y="299.133333" width="446.4" height="251.666667"/>
  </clipPath>
 </defs>
</svg>
