<?xml version="1.0" encoding="utf-8" standalone="no"?>
<!DOCTYPE svg PUBLIC "-//W3C//DTD SVG 1.1//EN"
  "http://www.w3.org/Graphics/SVG/1.1/DTD/svg11.dtd">
<svg xmlns:xlink="http://www.w3.org/1999/xlink" width="393.378125pt" height="263.618125pt" viewBox="0 0 393.378125 263.618125" xmlns="http://www.w3.org/2000/svg" version="1.1">
 <metadata>
  <rdf:RDF xmlns:dc="http://purl.org/dc/elements/1.1/" xmlns:cc="http://creativecommons.org/ns#" xmlns:rdf="http://www.w3.org/1999/02/22-rdf-syntax-ns#">
   <cc:Work>
    <dc:type rdf:resource="http://purl.org/dc/dcmitype/StillImage"/>
    <dc:date>2022-09-10T08:49:34.684599</dc:date>
    <dc:format>image/svg+xml</dc:format>
    <dc:creator>
     <cc:Agent>
      <dc:title>Matplotlib v3.5.1, https://matplotlib.org/</dc:title>
     </cc:Agent>
    </dc:creator>
   </cc:Work>
  </rdf:RDF>
 </metadata>
 <defs>
  <style type="text/css">*{stroke-linejoin: round; stroke-linecap: butt}</style>
 </defs>
 <g id="figure_1">
  <g id="patch_1">
   <path d="M 0 263.618125 
L 393.378125 263.618125 
L 393.378125 0 
L 0 0 
L 0 263.618125 
z
" style="fill: none"/>
  </g>
  <g id="axes_1">
   <g id="patch_2">
    <path d="M 51.378125 224.64 
L 386.178125 224.64 
L 386.178125 7.2 
L 51.378125 7.2 
z
" style="fill: #ffffff"/>
   </g>
   <g id="patch_3">
    <path d="M 51.401268 66931.277304 
L 57.995908 66931.277304 
L 57.995908 28.243338 
L 51.401268 28.243338 
z
" clip-path="url(#pe05676a052)" style="fill: #0000ff; opacity: 0.2"/>
   </g>
   <g id="patch_4">
    <path d="M 57.995908 66931.277304 
L 64.590549 66931.277304 
L 64.590549 62.247164 
L 57.995908 62.247164 
z
" clip-path="url(#pe05676a052)" style="fill: #0000ff; opacity: 0.2"/>
   </g>
   <g id="patch_5">
    <path d="M 64.590549 66931.277304 
L 71.185189 66931.277304 
L 71.185189 82.053344 
L 64.590549 82.053344 
z
" clip-path="url(#pe05676a052)" style="fill: #0000ff; opacity: 0.2"/>
   </g>
   <g id="patch_6">
    <path d="M 71.185189 66931.277304 
L 77.779829 66931.277304 
L 77.779829 91.516196 
L 71.185189 91.516196 
z
" clip-path="url(#pe05676a052)" style="fill: #0000ff; opacity: 0.2"/>
   </g>
   <g id="patch_7">
    <path d="M 77.779829 66931.277304 
L 84.37447 66931.277304 
L 84.37447 91.104729 
L 77.779829 91.104729 
z
" clip-path="url(#pe05676a052)" style="fill: #0000ff; opacity: 0.2"/>
   </g>
   <g id="patch_8">
    <path d="M 84.37447 66931.277304 
L 90.96911 66931.277304 
L 90.96911 104.984754 
L 84.37447 104.984754 
z
" clip-path="url(#pe05676a052)" style="fill: #0000ff; opacity: 0.2"/>
   </g>
   <g id="patch_9">
    <path d="M 90.96911 66931.277304 
L 97.56375 66931.277304 
L 97.56375 114.222446 
L 90.96911 114.222446 
z
" clip-path="url(#pe05676a052)" style="fill: #0000ff; opacity: 0.2"/>
   </g>
   <g id="patch_10">
    <path d="M 97.56375 66931.277304 
L 104.158391 66931.277304 
L 104.158391 117.077991 
L 97.56375 117.077991 
z
" clip-path="url(#pe05676a052)" style="fill: #0000ff; opacity: 0.2"/>
   </g>
   <g id="patch_11">
    <path d="M 104.158391 66931.277304 
L 110.753031 66931.277304 
L 110.753031 138.202702 
L 104.158391 138.202702 
z
" clip-path="url(#pe05676a052)" style="fill: #0000ff; opacity: 0.2"/>
   </g>
   <g id="patch_12">
    <path d="M 110.753031 66931.277304 
L 117.347671 66931.277304 
L 117.347671 140.352423 
L 110.753031 140.352423 
z
" clip-path="url(#pe05676a052)" style="fill: #0000ff; opacity: 0.2"/>
   </g>
   <g id="patch_13">
    <path d="M 117.347671 66931.277304 
L 123.942312 66931.277304 
L 123.942312 132.570633 
L 117.347671 132.570633 
z
" clip-path="url(#pe05676a052)" style="fill: #0000ff; opacity: 0.2"/>
   </g>
   <g id="patch_14">
    <path d="M 123.942312 66931.277304 
L 130.536952 66931.277304 
L 130.536952 123.802082 
L 123.942312 123.802082 
z
" clip-path="url(#pe05676a052)" style="fill: #0000ff; opacity: 0.2"/>
   </g>
   <g id="patch_15">
    <path d="M 130.536952 66931.277304 
L 137.131592 66931.277304 
L 137.131592 138.202702 
L 130.536952 138.202702 
z
" clip-path="url(#pe05676a052)" style="fill: #0000ff; opacity: 0.2"/>
   </g>
   <g id="patch_16">
    <path d="M 137.131592 66931.277304 
L 143.726233 66931.277304 
L 143.726233 147.963074 
L 137.131592 147.963074 
z
" clip-path="url(#pe05676a052)" style="fill: #0000ff; opacity: 0.2"/>
   </g>
   <g id="patch_17">
    <path d="M 143.726233 66931.277304 
L 150.320873 66931.277304 
L 150.320873 162.781082 
L 143.726233 162.781082 
z
" clip-path="url(#pe05676a052)" style="fill: #0000ff; opacity: 0.2"/>
   </g>
   <g id="patch_18">
    <path d="M 150.320873 66931.277304 
L 156.915513 66931.277304 
L 156.915513 158.309486 
L 150.320873 158.309486 
z
" clip-path="url(#pe05676a052)" style="fill: #0000ff; opacity: 0.2"/>
   </g>
   <g id="patch_19">
    <path d="M 156.915513 66931.277304 
L 163.510154 66931.277304 
L 163.510154 182.887866 
L 156.915513 182.887866 
z
" clip-path="url(#pe05676a052)" style="fill: #0000ff; opacity: 0.2"/>
   </g>
   <g id="patch_20">
    <path d="M 163.510154 66931.277304 
L 170.104794 66931.277304 
L 170.104794 145.198321 
L 163.510154 145.198321 
z
" clip-path="url(#pe05676a052)" style="fill: #0000ff; opacity: 0.2"/>
   </g>
   <g id="patch_21">
    <path d="M 170.104794 66931.277304 
L 176.699434 66931.277304 
L 176.699434 151.019368 
L 170.104794 151.019368 
z
" clip-path="url(#pe05676a052)" style="fill: #0000ff; opacity: 0.2"/>
   </g>
   <g id="patch_22">
    <path d="M 176.699434 66931.277304 
L 183.294075 66931.277304 
L 183.294075 162.781082 
L 176.699434 162.781082 
z
" clip-path="url(#pe05676a052)" style="fill: #0000ff; opacity: 0.2"/>
   </g>
   <g id="patch_23">
    <path d="M 183.294075 66931.277304 
L 189.888715 66931.277304 
L 189.888715 158.309486 
L 183.294075 158.309486 
z
" clip-path="url(#pe05676a052)" style="fill: #0000ff; opacity: 0.2"/>
   </g>
   <g id="patch_24">
    <path d="M 189.888715 66931.277304 
L 196.483355 66931.277304 
L 196.483355 162.781082 
L 189.888715 162.781082 
z
" clip-path="url(#pe05676a052)" style="fill: #0000ff; opacity: 0.2"/>
   </g>
   <g id="patch_25">
    <path d="M 196.483355 66931.277304 
L 203.077995 66931.277304 
L 203.077995 151.019368 
L 196.483355 151.019368 
z
" clip-path="url(#pe05676a052)" style="fill: #0000ff; opacity: 0.2"/>
   </g>
   <g id="patch_26">
    <path d="M 203.077995 66931.277304 
L 209.672636 66931.277304 
L 209.672636 162.781082 
L 203.077995 162.781082 
z
" clip-path="url(#pe05676a052)" style="fill: #0000ff; opacity: 0.2"/>
   </g>
   <g id="patch_27">
    <path d="M 209.672636 66931.277304 
L 216.267276 66931.277304 
L 216.267276 154.436013 
L 209.672636 154.436013 
z
" clip-path="url(#pe05676a052)" style="fill: #0000ff; opacity: 0.2"/>
   </g>
   <g id="patch_28">
    <path d="M 216.267276 66931.277304 
L 222.861916 66931.277304 
L 222.861916 194.64958 
L 216.267276 194.64958 
z
" clip-path="url(#pe05676a052)" style="fill: #0000ff; opacity: 0.2"/>
   </g>
   <g id="patch_29">
    <path d="M 222.861916 66931.277304 
L 229.456557 66931.277304 
L 229.456557 154.436013 
L 222.861916 154.436013 
z
" clip-path="url(#pe05676a052)" style="fill: #0000ff; opacity: 0.2"/>
   </g>
   <g id="patch_30">
    <path d="M 229.456557 66931.277304 
L 236.051197 66931.277304 
L 236.051197 214.756364 
L 229.456557 214.756364 
z
" clip-path="url(#pe05676a052)" style="fill: #0000ff; opacity: 0.2"/>
   </g>
   <g id="patch_31">
    <path d="M 236.051197 66931.277304 
L 242.645837 66931.277304 
L 242.645837 194.64958 
L 236.051197 194.64958 
z
" clip-path="url(#pe05676a052)" style="fill: #0000ff; opacity: 0.2"/>
   </g>
   <g id="patch_32">
    <path d="M 242.645837 66931.277304 
L 249.240478 66931.277304 
L 249.240478 182.887866 
L 242.645837 182.887866 
z
" clip-path="url(#pe05676a052)" style="fill: #0000ff; opacity: 0.2"/>
   </g>
   <g id="patch_33">
    <path d="M 249.240478 66931.277304 
L 255.835118 66931.277304 
L 255.835118 174.542796 
L 249.240478 174.542796 
z
" clip-path="url(#pe05676a052)" style="fill: #0000ff; opacity: 0.2"/>
   </g>
   <g id="patch_34">
    <path d="M 255.835118 66931.277304 
L 262.429758 66931.277304 
L 262.429758 194.64958 
L 255.835118 194.64958 
z
" clip-path="url(#pe05676a052)" style="fill: #0000ff; opacity: 0.2"/>
   </g>
   <g id="patch_35">
    <path d="M 262.429758 66931.277304 
L 269.024399 66931.277304 
L 269.024399 194.64958 
L 262.429758 194.64958 
z
" clip-path="url(#pe05676a052)" style="fill: #0000ff; opacity: 0.2"/>
   </g>
   <g id="patch_36">
    <path d="M 269.024399 66931.277304 
L 275.619039 66931.277304 
L 275.619039 194.64958 
L 269.024399 194.64958 
z
" clip-path="url(#pe05676a052)" style="fill: #0000ff; opacity: 0.2"/>
   </g>
   <g id="patch_37">
    <path d="M 275.619039 66931.277304 
L 282.213679 66931.277304 
L 282.213679 168.069858 
L 275.619039 168.069858 
z
" clip-path="url(#pe05676a052)" style="fill: #0000ff; opacity: 0.2"/>
   </g>
   <g id="patch_38">
    <path d="M 282.213679 66931.277304 
L 288.80832 66931.277304 
L 288.80832 194.64958 
L 282.213679 194.64958 
z
" clip-path="url(#pe05676a052)" style="fill: #0000ff; opacity: 0.2"/>
   </g>
   <g id="patch_39">
    <path d="M 288.80832 66931.277304 
L 295.40296 66931.277304 
L 295.40296 214.756364 
L 288.80832 214.756364 
z
" clip-path="url(#pe05676a052)" style="fill: #0000ff; opacity: 0.2"/>
   </g>
   <g id="patch_40">
    <path d="M 295.40296 66931.277304 
L 301.9976 66931.277304 
L 301.9976 194.64958 
L 295.40296 194.64958 
z
" clip-path="url(#pe05676a052)" style="fill: #0000ff; opacity: 0.2"/>
   </g>
   <g id="patch_41">
    <path d="M 301.9976 66931.277304 
L 308.592241 66931.277304 
L 308.592241 194.64958 
L 301.9976 194.64958 
z
" clip-path="url(#pe05676a052)" style="fill: #0000ff; opacity: 0.2"/>
   </g>
   <g id="patch_42">
    <path d="M 308.592241 66931.277304 
L 315.186881 66931.277304 
L 315.186881 66931.277304 
L 308.592241 66931.277304 
z
" clip-path="url(#pe05676a052)" style="fill: #0000ff; opacity: 0.2"/>
   </g>
   <g id="patch_43">
    <path d="M 315.186881 66931.277304 
L 321.781521 66931.277304 
L 321.781521 214.756364 
L 315.186881 214.756364 
z
" clip-path="url(#pe05676a052)" style="fill: #0000ff; opacity: 0.2"/>
   </g>
   <g id="patch_44">
    <path d="M 321.781521 66931.277304 
L 328.376162 66931.277304 
L 328.376162 214.756364 
L 321.781521 214.756364 
z
" clip-path="url(#pe05676a052)" style="fill: #0000ff; opacity: 0.2"/>
   </g>
   <g id="patch_45">
    <path d="M 328.376162 66931.277304 
L 334.970802 66931.277304 
L 334.970802 194.64958 
L 328.376162 194.64958 
z
" clip-path="url(#pe05676a052)" style="fill: #0000ff; opacity: 0.2"/>
   </g>
   <g id="patch_46">
    <path d="M 334.970802 66931.277304 
L 341.565442 66931.277304 
L 341.565442 66931.277304 
L 334.970802 66931.277304 
z
" clip-path="url(#pe05676a052)" style="fill: #0000ff; opacity: 0.2"/>
   </g>
   <g id="patch_47">
    <path d="M 341.565442 66931.277304 
L 348.160083 66931.277304 
L 348.160083 214.756364 
L 341.565442 214.756364 
z
" clip-path="url(#pe05676a052)" style="fill: #0000ff; opacity: 0.2"/>
   </g>
   <g id="patch_48">
    <path d="M 348.160083 66931.277304 
L 354.754723 66931.277304 
L 354.754723 66931.277304 
L 348.160083 66931.277304 
z
" clip-path="url(#pe05676a052)" style="fill: #0000ff; opacity: 0.2"/>
   </g>
   <g id="patch_49">
    <path d="M 354.754723 66931.277304 
L 361.349363 66931.277304 
L 361.349363 182.887866 
L 354.754723 182.887866 
z
" clip-path="url(#pe05676a052)" style="fill: #0000ff; opacity: 0.2"/>
   </g>
   <g id="patch_50">
    <path d="M 361.349363 66931.277304 
L 367.944004 66931.277304 
L 367.944004 214.756364 
L 361.349363 214.756364 
z
" clip-path="url(#pe05676a052)" style="fill: #0000ff; opacity: 0.2"/>
   </g>
   <g id="patch_51">
    <path d="M 367.944004 66931.277304 
L 374.538644 66931.277304 
L 374.538644 174.542796 
L 367.944004 174.542796 
z
" clip-path="url(#pe05676a052)" style="fill: #0000ff; opacity: 0.2"/>
   </g>
   <g id="patch_52">
    <path d="M 374.538644 66931.277304 
L 381.133284 66931.277304 
L 381.133284 194.64958 
L 374.538644 194.64958 
z
" clip-path="url(#pe05676a052)" style="fill: #0000ff; opacity: 0.2"/>
   </g>
   <g id="patch_53">
    <path d="M 51.587675 66931.277304 
L 57.734415 66931.277304 
L 57.734415 17.083636 
L 51.587675 17.083636 
z
" clip-path="url(#pe05676a052)" style="fill: #ff0000; opacity: 0.2"/>
   </g>
   <g id="patch_54">
    <path d="M 57.734415 66931.277304 
L 63.881155 66931.277304 
L 63.881155 62.343234 
L 57.734415 62.343234 
z
" clip-path="url(#pe05676a052)" style="fill: #ff0000; opacity: 0.2"/>
   </g>
   <g id="patch_55">
    <path d="M 63.881155 66931.277304 
L 70.027895 66931.277304 
L 70.027895 86.158202 
L 63.881155 86.158202 
z
" clip-path="url(#pe05676a052)" style="fill: #ff0000; opacity: 0.2"/>
   </g>
   <g id="patch_56">
    <path d="M 70.027895 66931.277304 
L 76.174635 66931.277304 
L 76.174635 103.740963 
L 70.027895 103.740963 
z
" clip-path="url(#pe05676a052)" style="fill: #ff0000; opacity: 0.2"/>
   </g>
   <g id="patch_57">
    <path d="M 76.174635 66931.277304 
L 82.321375 66931.277304 
L 82.321375 109.029739 
L 76.174635 109.029739 
z
" clip-path="url(#pe05676a052)" style="fill: #ff0000; opacity: 0.2"/>
   </g>
   <g id="patch_58">
    <path d="M 82.321375 66931.277304 
L 88.468115 66931.277304 
L 88.468115 123.847747 
L 82.321375 123.847747 
z
" clip-path="url(#pe05676a052)" style="fill: #ff0000; opacity: 0.2"/>
   </g>
   <g id="patch_59">
    <path d="M 88.468115 66931.277304 
L 94.614855 66931.277304 
L 94.614855 155.716245 
L 88.468115 155.716245 
z
" clip-path="url(#pe05676a052)" style="fill: #ff0000; opacity: 0.2"/>
   </g>
   <g id="patch_60">
    <path d="M 94.614855 66931.277304 
L 100.761595 66931.277304 
L 100.761595 103.740963 
L 94.614855 103.740963 
z
" clip-path="url(#pe05676a052)" style="fill: #ff0000; opacity: 0.2"/>
   </g>
   <g id="patch_61">
    <path d="M 100.761595 66931.277304 
L 106.908334 66931.277304 
L 106.908334 66931.277304 
L 100.761595 66931.277304 
z
" clip-path="url(#pe05676a052)" style="fill: #ff0000; opacity: 0.2"/>
   </g>
   <g id="patch_62">
    <path d="M 106.908334 66931.277304 
L 113.055074 66931.277304 
L 113.055074 155.716245 
L 106.908334 155.716245 
z
" clip-path="url(#pe05676a052)" style="fill: #ff0000; opacity: 0.2"/>
   </g>
   <g id="patch_63">
    <path d="M 113.055074 66931.277304 
L 119.201814 66931.277304 
L 119.201814 135.609461 
L 113.055074 135.609461 
z
" clip-path="url(#pe05676a052)" style="fill: #ff0000; opacity: 0.2"/>
   </g>
   <g id="patch_64">
    <path d="M 119.201814 66931.277304 
L 125.348554 66931.277304 
L 125.348554 135.609461 
L 119.201814 135.609461 
z
" clip-path="url(#pe05676a052)" style="fill: #ff0000; opacity: 0.2"/>
   </g>
   <g id="patch_65">
    <path d="M 125.348554 66931.277304 
L 131.495294 66931.277304 
L 131.495294 66931.277304 
L 125.348554 66931.277304 
z
" clip-path="url(#pe05676a052)" style="fill: #ff0000; opacity: 0.2"/>
   </g>
   <g id="patch_66">
    <path d="M 131.495294 66931.277304 
L 137.642034 66931.277304 
L 137.642034 155.716245 
L 131.495294 155.716245 
z
" clip-path="url(#pe05676a052)" style="fill: #ff0000; opacity: 0.2"/>
   </g>
   <g id="patch_67">
    <path d="M 137.642034 66931.277304 
L 143.788774 66931.277304 
L 143.788774 155.716245 
L 137.642034 155.716245 
z
" clip-path="url(#pe05676a052)" style="fill: #ff0000; opacity: 0.2"/>
   </g>
   <g id="patch_68">
    <path d="M 143.788774 66931.277304 
L 149.935514 66931.277304 
L 149.935514 155.716245 
L 143.788774 155.716245 
z
" clip-path="url(#pe05676a052)" style="fill: #ff0000; opacity: 0.2"/>
   </g>
   <g id="patch_69">
    <path d="M 149.935514 66931.277304 
L 156.082254 66931.277304 
L 156.082254 66931.277304 
L 149.935514 66931.277304 
z
" clip-path="url(#pe05676a052)" style="fill: #ff0000; opacity: 0.2"/>
   </g>
   <g id="patch_70">
    <path d="M 156.082254 66931.277304 
L 162.228994 66931.277304 
L 162.228994 155.716245 
L 156.082254 155.716245 
z
" clip-path="url(#pe05676a052)" style="fill: #ff0000; opacity: 0.2"/>
   </g>
   <g id="patch_71">
    <path d="M 162.228994 66931.277304 
L 168.375734 66931.277304 
L 168.375734 155.716245 
L 162.228994 155.716245 
z
" clip-path="url(#pe05676a052)" style="fill: #ff0000; opacity: 0.2"/>
   </g>
   <g id="patch_72">
    <path d="M 168.375734 66931.277304 
L 174.522473 66931.277304 
L 174.522473 135.609461 
L 168.375734 135.609461 
z
" clip-path="url(#pe05676a052)" style="fill: #ff0000; opacity: 0.2"/>
   </g>
   <g id="patch_73">
    <path d="M 174.522473 66931.277304 
L 180.669213 66931.277304 
L 180.669213 155.716245 
L 174.522473 155.716245 
z
" clip-path="url(#pe05676a052)" style="fill: #ff0000; opacity: 0.2"/>
   </g>
   <g id="patch_74">
    <path d="M 180.669213 66931.277304 
L 186.815953 66931.277304 
L 186.815953 155.716245 
L 180.669213 155.716245 
z
" clip-path="url(#pe05676a052)" style="fill: #ff0000; opacity: 0.2"/>
   </g>
   <g id="patch_75">
    <path d="M 186.815953 66931.277304 
L 192.962693 66931.277304 
L 192.962693 155.716245 
L 186.815953 155.716245 
z
" clip-path="url(#pe05676a052)" style="fill: #ff0000; opacity: 0.2"/>
   </g>
   <g id="patch_76">
    <path d="M 192.962693 66931.277304 
L 199.109433 66931.277304 
L 199.109433 66931.277304 
L 192.962693 66931.277304 
z
" clip-path="url(#pe05676a052)" style="fill: #ff0000; opacity: 0.2"/>
   </g>
   <g id="patch_77">
    <path d="M 199.109433 66931.277304 
L 205.256173 66931.277304 
L 205.256173 66931.277304 
L 199.109433 66931.277304 
z
" clip-path="url(#pe05676a052)" style="fill: #ff0000; opacity: 0.2"/>
   </g>
   <g id="patch_78">
    <path d="M 205.256173 66931.277304 
L 211.402913 66931.277304 
L 211.402913 66931.277304 
L 205.256173 66931.277304 
z
" clip-path="url(#pe05676a052)" style="fill: #ff0000; opacity: 0.2"/>
   </g>
   <g id="patch_79">
    <path d="M 211.402913 66931.277304 
L 217.549653 66931.277304 
L 217.549653 155.716245 
L 211.402913 155.716245 
z
" clip-path="url(#pe05676a052)" style="fill: #ff0000; opacity: 0.2"/>
   </g>
   <g id="patch_80">
    <path d="M 217.549653 66931.277304 
L 223.696393 66931.277304 
L 223.696393 66931.277304 
L 217.549653 66931.277304 
z
" clip-path="url(#pe05676a052)" style="fill: #ff0000; opacity: 0.2"/>
   </g>
   <g id="patch_81">
    <path d="M 223.696393 66931.277304 
L 229.843133 66931.277304 
L 229.843133 66931.277304 
L 223.696393 66931.277304 
z
" clip-path="url(#pe05676a052)" style="fill: #ff0000; opacity: 0.2"/>
   </g>
   <g id="patch_82">
    <path d="M 229.843133 66931.277304 
L 235.989873 66931.277304 
L 235.989873 66931.277304 
L 229.843133 66931.277304 
z
" clip-path="url(#pe05676a052)" style="fill: #ff0000; opacity: 0.2"/>
   </g>
   <g id="patch_83">
    <path d="M 235.989873 66931.277304 
L 242.136612 66931.277304 
L 242.136612 66931.277304 
L 235.989873 66931.277304 
z
" clip-path="url(#pe05676a052)" style="fill: #ff0000; opacity: 0.2"/>
   </g>
   <g id="patch_84">
    <path d="M 242.136612 66931.277304 
L 248.283352 66931.277304 
L 248.283352 66931.277304 
L 242.136612 66931.277304 
z
" clip-path="url(#pe05676a052)" style="fill: #ff0000; opacity: 0.2"/>
   </g>
   <g id="patch_85">
    <path d="M 248.283352 66931.277304 
L 254.430092 66931.277304 
L 254.430092 66931.277304 
L 248.283352 66931.277304 
z
" clip-path="url(#pe05676a052)" style="fill: #ff0000; opacity: 0.2"/>
   </g>
   <g id="patch_86">
    <path d="M 254.430092 66931.277304 
L 260.576832 66931.277304 
L 260.576832 66931.277304 
L 254.430092 66931.277304 
z
" clip-path="url(#pe05676a052)" style="fill: #ff0000; opacity: 0.2"/>
   </g>
   <g id="patch_87">
    <path d="M 260.576832 66931.277304 
L 266.723572 66931.277304 
L 266.723572 66931.277304 
L 260.576832 66931.277304 
z
" clip-path="url(#pe05676a052)" style="fill: #ff0000; opacity: 0.2"/>
   </g>
   <g id="patch_88">
    <path d="M 266.723572 66931.277304 
L 272.870312 66931.277304 
L 272.870312 66931.277304 
L 266.723572 66931.277304 
z
" clip-path="url(#pe05676a052)" style="fill: #ff0000; opacity: 0.2"/>
   </g>
   <g id="patch_89">
    <path d="M 272.870312 66931.277304 
L 279.017052 66931.277304 
L 279.017052 66931.277304 
L 272.870312 66931.277304 
z
" clip-path="url(#pe05676a052)" style="fill: #ff0000; opacity: 0.2"/>
   </g>
   <g id="patch_90">
    <path d="M 279.017052 66931.277304 
L 285.163792 66931.277304 
L 285.163792 66931.277304 
L 279.017052 66931.277304 
z
" clip-path="url(#pe05676a052)" style="fill: #ff0000; opacity: 0.2"/>
   </g>
   <g id="patch_91">
    <path d="M 285.163792 66931.277304 
L 291.310532 66931.277304 
L 291.310532 66931.277304 
L 285.163792 66931.277304 
z
" clip-path="url(#pe05676a052)" style="fill: #ff0000; opacity: 0.2"/>
   </g>
   <g id="patch_92">
    <path d="M 291.310532 66931.277304 
L 297.457272 66931.277304 
L 297.457272 66931.277304 
L 291.310532 66931.277304 
z
" clip-path="url(#pe05676a052)" style="fill: #ff0000; opacity: 0.2"/>
   </g>
   <g id="patch_93">
    <path d="M 297.457272 66931.277304 
L 303.604012 66931.277304 
L 303.604012 66931.277304 
L 297.457272 66931.277304 
z
" clip-path="url(#pe05676a052)" style="fill: #ff0000; opacity: 0.2"/>
   </g>
   <g id="patch_94">
    <path d="M 303.604012 66931.277304 
L 309.750752 66931.277304 
L 309.750752 66931.277304 
L 303.604012 66931.277304 
z
" clip-path="url(#pe05676a052)" style="fill: #ff0000; opacity: 0.2"/>
   </g>
   <g id="patch_95">
    <path d="M 309.750752 66931.277304 
L 315.897491 66931.277304 
L 315.897491 66931.277304 
L 309.750752 66931.277304 
z
" clip-path="url(#pe05676a052)" style="fill: #ff0000; opacity: 0.2"/>
   </g>
   <g id="patch_96">
    <path d="M 315.897491 66931.277304 
L 322.044231 66931.277304 
L 322.044231 66931.277304 
L 315.897491 66931.277304 
z
" clip-path="url(#pe05676a052)" style="fill: #ff0000; opacity: 0.2"/>
   </g>
   <g id="patch_97">
    <path d="M 322.044231 66931.277304 
L 328.190971 66931.277304 
L 328.190971 66931.277304 
L 322.044231 66931.277304 
z
" clip-path="url(#pe05676a052)" style="fill: #ff0000; opacity: 0.2"/>
   </g>
   <g id="patch_98">
    <path d="M 328.190971 66931.277304 
L 334.337711 66931.277304 
L 334.337711 66931.277304 
L 328.190971 66931.277304 
z
" clip-path="url(#pe05676a052)" style="fill: #ff0000; opacity: 0.2"/>
   </g>
   <g id="patch_99">
    <path d="M 334.337711 66931.277304 
L 340.484451 66931.277304 
L 340.484451 66931.277304 
L 334.337711 66931.277304 
z
" clip-path="url(#pe05676a052)" style="fill: #ff0000; opacity: 0.2"/>
   </g>
   <g id="patch_100">
    <path d="M 340.484451 66931.277304 
L 346.631191 66931.277304 
L 346.631191 66931.277304 
L 340.484451 66931.277304 
z
" clip-path="url(#pe05676a052)" style="fill: #ff0000; opacity: 0.2"/>
   </g>
   <g id="patch_101">
    <path d="M 346.631191 66931.277304 
L 352.777931 66931.277304 
L 352.777931 66931.277304 
L 346.631191 66931.277304 
z
" clip-path="url(#pe05676a052)" style="fill: #ff0000; opacity: 0.2"/>
   </g>
   <g id="patch_102">
    <path d="M 352.777931 66931.277304 
L 358.924671 66931.277304 
L 358.924671 155.716245 
L 352.777931 155.716245 
z
" clip-path="url(#pe05676a052)" style="fill: #ff0000; opacity: 0.2"/>
   </g>
   <g id="matplotlib.axis_1">
    <g id="xtick_1">
     <g id="line2d_1">
      <path d="M 51.378125 224.64 
L 51.378125 7.2 
" clip-path="url(#pe05676a052)" style="fill: none; stroke-dasharray: 0.8,1.32; stroke-dashoffset: 0; stroke: #b0b0b0; stroke-width: 0.8"/>
     </g>
     <g id="line2d_2">
      <defs>
       <path id="ma2d3a4e289" d="M 0 0 
L 0 3.5 
" style="stroke: #000000; stroke-width: 0.8"/>
      </defs>
      <g>
       <use xlink:href="#ma2d3a4e289" x="51.378125" y="224.64" style="stroke: #000000; stroke-width: 0.8"/>
      </g>
     </g>
     <g id="text_1">
      <!-- 0.0 -->
      <g transform="translate(43.426563 239.238437)scale(0.1 -0.1)">
       <defs>
        <path id="DejaVuSans-30" d="M 2034 4250 
Q 1547 4250 1301 3770 
Q 1056 3291 1056 2328 
Q 1056 1369 1301 889 
Q 1547 409 2034 409 
Q 2525 409 2770 889 
Q 3016 1369 3016 2328 
Q 3016 3291 2770 3770 
Q 2525 4250 2034 4250 
z
M 2034 4750 
Q 2819 4750 3233 4129 
Q 3647 3509 3647 2328 
Q 3647 1150 3233 529 
Q 2819 -91 2034 -91 
Q 1250 -91 836 529 
Q 422 1150 422 2328 
Q 422 3509 836 4129 
Q 1250 4750 2034 4750 
z
" transform="scale(0.015625)"/>
        <path id="DejaVuSans-2e" d="M 684 794 
L 1344 794 
L 1344 0 
L 684 0 
L 684 794 
z
" transform="scale(0.015625)"/>
       </defs>
       <use xlink:href="#DejaVuSans-30"/>
       <use xlink:href="#DejaVuSans-2e" x="63.623047"/>
       <use xlink:href="#DejaVuSans-30" x="95.410156"/>
      </g>
     </g>
    </g>
    <g id="xtick_2">
     <g id="line2d_3">
      <path d="M 115.76274 224.64 
L 115.76274 7.2 
" clip-path="url(#pe05676a052)" style="fill: none; stroke-dasharray: 0.8,1.32; stroke-dashoffset: 0; stroke: #b0b0b0; stroke-width: 0.8"/>
     </g>
     <g id="line2d_4">
      <g>
       <use xlink:href="#ma2d3a4e289" x="115.76274" y="224.64" style="stroke: #000000; stroke-width: 0.8"/>
      </g>
     </g>
     <g id="text_2">
      <!-- 0.1 -->
      <g transform="translate(107.811178 239.238437)scale(0.1 -0.1)">
       <defs>
        <path id="DejaVuSans-31" d="M 794 531 
L 1825 531 
L 1825 4091 
L 703 3866 
L 703 4441 
L 1819 4666 
L 2450 4666 
L 2450 531 
L 3481 531 
L 3481 0 
L 794 0 
L 794 531 
z
" transform="scale(0.015625)"/>
       </defs>
       <use xlink:href="#DejaVuSans-30"/>
       <use xlink:href="#DejaVuSans-2e" x="63.623047"/>
       <use xlink:href="#DejaVuSans-31" x="95.410156"/>
      </g>
     </g>
    </g>
    <g id="xtick_3">
     <g id="line2d_5">
      <path d="M 180.147356 224.64 
L 180.147356 7.2 
" clip-path="url(#pe05676a052)" style="fill: none; stroke-dasharray: 0.8,1.32; stroke-dashoffset: 0; stroke: #b0b0b0; stroke-width: 0.8"/>
     </g>
     <g id="line2d_6">
      <g>
       <use xlink:href="#ma2d3a4e289" x="180.147356" y="224.64" style="stroke: #000000; stroke-width: 0.8"/>
      </g>
     </g>
     <g id="text_3">
      <!-- 0.2 -->
      <g transform="translate(172.195793 239.238437)scale(0.1 -0.1)">
       <defs>
        <path id="DejaVuSans-32" d="M 1228 531 
L 3431 531 
L 3431 0 
L 469 0 
L 469 531 
Q 828 903 1448 1529 
Q 2069 2156 2228 2338 
Q 2531 2678 2651 2914 
Q 2772 3150 2772 3378 
Q 2772 3750 2511 3984 
Q 2250 4219 1831 4219 
Q 1534 4219 1204 4116 
Q 875 4013 500 3803 
L 500 4441 
Q 881 4594 1212 4672 
Q 1544 4750 1819 4750 
Q 2544 4750 2975 4387 
Q 3406 4025 3406 3419 
Q 3406 3131 3298 2873 
Q 3191 2616 2906 2266 
Q 2828 2175 2409 1742 
Q 1991 1309 1228 531 
z
" transform="scale(0.015625)"/>
       </defs>
       <use xlink:href="#DejaVuSans-30"/>
       <use xlink:href="#DejaVuSans-2e" x="63.623047"/>
       <use xlink:href="#DejaVuSans-32" x="95.410156"/>
      </g>
     </g>
    </g>
    <g id="xtick_4">
     <g id="line2d_7">
      <path d="M 244.531971 224.64 
L 244.531971 7.2 
" clip-path="url(#pe05676a052)" style="fill: none; stroke-dasharray: 0.8,1.32; stroke-dashoffset: 0; stroke: #b0b0b0; stroke-width: 0.8"/>
     </g>
     <g id="line2d_8">
      <g>
       <use xlink:href="#ma2d3a4e289" x="244.531971" y="224.64" style="stroke: #000000; stroke-width: 0.8"/>
      </g>
     </g>
     <g id="text_4">
      <!-- 0.3 -->
      <g transform="translate(236.580409 239.238437)scale(0.1 -0.1)">
       <defs>
        <path id="DejaVuSans-33" d="M 2597 2516 
Q 3050 2419 3304 2112 
Q 3559 1806 3559 1356 
Q 3559 666 3084 287 
Q 2609 -91 1734 -91 
Q 1441 -91 1130 -33 
Q 819 25 488 141 
L 488 750 
Q 750 597 1062 519 
Q 1375 441 1716 441 
Q 2309 441 2620 675 
Q 2931 909 2931 1356 
Q 2931 1769 2642 2001 
Q 2353 2234 1838 2234 
L 1294 2234 
L 1294 2753 
L 1863 2753 
Q 2328 2753 2575 2939 
Q 2822 3125 2822 3475 
Q 2822 3834 2567 4026 
Q 2313 4219 1838 4219 
Q 1578 4219 1281 4162 
Q 984 4106 628 3988 
L 628 4550 
Q 988 4650 1302 4700 
Q 1616 4750 1894 4750 
Q 2613 4750 3031 4423 
Q 3450 4097 3450 3541 
Q 3450 3153 3228 2886 
Q 3006 2619 2597 2516 
z
" transform="scale(0.015625)"/>
       </defs>
       <use xlink:href="#DejaVuSans-30"/>
       <use xlink:href="#DejaVuSans-2e" x="63.623047"/>
       <use xlink:href="#DejaVuSans-33" x="95.410156"/>
      </g>
     </g>
    </g>
    <g id="xtick_5">
     <g id="line2d_9">
      <path d="M 308.916587 224.64 
L 308.916587 7.2 
" clip-path="url(#pe05676a052)" style="fill: none; stroke-dasharray: 0.8,1.32; stroke-dashoffset: 0; stroke: #b0b0b0; stroke-width: 0.8"/>
     </g>
     <g id="line2d_10">
      <g>
       <use xlink:href="#ma2d3a4e289" x="308.916587" y="224.64" style="stroke: #000000; stroke-width: 0.8"/>
      </g>
     </g>
     <g id="text_5">
      <!-- 0.4 -->
      <g transform="translate(300.965024 239.238437)scale(0.1 -0.1)">
       <defs>
        <path id="DejaVuSans-34" d="M 2419 4116 
L 825 1625 
L 2419 1625 
L 2419 4116 
z
M 2253 4666 
L 3047 4666 
L 3047 1625 
L 3713 1625 
L 3713 1100 
L 3047 1100 
L 3047 0 
L 2419 0 
L 2419 1100 
L 313 1100 
L 313 1709 
L 2253 4666 
z
" transform="scale(0.015625)"/>
       </defs>
       <use xlink:href="#DejaVuSans-30"/>
       <use xlink:href="#DejaVuSans-2e" x="63.623047"/>
       <use xlink:href="#DejaVuSans-34" x="95.410156"/>
      </g>
     </g>
    </g>
    <g id="xtick_6">
     <g id="line2d_11">
      <path d="M 373.301202 224.64 
L 373.301202 7.2 
" clip-path="url(#pe05676a052)" style="fill: none; stroke-dasharray: 0.8,1.32; stroke-dashoffset: 0; stroke: #b0b0b0; stroke-width: 0.8"/>
     </g>
     <g id="line2d_12">
      <g>
       <use xlink:href="#ma2d3a4e289" x="373.301202" y="224.64" style="stroke: #000000; stroke-width: 0.8"/>
      </g>
     </g>
     <g id="text_6">
      <!-- 0.5 -->
      <g transform="translate(365.349639 239.238437)scale(0.1 -0.1)">
       <defs>
        <path id="DejaVuSans-35" d="M 691 4666 
L 3169 4666 
L 3169 4134 
L 1269 4134 
L 1269 2991 
Q 1406 3038 1543 3061 
Q 1681 3084 1819 3084 
Q 2600 3084 3056 2656 
Q 3513 2228 3513 1497 
Q 3513 744 3044 326 
Q 2575 -91 1722 -91 
Q 1428 -91 1123 -41 
Q 819 9 494 109 
L 494 744 
Q 775 591 1075 516 
Q 1375 441 1709 441 
Q 2250 441 2565 725 
Q 2881 1009 2881 1497 
Q 2881 1984 2565 2268 
Q 2250 2553 1709 2553 
Q 1456 2553 1204 2497 
Q 953 2441 691 2322 
L 691 4666 
z
" transform="scale(0.015625)"/>
       </defs>
       <use xlink:href="#DejaVuSans-30"/>
       <use xlink:href="#DejaVuSans-2e" x="63.623047"/>
       <use xlink:href="#DejaVuSans-35" x="95.410156"/>
      </g>
     </g>
    </g>
    <g id="text_7">
     <!-- Intensità link $W_{ij}$ [u.a.] -->
     <g transform="translate(162.928125 253.318125)scale(0.1 -0.1)">
      <defs>
       <path id="DejaVuSans-49" d="M 628 4666 
L 1259 4666 
L 1259 0 
L 628 0 
L 628 4666 
z
" transform="scale(0.015625)"/>
       <path id="DejaVuSans-6e" d="M 3513 2113 
L 3513 0 
L 2938 0 
L 2938 2094 
Q 2938 2591 2744 2837 
Q 2550 3084 2163 3084 
Q 1697 3084 1428 2787 
Q 1159 2491 1159 1978 
L 1159 0 
L 581 0 
L 581 3500 
L 1159 3500 
L 1159 2956 
Q 1366 3272 1645 3428 
Q 1925 3584 2291 3584 
Q 2894 3584 3203 3211 
Q 3513 2838 3513 2113 
z
" transform="scale(0.015625)"/>
       <path id="DejaVuSans-74" d="M 1172 4494 
L 1172 3500 
L 2356 3500 
L 2356 3053 
L 1172 3053 
L 1172 1153 
Q 1172 725 1289 603 
Q 1406 481 1766 481 
L 2356 481 
L 2356 0 
L 1766 0 
Q 1100 0 847 248 
Q 594 497 594 1153 
L 594 3053 
L 172 3053 
L 172 3500 
L 594 3500 
L 594 4494 
L 1172 4494 
z
" transform="scale(0.015625)"/>
       <path id="DejaVuSans-65" d="M 3597 1894 
L 3597 1613 
L 953 1613 
Q 991 1019 1311 708 
Q 1631 397 2203 397 
Q 2534 397 2845 478 
Q 3156 559 3463 722 
L 3463 178 
Q 3153 47 2828 -22 
Q 2503 -91 2169 -91 
Q 1331 -91 842 396 
Q 353 884 353 1716 
Q 353 2575 817 3079 
Q 1281 3584 2069 3584 
Q 2775 3584 3186 3129 
Q 3597 2675 3597 1894 
z
M 3022 2063 
Q 3016 2534 2758 2815 
Q 2500 3097 2075 3097 
Q 1594 3097 1305 2825 
Q 1016 2553 972 2059 
L 3022 2063 
z
" transform="scale(0.015625)"/>
       <path id="DejaVuSans-73" d="M 2834 3397 
L 2834 2853 
Q 2591 2978 2328 3040 
Q 2066 3103 1784 3103 
Q 1356 3103 1142 2972 
Q 928 2841 928 2578 
Q 928 2378 1081 2264 
Q 1234 2150 1697 2047 
L 1894 2003 
Q 2506 1872 2764 1633 
Q 3022 1394 3022 966 
Q 3022 478 2636 193 
Q 2250 -91 1575 -91 
Q 1294 -91 989 -36 
Q 684 19 347 128 
L 347 722 
Q 666 556 975 473 
Q 1284 391 1588 391 
Q 1994 391 2212 530 
Q 2431 669 2431 922 
Q 2431 1156 2273 1281 
Q 2116 1406 1581 1522 
L 1381 1569 
Q 847 1681 609 1914 
Q 372 2147 372 2553 
Q 372 3047 722 3315 
Q 1072 3584 1716 3584 
Q 2034 3584 2315 3537 
Q 2597 3491 2834 3397 
z
" transform="scale(0.015625)"/>
       <path id="DejaVuSans-69" d="M 603 3500 
L 1178 3500 
L 1178 0 
L 603 0 
L 603 3500 
z
M 603 4863 
L 1178 4863 
L 1178 4134 
L 603 4134 
L 603 4863 
z
" transform="scale(0.015625)"/>
       <path id="DejaVuSans-e0" d="M 2194 1759 
Q 1497 1759 1228 1600 
Q 959 1441 959 1056 
Q 959 750 1161 570 
Q 1363 391 1709 391 
Q 2188 391 2477 730 
Q 2766 1069 2766 1631 
L 2766 1759 
L 2194 1759 
z
M 3341 1997 
L 3341 0 
L 2766 0 
L 2766 531 
Q 2569 213 2275 61 
Q 1981 -91 1556 -91 
Q 1019 -91 701 211 
Q 384 513 384 1019 
Q 384 1609 779 1909 
Q 1175 2209 1959 2209 
L 2766 2209 
L 2766 2266 
Q 2766 2663 2505 2880 
Q 2244 3097 1772 3097 
Q 1472 3097 1187 3025 
Q 903 2953 641 2809 
L 641 3341 
Q 956 3463 1253 3523 
Q 1550 3584 1831 3584 
Q 2591 3584 2966 3190 
Q 3341 2797 3341 1997 
z
M 1403 5119 
L 2284 3950 
L 1806 3950 
L 788 5119 
L 1403 5119 
z
" transform="scale(0.015625)"/>
       <path id="DejaVuSans-20" transform="scale(0.015625)"/>
       <path id="DejaVuSans-6c" d="M 603 4863 
L 1178 4863 
L 1178 0 
L 603 0 
L 603 4863 
z
" transform="scale(0.015625)"/>
       <path id="DejaVuSans-6b" d="M 581 4863 
L 1159 4863 
L 1159 1991 
L 2875 3500 
L 3609 3500 
L 1753 1863 
L 3688 0 
L 2938 0 
L 1159 1709 
L 1159 0 
L 581 0 
L 581 4863 
z
" transform="scale(0.015625)"/>
       <path id="DejaVuSans-Oblique-57" d="M 616 4666 
L 1228 4666 
L 1453 697 
L 3213 4666 
L 3916 4666 
L 4147 697 
L 5888 4666 
L 6528 4666 
L 4453 0 
L 3659 0 
L 3444 3891 
L 1697 0 
L 903 0 
L 616 4666 
z
" transform="scale(0.015625)"/>
       <path id="DejaVuSans-Oblique-69" d="M 1172 4863 
L 1747 4863 
L 1606 4134 
L 1031 4134 
L 1172 4863 
z
M 909 3500 
L 1484 3500 
L 800 0 
L 225 0 
L 909 3500 
z
" transform="scale(0.015625)"/>
       <path id="DejaVuSans-Oblique-6a" d="M 928 3500 
L 1503 3500 
L 813 -63 
L 809 -78 
Q 694 -675 544 -897 
Q 403 -1106 132 -1218 
Q -138 -1331 -506 -1331 
L -722 -1331 
L -628 -844 
L -481 -844 
Q -144 -844 -1 -703 
Q 141 -563 238 -63 
L 928 3500 
z
M 1197 4863 
L 1772 4863 
L 1631 4134 
L 1056 4134 
L 1197 4863 
z
" transform="scale(0.015625)"/>
       <path id="DejaVuSans-5b" d="M 550 4863 
L 1875 4863 
L 1875 4416 
L 1125 4416 
L 1125 -397 
L 1875 -397 
L 1875 -844 
L 550 -844 
L 550 4863 
z
" transform="scale(0.015625)"/>
       <path id="DejaVuSans-75" d="M 544 1381 
L 544 3500 
L 1119 3500 
L 1119 1403 
Q 1119 906 1312 657 
Q 1506 409 1894 409 
Q 2359 409 2629 706 
Q 2900 1003 2900 1516 
L 2900 3500 
L 3475 3500 
L 3475 0 
L 2900 0 
L 2900 538 
Q 2691 219 2414 64 
Q 2138 -91 1772 -91 
Q 1169 -91 856 284 
Q 544 659 544 1381 
z
M 1991 3584 
L 1991 3584 
z
" transform="scale(0.015625)"/>
       <path id="DejaVuSans-61" d="M 2194 1759 
Q 1497 1759 1228 1600 
Q 959 1441 959 1056 
Q 959 750 1161 570 
Q 1363 391 1709 391 
Q 2188 391 2477 730 
Q 2766 1069 2766 1631 
L 2766 1759 
L 2194 1759 
z
M 3341 1997 
L 3341 0 
L 2766 0 
L 2766 531 
Q 2569 213 2275 61 
Q 1981 -91 1556 -91 
Q 1019 -91 701 211 
Q 384 513 384 1019 
Q 384 1609 779 1909 
Q 1175 2209 1959 2209 
L 2766 2209 
L 2766 2266 
Q 2766 2663 2505 2880 
Q 2244 3097 1772 3097 
Q 1472 3097 1187 3025 
Q 903 2953 641 2809 
L 641 3341 
Q 956 3463 1253 3523 
Q 1550 3584 1831 3584 
Q 2591 3584 2966 3190 
Q 3341 2797 3341 1997 
z
" transform="scale(0.015625)"/>
       <path id="DejaVuSans-5d" d="M 1947 4863 
L 1947 -844 
L 622 -844 
L 622 -397 
L 1369 -397 
L 1369 4416 
L 622 4416 
L 622 4863 
L 1947 4863 
z
" transform="scale(0.015625)"/>
      </defs>
      <use xlink:href="#DejaVuSans-49" transform="translate(0 0.015625)"/>
      <use xlink:href="#DejaVuSans-6e" transform="translate(29.492188 0.015625)"/>
      <use xlink:href="#DejaVuSans-74" transform="translate(92.871094 0.015625)"/>
      <use xlink:href="#DejaVuSans-65" transform="translate(132.080078 0.015625)"/>
      <use xlink:href="#DejaVuSans-6e" transform="translate(193.603516 0.015625)"/>
      <use xlink:href="#DejaVuSans-73" transform="translate(256.982422 0.015625)"/>
      <use xlink:href="#DejaVuSans-69" transform="translate(309.082031 0.015625)"/>
      <use xlink:href="#DejaVuSans-74" transform="translate(336.865234 0.015625)"/>
      <use xlink:href="#DejaVuSans-e0" transform="translate(376.074219 0.015625)"/>
      <use xlink:href="#DejaVuSans-20" transform="translate(437.353516 0.015625)"/>
      <use xlink:href="#DejaVuSans-6c" transform="translate(469.140625 0.015625)"/>
      <use xlink:href="#DejaVuSans-69" transform="translate(496.923828 0.015625)"/>
      <use xlink:href="#DejaVuSans-6e" transform="translate(524.707031 0.015625)"/>
      <use xlink:href="#DejaVuSans-6b" transform="translate(588.085938 0.015625)"/>
      <use xlink:href="#DejaVuSans-20" transform="translate(645.996094 0.015625)"/>
      <use xlink:href="#DejaVuSans-Oblique-57" transform="translate(677.783203 0.015625)"/>
      <use xlink:href="#DejaVuSans-Oblique-69" transform="translate(776.660156 -16.390625)scale(0.7)"/>
      <use xlink:href="#DejaVuSans-Oblique-6a" transform="translate(796.108398 -16.390625)scale(0.7)"/>
      <use xlink:href="#DejaVuSans-20" transform="translate(818.291016 0.015625)"/>
      <use xlink:href="#DejaVuSans-5b" transform="translate(850.078125 0.015625)"/>
      <use xlink:href="#DejaVuSans-75" transform="translate(889.091797 0.015625)"/>
      <use xlink:href="#DejaVuSans-2e" transform="translate(952.470703 0.015625)"/>
      <use xlink:href="#DejaVuSans-61" transform="translate(984.257812 0.015625)"/>
      <use xlink:href="#DejaVuSans-2e" transform="translate(1045.537109 0.015625)"/>
      <use xlink:href="#DejaVuSans-5d" transform="translate(1077.324219 0.015625)"/>
     </g>
    </g>
   </g>
   <g id="matplotlib.axis_2">
    <g id="ytick_1">
     <g id="line2d_13">
      <path d="M 51.378125 204.781257 
L 386.178125 204.781257 
" clip-path="url(#pe05676a052)" style="fill: none; stroke-dasharray: 0.8,1.32; stroke-dashoffset: 0; stroke: #b0b0b0; stroke-width: 0.8"/>
     </g>
     <g id="line2d_14">
      <defs>
       <path id="m3a680c9bb3" d="M 0 0 
L -3.5 0 
" style="stroke: #000000; stroke-width: 0.8"/>
      </defs>
      <g>
       <use xlink:href="#m3a680c9bb3" x="51.378125" y="204.781257" style="stroke: #000000; stroke-width: 0.8"/>
      </g>
     </g>
     <g id="text_8">
      <!-- $\mathdefault{10^{-1}}$ -->
      <g transform="translate(20.878125 208.580476)scale(0.1 -0.1)">
       <defs>
        <path id="DejaVuSans-2212" d="M 678 2272 
L 4684 2272 
L 4684 1741 
L 678 1741 
L 678 2272 
z
" transform="scale(0.015625)"/>
       </defs>
       <use xlink:href="#DejaVuSans-31" transform="translate(0 0.684375)"/>
       <use xlink:href="#DejaVuSans-30" transform="translate(63.623047 0.684375)"/>
       <use xlink:href="#DejaVuSans-2212" transform="translate(128.203125 38.965625)scale(0.7)"/>
       <use xlink:href="#DejaVuSans-31" transform="translate(186.855469 38.965625)scale(0.7)"/>
      </g>
     </g>
    </g>
    <g id="ytick_2">
     <g id="line2d_15">
      <path d="M 51.378125 137.987968 
L 386.178125 137.987968 
" clip-path="url(#pe05676a052)" style="fill: none; stroke-dasharray: 0.8,1.32; stroke-dashoffset: 0; stroke: #b0b0b0; stroke-width: 0.8"/>
     </g>
     <g id="line2d_16">
      <g>
       <use xlink:href="#m3a680c9bb3" x="51.378125" y="137.987968" style="stroke: #000000; stroke-width: 0.8"/>
      </g>
     </g>
     <g id="text_9">
      <!-- $\mathdefault{10^{0}}$ -->
      <g transform="translate(26.778125 141.787186)scale(0.1 -0.1)">
       <use xlink:href="#DejaVuSans-31" transform="translate(0 0.765625)"/>
       <use xlink:href="#DejaVuSans-30" transform="translate(63.623047 0.765625)"/>
       <use xlink:href="#DejaVuSans-30" transform="translate(128.203125 39.046875)scale(0.7)"/>
      </g>
     </g>
    </g>
    <g id="ytick_3">
     <g id="line2d_17">
      <path d="M 51.378125 71.194678 
L 386.178125 71.194678 
" clip-path="url(#pe05676a052)" style="fill: none; stroke-dasharray: 0.8,1.32; stroke-dashoffset: 0; stroke: #b0b0b0; stroke-width: 0.8"/>
     </g>
     <g id="line2d_18">
      <g>
       <use xlink:href="#m3a680c9bb3" x="51.378125" y="71.194678" style="stroke: #000000; stroke-width: 0.8"/>
      </g>
     </g>
     <g id="text_10">
      <!-- $\mathdefault{10^{1}}$ -->
      <g transform="translate(26.778125 74.993897)scale(0.1 -0.1)">
       <use xlink:href="#DejaVuSans-31" transform="translate(0 0.684375)"/>
       <use xlink:href="#DejaVuSans-30" transform="translate(63.623047 0.684375)"/>
       <use xlink:href="#DejaVuSans-31" transform="translate(128.203125 38.965625)scale(0.7)"/>
      </g>
     </g>
    </g>
    <g id="ytick_4">
     <g id="line2d_19">
      <defs>
       <path id="mcd317f73dd" d="M 0 0 
L -2 0 
" style="stroke: #000000; stroke-width: 0.6"/>
      </defs>
      <g>
       <use xlink:href="#mcd317f73dd" x="51.378125" y="219.599265" style="stroke: #000000; stroke-width: 0.6"/>
      </g>
     </g>
    </g>
    <g id="ytick_5">
     <g id="line2d_20">
      <g>
       <use xlink:href="#mcd317f73dd" x="51.378125" y="215.127668" style="stroke: #000000; stroke-width: 0.6"/>
      </g>
     </g>
    </g>
    <g id="ytick_6">
     <g id="line2d_21">
      <g>
       <use xlink:href="#mcd317f73dd" x="51.378125" y="211.254195" style="stroke: #000000; stroke-width: 0.6"/>
      </g>
     </g>
    </g>
    <g id="ytick_7">
     <g id="line2d_22">
      <g>
       <use xlink:href="#mcd317f73dd" x="51.378125" y="207.83755" style="stroke: #000000; stroke-width: 0.6"/>
      </g>
     </g>
    </g>
    <g id="ytick_8">
     <g id="line2d_23">
      <g>
       <use xlink:href="#mcd317f73dd" x="51.378125" y="184.674473" style="stroke: #000000; stroke-width: 0.6"/>
      </g>
     </g>
    </g>
    <g id="ytick_9">
     <g id="line2d_24">
      <g>
       <use xlink:href="#mcd317f73dd" x="51.378125" y="172.912759" style="stroke: #000000; stroke-width: 0.6"/>
      </g>
     </g>
    </g>
    <g id="ytick_10">
     <g id="line2d_25">
      <g>
       <use xlink:href="#mcd317f73dd" x="51.378125" y="164.56769" style="stroke: #000000; stroke-width: 0.6"/>
      </g>
     </g>
    </g>
    <g id="ytick_11">
     <g id="line2d_26">
      <g>
       <use xlink:href="#mcd317f73dd" x="51.378125" y="158.094751" style="stroke: #000000; stroke-width: 0.6"/>
      </g>
     </g>
    </g>
    <g id="ytick_12">
     <g id="line2d_27">
      <g>
       <use xlink:href="#mcd317f73dd" x="51.378125" y="152.805975" style="stroke: #000000; stroke-width: 0.6"/>
      </g>
     </g>
    </g>
    <g id="ytick_13">
     <g id="line2d_28">
      <g>
       <use xlink:href="#mcd317f73dd" x="51.378125" y="148.334379" style="stroke: #000000; stroke-width: 0.6"/>
      </g>
     </g>
    </g>
    <g id="ytick_14">
     <g id="line2d_29">
      <g>
       <use xlink:href="#mcd317f73dd" x="51.378125" y="144.460906" style="stroke: #000000; stroke-width: 0.6"/>
      </g>
     </g>
    </g>
    <g id="ytick_15">
     <g id="line2d_30">
      <g>
       <use xlink:href="#mcd317f73dd" x="51.378125" y="141.044261" style="stroke: #000000; stroke-width: 0.6"/>
      </g>
     </g>
    </g>
    <g id="ytick_16">
     <g id="line2d_31">
      <g>
       <use xlink:href="#mcd317f73dd" x="51.378125" y="117.881184" style="stroke: #000000; stroke-width: 0.6"/>
      </g>
     </g>
    </g>
    <g id="ytick_17">
     <g id="line2d_32">
      <g>
       <use xlink:href="#mcd317f73dd" x="51.378125" y="106.11947" style="stroke: #000000; stroke-width: 0.6"/>
      </g>
     </g>
    </g>
    <g id="ytick_18">
     <g id="line2d_33">
      <g>
       <use xlink:href="#mcd317f73dd" x="51.378125" y="97.7744" style="stroke: #000000; stroke-width: 0.6"/>
      </g>
     </g>
    </g>
    <g id="ytick_19">
     <g id="line2d_34">
      <g>
       <use xlink:href="#mcd317f73dd" x="51.378125" y="91.301462" style="stroke: #000000; stroke-width: 0.6"/>
      </g>
     </g>
    </g>
    <g id="ytick_20">
     <g id="line2d_35">
      <g>
       <use xlink:href="#mcd317f73dd" x="51.378125" y="86.012686" style="stroke: #000000; stroke-width: 0.6"/>
      </g>
     </g>
    </g>
    <g id="ytick_21">
     <g id="line2d_36">
      <g>
       <use xlink:href="#mcd317f73dd" x="51.378125" y="81.54109" style="stroke: #000000; stroke-width: 0.6"/>
      </g>
     </g>
    </g>
    <g id="ytick_22">
     <g id="line2d_37">
      <g>
       <use xlink:href="#mcd317f73dd" x="51.378125" y="77.667617" style="stroke: #000000; stroke-width: 0.6"/>
      </g>
     </g>
    </g>
    <g id="ytick_23">
     <g id="line2d_38">
      <g>
       <use xlink:href="#mcd317f73dd" x="51.378125" y="74.250972" style="stroke: #000000; stroke-width: 0.6"/>
      </g>
     </g>
    </g>
    <g id="ytick_24">
     <g id="line2d_39">
      <g>
       <use xlink:href="#mcd317f73dd" x="51.378125" y="51.087895" style="stroke: #000000; stroke-width: 0.6"/>
      </g>
     </g>
    </g>
    <g id="ytick_25">
     <g id="line2d_40">
      <g>
       <use xlink:href="#mcd317f73dd" x="51.378125" y="39.32618" style="stroke: #000000; stroke-width: 0.6"/>
      </g>
     </g>
    </g>
    <g id="ytick_26">
     <g id="line2d_41">
      <g>
       <use xlink:href="#mcd317f73dd" x="51.378125" y="30.981111" style="stroke: #000000; stroke-width: 0.6"/>
      </g>
     </g>
    </g>
    <g id="ytick_27">
     <g id="line2d_42">
      <g>
       <use xlink:href="#mcd317f73dd" x="51.378125" y="24.508172" style="stroke: #000000; stroke-width: 0.6"/>
      </g>
     </g>
    </g>
    <g id="ytick_28">
     <g id="line2d_43">
      <g>
       <use xlink:href="#mcd317f73dd" x="51.378125" y="19.219397" style="stroke: #000000; stroke-width: 0.6"/>
      </g>
     </g>
    </g>
    <g id="ytick_29">
     <g id="line2d_44">
      <g>
       <use xlink:href="#mcd317f73dd" x="51.378125" y="14.7478" style="stroke: #000000; stroke-width: 0.6"/>
      </g>
     </g>
    </g>
    <g id="ytick_30">
     <g id="line2d_45">
      <g>
       <use xlink:href="#mcd317f73dd" x="51.378125" y="10.874327" style="stroke: #000000; stroke-width: 0.6"/>
      </g>
     </g>
    </g>
    <g id="ytick_31">
     <g id="line2d_46">
      <g>
       <use xlink:href="#mcd317f73dd" x="51.378125" y="7.457682" style="stroke: #000000; stroke-width: 0.6"/>
      </g>
     </g>
    </g>
    <g id="text_11">
     <!-- Percentuale di occorrenza [%] -->
     <g transform="translate(14.798438 190.870781)rotate(-90)scale(0.1 -0.1)">
      <defs>
       <path id="DejaVuSans-50" d="M 1259 4147 
L 1259 2394 
L 2053 2394 
Q 2494 2394 2734 2622 
Q 2975 2850 2975 3272 
Q 2975 3691 2734 3919 
Q 2494 4147 2053 4147 
L 1259 4147 
z
M 628 4666 
L 2053 4666 
Q 2838 4666 3239 4311 
Q 3641 3956 3641 3272 
Q 3641 2581 3239 2228 
Q 2838 1875 2053 1875 
L 1259 1875 
L 1259 0 
L 628 0 
L 628 4666 
z
" transform="scale(0.015625)"/>
       <path id="DejaVuSans-72" d="M 2631 2963 
Q 2534 3019 2420 3045 
Q 2306 3072 2169 3072 
Q 1681 3072 1420 2755 
Q 1159 2438 1159 1844 
L 1159 0 
L 581 0 
L 581 3500 
L 1159 3500 
L 1159 2956 
Q 1341 3275 1631 3429 
Q 1922 3584 2338 3584 
Q 2397 3584 2469 3576 
Q 2541 3569 2628 3553 
L 2631 2963 
z
" transform="scale(0.015625)"/>
       <path id="DejaVuSans-63" d="M 3122 3366 
L 3122 2828 
Q 2878 2963 2633 3030 
Q 2388 3097 2138 3097 
Q 1578 3097 1268 2742 
Q 959 2388 959 1747 
Q 959 1106 1268 751 
Q 1578 397 2138 397 
Q 2388 397 2633 464 
Q 2878 531 3122 666 
L 3122 134 
Q 2881 22 2623 -34 
Q 2366 -91 2075 -91 
Q 1284 -91 818 406 
Q 353 903 353 1747 
Q 353 2603 823 3093 
Q 1294 3584 2113 3584 
Q 2378 3584 2631 3529 
Q 2884 3475 3122 3366 
z
" transform="scale(0.015625)"/>
       <path id="DejaVuSans-64" d="M 2906 2969 
L 2906 4863 
L 3481 4863 
L 3481 0 
L 2906 0 
L 2906 525 
Q 2725 213 2448 61 
Q 2172 -91 1784 -91 
Q 1150 -91 751 415 
Q 353 922 353 1747 
Q 353 2572 751 3078 
Q 1150 3584 1784 3584 
Q 2172 3584 2448 3432 
Q 2725 3281 2906 2969 
z
M 947 1747 
Q 947 1113 1208 752 
Q 1469 391 1925 391 
Q 2381 391 2643 752 
Q 2906 1113 2906 1747 
Q 2906 2381 2643 2742 
Q 2381 3103 1925 3103 
Q 1469 3103 1208 2742 
Q 947 2381 947 1747 
z
" transform="scale(0.015625)"/>
       <path id="DejaVuSans-6f" d="M 1959 3097 
Q 1497 3097 1228 2736 
Q 959 2375 959 1747 
Q 959 1119 1226 758 
Q 1494 397 1959 397 
Q 2419 397 2687 759 
Q 2956 1122 2956 1747 
Q 2956 2369 2687 2733 
Q 2419 3097 1959 3097 
z
M 1959 3584 
Q 2709 3584 3137 3096 
Q 3566 2609 3566 1747 
Q 3566 888 3137 398 
Q 2709 -91 1959 -91 
Q 1206 -91 779 398 
Q 353 888 353 1747 
Q 353 2609 779 3096 
Q 1206 3584 1959 3584 
z
" transform="scale(0.015625)"/>
       <path id="DejaVuSans-7a" d="M 353 3500 
L 3084 3500 
L 3084 2975 
L 922 459 
L 3084 459 
L 3084 0 
L 275 0 
L 275 525 
L 2438 3041 
L 353 3041 
L 353 3500 
z
" transform="scale(0.015625)"/>
       <path id="DejaVuSans-25" d="M 4653 2053 
Q 4381 2053 4226 1822 
Q 4072 1591 4072 1178 
Q 4072 772 4226 539 
Q 4381 306 4653 306 
Q 4919 306 5073 539 
Q 5228 772 5228 1178 
Q 5228 1588 5073 1820 
Q 4919 2053 4653 2053 
z
M 4653 2450 
Q 5147 2450 5437 2106 
Q 5728 1763 5728 1178 
Q 5728 594 5436 251 
Q 5144 -91 4653 -91 
Q 4153 -91 3862 251 
Q 3572 594 3572 1178 
Q 3572 1766 3864 2108 
Q 4156 2450 4653 2450 
z
M 1428 4353 
Q 1159 4353 1004 4120 
Q 850 3888 850 3481 
Q 850 3069 1003 2837 
Q 1156 2606 1428 2606 
Q 1700 2606 1854 2837 
Q 2009 3069 2009 3481 
Q 2009 3884 1853 4118 
Q 1697 4353 1428 4353 
z
M 4250 4750 
L 4750 4750 
L 1831 -91 
L 1331 -91 
L 4250 4750 
z
M 1428 4750 
Q 1922 4750 2215 4408 
Q 2509 4066 2509 3481 
Q 2509 2891 2217 2550 
Q 1925 2209 1428 2209 
Q 931 2209 642 2551 
Q 353 2894 353 3481 
Q 353 4063 643 4406 
Q 934 4750 1428 4750 
z
" transform="scale(0.015625)"/>
      </defs>
      <use xlink:href="#DejaVuSans-50"/>
      <use xlink:href="#DejaVuSans-65" x="56.677734"/>
      <use xlink:href="#DejaVuSans-72" x="118.201172"/>
      <use xlink:href="#DejaVuSans-63" x="157.064453"/>
      <use xlink:href="#DejaVuSans-65" x="212.044922"/>
      <use xlink:href="#DejaVuSans-6e" x="273.568359"/>
      <use xlink:href="#DejaVuSans-74" x="336.947266"/>
      <use xlink:href="#DejaVuSans-75" x="376.15625"/>
      <use xlink:href="#DejaVuSans-61" x="439.535156"/>
      <use xlink:href="#DejaVuSans-6c" x="500.814453"/>
      <use xlink:href="#DejaVuSans-65" x="528.597656"/>
      <use xlink:href="#DejaVuSans-20" x="590.121094"/>
      <use xlink:href="#DejaVuSans-64" x="621.908203"/>
      <use xlink:href="#DejaVuSans-69" x="685.384766"/>
      <use xlink:href="#DejaVuSans-20" x="713.167969"/>
      <use xlink:href="#DejaVuSans-6f" x="744.955078"/>
      <use xlink:href="#DejaVuSans-63" x="806.136719"/>
      <use xlink:href="#DejaVuSans-63" x="861.117188"/>
      <use xlink:href="#DejaVuSans-6f" x="916.097656"/>
      <use xlink:href="#DejaVuSans-72" x="977.279297"/>
      <use xlink:href="#DejaVuSans-72" x="1016.642578"/>
      <use xlink:href="#DejaVuSans-65" x="1055.505859"/>
      <use xlink:href="#DejaVuSans-6e" x="1117.029297"/>
      <use xlink:href="#DejaVuSans-7a" x="1180.408203"/>
      <use xlink:href="#DejaVuSans-61" x="1232.898438"/>
      <use xlink:href="#DejaVuSans-20" x="1294.177734"/>
      <use xlink:href="#DejaVuSans-5b" x="1325.964844"/>
      <use xlink:href="#DejaVuSans-25" x="1364.978516"/>
      <use xlink:href="#DejaVuSans-5d" x="1459.998047"/>
     </g>
    </g>
   </g>
   <g id="patch_103">
    <path d="M 51.401268 264.618125 
L 51.401268 28.243338 
L 57.995908 28.243338 
L 57.995908 62.247164 
L 64.590549 62.247164 
L 64.590549 82.053344 
L 71.185189 82.053344 
L 71.185189 91.516196 
L 77.779829 91.516196 
L 77.779829 91.104729 
L 84.37447 91.104729 
L 84.37447 104.984754 
L 90.96911 104.984754 
L 90.96911 114.222446 
L 97.56375 114.222446 
L 97.56375 117.077991 
L 104.158391 117.077991 
L 104.158391 138.202702 
L 110.753031 138.202702 
L 110.753031 140.352423 
L 117.347671 140.352423 
L 117.347671 132.570633 
L 123.942312 132.570633 
L 123.942312 123.802082 
L 130.536952 123.802082 
L 130.536952 138.202702 
L 137.131592 138.202702 
L 137.131592 147.963074 
L 143.726233 147.963074 
L 143.726233 162.781082 
L 150.320873 162.781082 
L 150.320873 158.309486 
L 156.915513 158.309486 
L 156.915513 182.887866 
L 163.510154 182.887866 
L 163.510154 145.198321 
L 170.104794 145.198321 
L 170.104794 151.019368 
L 176.699434 151.019368 
L 176.699434 162.781082 
L 183.294075 162.781082 
L 183.294075 158.309486 
L 189.888715 158.309486 
L 189.888715 162.781082 
L 196.483355 162.781082 
L 196.483355 151.019368 
L 203.077995 151.019368 
L 203.077995 162.781082 
L 209.672636 162.781082 
L 209.672636 154.436013 
L 216.267276 154.436013 
L 216.267276 194.64958 
L 222.861916 194.64958 
L 222.861916 154.436013 
L 229.456557 154.436013 
L 229.456557 214.756364 
L 236.051197 214.756364 
L 236.051197 194.64958 
L 242.645837 194.64958 
L 242.645837 182.887866 
L 249.240478 182.887866 
L 249.240478 174.542796 
L 255.835118 174.542796 
L 255.835118 194.64958 
L 262.429758 194.64958 
L 262.429758 194.64958 
L 269.024399 194.64958 
L 269.024399 194.64958 
L 275.619039 194.64958 
L 275.619039 168.069858 
L 282.213679 168.069858 
L 282.213679 194.64958 
L 288.80832 194.64958 
L 288.80832 214.756364 
L 295.40296 214.756364 
L 295.40296 194.64958 
L 301.9976 194.64958 
L 301.9976 194.64958 
L 308.592241 194.64958 
L 308.592241 264.618125 
M 315.186881 264.618125 
L 315.186881 214.756364 
L 321.781521 214.756364 
L 321.781521 214.756364 
L 328.376162 214.756364 
L 328.376162 194.64958 
L 334.970802 194.64958 
L 334.970802 264.618125 
M 341.565442 264.618125 
L 341.565442 214.756364 
L 348.160083 214.756364 
L 348.160083 264.618125 
M 354.754723 264.618125 
L 354.754723 182.887866 
L 361.349363 182.887866 
L 361.349363 214.756364 
L 367.944004 214.756364 
L 367.944004 174.542796 
L 374.538644 174.542796 
L 374.538644 194.64958 
L 381.133284 194.64958 
L 381.133284 264.618125 
" clip-path="url(#pe05676a052)" style="fill: none; stroke: #0000ff; stroke-width: 1.8; stroke-linejoin: miter"/>
   </g>
   <g id="patch_104">
    <path d="M 51.587675 264.618125 
L 51.587675 17.083636 
L 57.734415 17.083636 
L 57.734415 62.343234 
L 63.881155 62.343234 
L 63.881155 86.158202 
L 70.027895 86.158202 
L 70.027895 103.740963 
L 76.174635 103.740963 
L 76.174635 109.029739 
L 82.321375 109.029739 
L 82.321375 123.847747 
L 88.468115 123.847747 
L 88.468115 155.716245 
L 94.614855 155.716245 
L 94.614855 103.740963 
L 100.761595 103.740963 
L 100.761595 264.618125 
M 106.908334 264.618125 
L 106.908334 155.716245 
L 113.055074 155.716245 
L 113.055074 135.609461 
L 119.201814 135.609461 
L 119.201814 135.609461 
L 125.348554 135.609461 
L 125.348554 264.618125 
M 131.495294 264.618125 
L 131.495294 155.716245 
L 137.642034 155.716245 
L 137.642034 155.716245 
L 143.788774 155.716245 
L 143.788774 155.716245 
L 149.935514 155.716245 
L 149.935514 264.618125 
M 156.082254 264.618125 
L 156.082254 155.716245 
L 162.228994 155.716245 
L 162.228994 155.716245 
L 168.375734 155.716245 
L 168.375734 135.609461 
L 174.522473 135.609461 
L 174.522473 155.716245 
L 180.669213 155.716245 
L 180.669213 155.716245 
L 186.815953 155.716245 
L 186.815953 155.716245 
L 192.962693 155.716245 
L 192.962693 264.618125 
M 211.402913 264.618125 
L 211.402913 155.716245 
L 217.549653 155.716245 
L 217.549653 264.618125 
M 352.777931 264.618125 
L 352.777931 155.716245 
L 358.924671 155.716245 
L 358.924671 264.618125 
" clip-path="url(#pe05676a052)" style="fill: none; stroke: #ff0000; stroke-width: 1.8; stroke-linejoin: miter"/>
   </g>
   <g id="patch_105">
    <path d="M 51.378125 224.64 
L 51.378125 7.2 
" style="fill: none; stroke: #000000; stroke-width: 0.8; stroke-linejoin: miter; stroke-linecap: square"/>
   </g>
   <g id="patch_106">
    <path d="M 386.178125 224.64 
L 386.178125 7.2 
" style="fill: none; stroke: #000000; stroke-width: 0.8; stroke-linejoin: miter; stroke-linecap: square"/>
   </g>
   <g id="patch_107">
    <path d="M 51.378125 224.64 
L 386.178125 224.64 
" style="fill: none; stroke: #000000; stroke-width: 0.8; stroke-linejoin: miter; stroke-linecap: square"/>
   </g>
   <g id="patch_108">
    <path d="M 51.378125 7.2 
L 386.178125 7.2 
" style="fill: none; stroke: #000000; stroke-width: 0.8; stroke-linejoin: miter; stroke-linecap: square"/>
   </g>
   <g id="legend_1">
    <g id="patch_109">
     <path d="M 235.18125 44.55625 
L 379.178125 44.55625 
Q 381.178125 44.55625 381.178125 42.55625 
L 381.178125 14.2 
Q 381.178125 12.2 379.178125 12.2 
L 235.18125 12.2 
Q 233.18125 12.2 233.18125 14.2 
L 233.18125 42.55625 
Q 233.18125 44.55625 235.18125 44.55625 
z
" style="fill: #ffffff; opacity: 0.8; stroke: #cccccc; stroke-linejoin: miter"/>
    </g>
    <g id="patch_110">
     <path d="M 237.18125 23.798438 
L 257.18125 23.798438 
L 257.18125 16.798438 
L 237.18125 16.798438 
L 237.18125 23.798438 
z
" style="fill: none; stroke: #0000ff; stroke-width: 1.8; stroke-linejoin: miter"/>
    </g>
    <g id="text_12">
     <!-- 66 ROI -->
     <g transform="translate(265.18125 23.798438)scale(0.1 -0.1)">
      <defs>
       <path id="DejaVuSans-36" d="M 2113 2584 
Q 1688 2584 1439 2293 
Q 1191 2003 1191 1497 
Q 1191 994 1439 701 
Q 1688 409 2113 409 
Q 2538 409 2786 701 
Q 3034 994 3034 1497 
Q 3034 2003 2786 2293 
Q 2538 2584 2113 2584 
z
M 3366 4563 
L 3366 3988 
Q 3128 4100 2886 4159 
Q 2644 4219 2406 4219 
Q 1781 4219 1451 3797 
Q 1122 3375 1075 2522 
Q 1259 2794 1537 2939 
Q 1816 3084 2150 3084 
Q 2853 3084 3261 2657 
Q 3669 2231 3669 1497 
Q 3669 778 3244 343 
Q 2819 -91 2113 -91 
Q 1303 -91 875 529 
Q 447 1150 447 2328 
Q 447 3434 972 4092 
Q 1497 4750 2381 4750 
Q 2619 4750 2861 4703 
Q 3103 4656 3366 4563 
z
" transform="scale(0.015625)"/>
       <path id="DejaVuSans-52" d="M 2841 2188 
Q 3044 2119 3236 1894 
Q 3428 1669 3622 1275 
L 4263 0 
L 3584 0 
L 2988 1197 
Q 2756 1666 2539 1819 
Q 2322 1972 1947 1972 
L 1259 1972 
L 1259 0 
L 628 0 
L 628 4666 
L 2053 4666 
Q 2853 4666 3247 4331 
Q 3641 3997 3641 3322 
Q 3641 2881 3436 2590 
Q 3231 2300 2841 2188 
z
M 1259 4147 
L 1259 2491 
L 2053 2491 
Q 2509 2491 2742 2702 
Q 2975 2913 2975 3322 
Q 2975 3731 2742 3939 
Q 2509 4147 2053 4147 
L 1259 4147 
z
" transform="scale(0.015625)"/>
       <path id="DejaVuSans-4f" d="M 2522 4238 
Q 1834 4238 1429 3725 
Q 1025 3213 1025 2328 
Q 1025 1447 1429 934 
Q 1834 422 2522 422 
Q 3209 422 3611 934 
Q 4013 1447 4013 2328 
Q 4013 3213 3611 3725 
Q 3209 4238 2522 4238 
z
M 2522 4750 
Q 3503 4750 4090 4092 
Q 4678 3434 4678 2328 
Q 4678 1225 4090 567 
Q 3503 -91 2522 -91 
Q 1538 -91 948 565 
Q 359 1222 359 2328 
Q 359 3434 948 4092 
Q 1538 4750 2522 4750 
z
" transform="scale(0.015625)"/>
      </defs>
      <use xlink:href="#DejaVuSans-36"/>
      <use xlink:href="#DejaVuSans-36" x="63.623047"/>
      <use xlink:href="#DejaVuSans-20" x="127.246094"/>
      <use xlink:href="#DejaVuSans-52" x="159.033203"/>
      <use xlink:href="#DejaVuSans-4f" x="228.515625"/>
      <use xlink:href="#DejaVuSans-49" x="307.226562"/>
     </g>
    </g>
    <g id="patch_111">
     <path d="M 237.18125 38.476562 
L 257.18125 38.476562 
L 257.18125 31.476562 
L 237.18125 31.476562 
L 237.18125 38.476562 
z
" style="fill: none; stroke: #ff0000; stroke-width: 1.8; stroke-linejoin: miter"/>
    </g>
    <g id="text_13">
     <!-- 66 ROI interemisferica -->
     <g transform="translate(265.18125 38.476562)scale(0.1 -0.1)">
      <defs>
       <path id="DejaVuSans-6d" d="M 3328 2828 
Q 3544 3216 3844 3400 
Q 4144 3584 4550 3584 
Q 5097 3584 5394 3201 
Q 5691 2819 5691 2113 
L 5691 0 
L 5113 0 
L 5113 2094 
Q 5113 2597 4934 2840 
Q 4756 3084 4391 3084 
Q 3944 3084 3684 2787 
Q 3425 2491 3425 1978 
L 3425 0 
L 2847 0 
L 2847 2094 
Q 2847 2600 2669 2842 
Q 2491 3084 2119 3084 
Q 1678 3084 1418 2786 
Q 1159 2488 1159 1978 
L 1159 0 
L 581 0 
L 581 3500 
L 1159 3500 
L 1159 2956 
Q 1356 3278 1631 3431 
Q 1906 3584 2284 3584 
Q 2666 3584 2933 3390 
Q 3200 3197 3328 2828 
z
" transform="scale(0.015625)"/>
       <path id="DejaVuSans-66" d="M 2375 4863 
L 2375 4384 
L 1825 4384 
Q 1516 4384 1395 4259 
Q 1275 4134 1275 3809 
L 1275 3500 
L 2222 3500 
L 2222 3053 
L 1275 3053 
L 1275 0 
L 697 0 
L 697 3053 
L 147 3053 
L 147 3500 
L 697 3500 
L 697 3744 
Q 697 4328 969 4595 
Q 1241 4863 1831 4863 
L 2375 4863 
z
" transform="scale(0.015625)"/>
      </defs>
      <use xlink:href="#DejaVuSans-36"/>
      <use xlink:href="#DejaVuSans-36" x="63.623047"/>
      <use xlink:href="#DejaVuSans-20" x="127.246094"/>
      <use xlink:href="#DejaVuSans-52" x="159.033203"/>
      <use xlink:href="#DejaVuSans-4f" x="228.515625"/>
      <use xlink:href="#DejaVuSans-49" x="307.226562"/>
      <use xlink:href="#DejaVuSans-20" x="336.71875"/>
      <use xlink:href="#DejaVuSans-69" x="368.505859"/>
      <use xlink:href="#DejaVuSans-6e" x="396.289062"/>
      <use xlink:href="#DejaVuSans-74" x="459.667969"/>
      <use xlink:href="#DejaVuSans-65" x="498.876953"/>
      <use xlink:href="#DejaVuSans-72" x="560.400391"/>
      <use xlink:href="#DejaVuSans-65" x="599.263672"/>
      <use xlink:href="#DejaVuSans-6d" x="660.787109"/>
      <use xlink:href="#DejaVuSans-69" x="758.199219"/>
      <use xlink:href="#DejaVuSans-73" x="785.982422"/>
      <use xlink:href="#DejaVuSans-66" x="838.082031"/>
      <use xlink:href="#DejaVuSans-65" x="873.287109"/>
      <use xlink:href="#DejaVuSans-72" x="934.810547"/>
      <use xlink:href="#DejaVuSans-69" x="975.923828"/>
      <use xlink:href="#DejaVuSans-63" x="1003.707031"/>
      <use xlink:href="#DejaVuSans-61" x="1058.6875"/>
     </g>
    </g>
   </g>
  </g>
 </g>
 <defs>
  <clipPath id="pe05676a052">
   <rect x="51.378125" y="7.2" width="334.8" height="217.44"/>
  </clipPath>
 </defs>
</svg>
