<?xml version="1.0" encoding="utf-8" standalone="no"?>
<!DOCTYPE svg PUBLIC "-//W3C//DTD SVG 1.1//EN"
  "http://www.w3.org/Graphics/SVG/1.1/DTD/svg11.dtd">
<svg xmlns:xlink="http://www.w3.org/1999/xlink" width="202.478125pt" height="198.158125pt" viewBox="0 0 202.478125 198.158125" xmlns="http://www.w3.org/2000/svg" version="1.1">
 <metadata>
  <rdf:RDF xmlns:dc="http://purl.org/dc/elements/1.1/" xmlns:cc="http://creativecommons.org/ns#" xmlns:rdf="http://www.w3.org/1999/02/22-rdf-syntax-ns#">
   <cc:Work>
    <dc:type rdf:resource="http://purl.org/dc/dcmitype/StillImage"/>
    <dc:date>2022-09-11T19:11:38.778158</dc:date>
    <dc:format>image/svg+xml</dc:format>
    <dc:creator>
     <cc:Agent>
      <dc:title>Matplotlib v3.5.1, https://matplotlib.org/</dc:title>
     </cc:Agent>
    </dc:creator>
   </cc:Work>
  </rdf:RDF>
 </metadata>
 <defs>
  <style type="text/css">*{stroke-linejoin: round; stroke-linecap: butt}</style>
 </defs>
 <g id="figure_1">
  <g id="patch_1">
   <path d="M 0 198.158125 
L 202.478125 198.158125 
L 202.478125 0 
L 0 0 
L 0 198.158125 
z
" style="fill: none"/>
  </g>
  <g id="axes_1">
   <g id="patch_2">
    <path d="M 27.878125 170.28 
L 195.278125 170.28 
L 195.278125 7.2 
L 27.878125 7.2 
z
" style="fill: #ffffff"/>
   </g>
   <g id="matplotlib.axis_1">
    <g id="xtick_1">
     <g id="line2d_1">
      <path d="M 27.878125 170.28 
L 27.878125 7.2 
" clip-path="url(#p8842c58ba5)" style="fill: none; stroke-dasharray: 0.8,1.32; stroke-dashoffset: 0; stroke: #b0b0b0; stroke-width: 0.8"/>
     </g>
     <g id="line2d_2">
      <defs>
       <path id="m259418d273" d="M 0 0 
L 0 3.5 
" style="stroke: #000000; stroke-width: 0.8"/>
      </defs>
      <g>
       <use xlink:href="#m259418d273" x="27.878125" y="170.28" style="stroke: #000000; stroke-width: 0.8"/>
      </g>
     </g>
    </g>
    <g id="xtick_2">
     <g id="line2d_3">
      <path d="M 69.728125 170.28 
L 69.728125 7.2 
" clip-path="url(#p8842c58ba5)" style="fill: none; stroke-dasharray: 0.8,1.32; stroke-dashoffset: 0; stroke: #b0b0b0; stroke-width: 0.8"/>
     </g>
     <g id="line2d_4">
      <g>
       <use xlink:href="#m259418d273" x="69.728125" y="170.28" style="stroke: #000000; stroke-width: 0.8"/>
      </g>
     </g>
    </g>
    <g id="xtick_3">
     <g id="line2d_5">
      <path d="M 111.578125 170.28 
L 111.578125 7.2 
" clip-path="url(#p8842c58ba5)" style="fill: none; stroke-dasharray: 0.8,1.32; stroke-dashoffset: 0; stroke: #b0b0b0; stroke-width: 0.8"/>
     </g>
     <g id="line2d_6">
      <g>
       <use xlink:href="#m259418d273" x="111.578125" y="170.28" style="stroke: #000000; stroke-width: 0.8"/>
      </g>
     </g>
    </g>
    <g id="xtick_4">
     <g id="line2d_7">
      <path d="M 153.428125 170.28 
L 153.428125 7.2 
" clip-path="url(#p8842c58ba5)" style="fill: none; stroke-dasharray: 0.8,1.32; stroke-dashoffset: 0; stroke: #b0b0b0; stroke-width: 0.8"/>
     </g>
     <g id="line2d_8">
      <g>
       <use xlink:href="#m259418d273" x="153.428125" y="170.28" style="stroke: #000000; stroke-width: 0.8"/>
      </g>
     </g>
    </g>
    <g id="xtick_5">
     <g id="line2d_9">
      <path d="M 195.278125 170.28 
L 195.278125 7.2 
" clip-path="url(#p8842c58ba5)" style="fill: none; stroke-dasharray: 0.8,1.32; stroke-dashoffset: 0; stroke: #b0b0b0; stroke-width: 0.8"/>
     </g>
     <g id="line2d_10">
      <g>
       <use xlink:href="#m259418d273" x="195.278125" y="170.28" style="stroke: #000000; stroke-width: 0.8"/>
      </g>
     </g>
    </g>
    <g id="text_1">
     <!-- Tempo [s] -->
     <g transform="translate(87.098438 188.878438)scale(0.1 -0.1)">
      <defs>
       <path id="DejaVuSans-54" d="M -19 4666 
L 3928 4666 
L 3928 4134 
L 2272 4134 
L 2272 0 
L 1638 0 
L 1638 4134 
L -19 4134 
L -19 4666 
z
" transform="scale(0.015625)"/>
       <path id="DejaVuSans-65" d="M 3597 1894 
L 3597 1613 
L 953 1613 
Q 991 1019 1311 708 
Q 1631 397 2203 397 
Q 2534 397 2845 478 
Q 3156 559 3463 722 
L 3463 178 
Q 3153 47 2828 -22 
Q 2503 -91 2169 -91 
Q 1331 -91 842 396 
Q 353 884 353 1716 
Q 353 2575 817 3079 
Q 1281 3584 2069 3584 
Q 2775 3584 3186 3129 
Q 3597 2675 3597 1894 
z
M 3022 2063 
Q 3016 2534 2758 2815 
Q 2500 3097 2075 3097 
Q 1594 3097 1305 2825 
Q 1016 2553 972 2059 
L 3022 2063 
z
" transform="scale(0.015625)"/>
       <path id="DejaVuSans-6d" d="M 3328 2828 
Q 3544 3216 3844 3400 
Q 4144 3584 4550 3584 
Q 5097 3584 5394 3201 
Q 5691 2819 5691 2113 
L 5691 0 
L 5113 0 
L 5113 2094 
Q 5113 2597 4934 2840 
Q 4756 3084 4391 3084 
Q 3944 3084 3684 2787 
Q 3425 2491 3425 1978 
L 3425 0 
L 2847 0 
L 2847 2094 
Q 2847 2600 2669 2842 
Q 2491 3084 2119 3084 
Q 1678 3084 1418 2786 
Q 1159 2488 1159 1978 
L 1159 0 
L 581 0 
L 581 3500 
L 1159 3500 
L 1159 2956 
Q 1356 3278 1631 3431 
Q 1906 3584 2284 3584 
Q 2666 3584 2933 3390 
Q 3200 3197 3328 2828 
z
" transform="scale(0.015625)"/>
       <path id="DejaVuSans-70" d="M 1159 525 
L 1159 -1331 
L 581 -1331 
L 581 3500 
L 1159 3500 
L 1159 2969 
Q 1341 3281 1617 3432 
Q 1894 3584 2278 3584 
Q 2916 3584 3314 3078 
Q 3713 2572 3713 1747 
Q 3713 922 3314 415 
Q 2916 -91 2278 -91 
Q 1894 -91 1617 61 
Q 1341 213 1159 525 
z
M 3116 1747 
Q 3116 2381 2855 2742 
Q 2594 3103 2138 3103 
Q 1681 3103 1420 2742 
Q 1159 2381 1159 1747 
Q 1159 1113 1420 752 
Q 1681 391 2138 391 
Q 2594 391 2855 752 
Q 3116 1113 3116 1747 
z
" transform="scale(0.015625)"/>
       <path id="DejaVuSans-6f" d="M 1959 3097 
Q 1497 3097 1228 2736 
Q 959 2375 959 1747 
Q 959 1119 1226 758 
Q 1494 397 1959 397 
Q 2419 397 2687 759 
Q 2956 1122 2956 1747 
Q 2956 2369 2687 2733 
Q 2419 3097 1959 3097 
z
M 1959 3584 
Q 2709 3584 3137 3096 
Q 3566 2609 3566 1747 
Q 3566 888 3137 398 
Q 2709 -91 1959 -91 
Q 1206 -91 779 398 
Q 353 888 353 1747 
Q 353 2609 779 3096 
Q 1206 3584 1959 3584 
z
" transform="scale(0.015625)"/>
       <path id="DejaVuSans-20" transform="scale(0.015625)"/>
       <path id="DejaVuSans-5b" d="M 550 4863 
L 1875 4863 
L 1875 4416 
L 1125 4416 
L 1125 -397 
L 1875 -397 
L 1875 -844 
L 550 -844 
L 550 4863 
z
" transform="scale(0.015625)"/>
       <path id="DejaVuSans-73" d="M 2834 3397 
L 2834 2853 
Q 2591 2978 2328 3040 
Q 2066 3103 1784 3103 
Q 1356 3103 1142 2972 
Q 928 2841 928 2578 
Q 928 2378 1081 2264 
Q 1234 2150 1697 2047 
L 1894 2003 
Q 2506 1872 2764 1633 
Q 3022 1394 3022 966 
Q 3022 478 2636 193 
Q 2250 -91 1575 -91 
Q 1294 -91 989 -36 
Q 684 19 347 128 
L 347 722 
Q 666 556 975 473 
Q 1284 391 1588 391 
Q 1994 391 2212 530 
Q 2431 669 2431 922 
Q 2431 1156 2273 1281 
Q 2116 1406 1581 1522 
L 1381 1569 
Q 847 1681 609 1914 
Q 372 2147 372 2553 
Q 372 3047 722 3315 
Q 1072 3584 1716 3584 
Q 2034 3584 2315 3537 
Q 2597 3491 2834 3397 
z
" transform="scale(0.015625)"/>
       <path id="DejaVuSans-5d" d="M 1947 4863 
L 1947 -844 
L 622 -844 
L 622 -397 
L 1369 -397 
L 1369 4416 
L 622 4416 
L 622 4863 
L 1947 4863 
z
" transform="scale(0.015625)"/>
      </defs>
      <use xlink:href="#DejaVuSans-54"/>
      <use xlink:href="#DejaVuSans-65" x="44.083984"/>
      <use xlink:href="#DejaVuSans-6d" x="105.607422"/>
      <use xlink:href="#DejaVuSans-70" x="203.019531"/>
      <use xlink:href="#DejaVuSans-6f" x="266.496094"/>
      <use xlink:href="#DejaVuSans-20" x="327.677734"/>
      <use xlink:href="#DejaVuSans-5b" x="359.464844"/>
      <use xlink:href="#DejaVuSans-73" x="398.478516"/>
      <use xlink:href="#DejaVuSans-5d" x="450.578125"/>
     </g>
    </g>
   </g>
   <g id="matplotlib.axis_2">
    <g id="ytick_1">
     <g id="line2d_11">
      <path d="M 27.878125 156.69 
L 195.278125 156.69 
" clip-path="url(#p8842c58ba5)" style="fill: none; stroke-dasharray: 0.8,1.32; stroke-dashoffset: 0; stroke: #b0b0b0; stroke-width: 0.8"/>
     </g>
     <g id="line2d_12">
      <defs>
       <path id="m6e66fd48e8" d="M 0 0 
L -3.5 0 
" style="stroke: #000000; stroke-width: 0.8"/>
      </defs>
      <g>
       <use xlink:href="#m6e66fd48e8" x="27.878125" y="156.69" style="stroke: #000000; stroke-width: 0.8"/>
      </g>
     </g>
    </g>
    <g id="ytick_2">
     <g id="line2d_13">
      <path d="M 27.878125 129.51 
L 195.278125 129.51 
" clip-path="url(#p8842c58ba5)" style="fill: none; stroke-dasharray: 0.8,1.32; stroke-dashoffset: 0; stroke: #b0b0b0; stroke-width: 0.8"/>
     </g>
     <g id="line2d_14">
      <g>
       <use xlink:href="#m6e66fd48e8" x="27.878125" y="129.51" style="stroke: #000000; stroke-width: 0.8"/>
      </g>
     </g>
    </g>
    <g id="ytick_3">
     <g id="line2d_15">
      <path d="M 27.878125 102.33 
L 195.278125 102.33 
" clip-path="url(#p8842c58ba5)" style="fill: none; stroke-dasharray: 0.8,1.32; stroke-dashoffset: 0; stroke: #b0b0b0; stroke-width: 0.8"/>
     </g>
     <g id="line2d_16">
      <g>
       <use xlink:href="#m6e66fd48e8" x="27.878125" y="102.33" style="stroke: #000000; stroke-width: 0.8"/>
      </g>
     </g>
    </g>
    <g id="ytick_4">
     <g id="line2d_17">
      <path d="M 27.878125 75.15 
L 195.278125 75.15 
" clip-path="url(#p8842c58ba5)" style="fill: none; stroke-dasharray: 0.8,1.32; stroke-dashoffset: 0; stroke: #b0b0b0; stroke-width: 0.8"/>
     </g>
     <g id="line2d_18">
      <g>
       <use xlink:href="#m6e66fd48e8" x="27.878125" y="75.15" style="stroke: #000000; stroke-width: 0.8"/>
      </g>
     </g>
    </g>
    <g id="ytick_5">
     <g id="line2d_19">
      <path d="M 27.878125 47.97 
L 195.278125 47.97 
" clip-path="url(#p8842c58ba5)" style="fill: none; stroke-dasharray: 0.8,1.32; stroke-dashoffset: 0; stroke: #b0b0b0; stroke-width: 0.8"/>
     </g>
     <g id="line2d_20">
      <g>
       <use xlink:href="#m6e66fd48e8" x="27.878125" y="47.97" style="stroke: #000000; stroke-width: 0.8"/>
      </g>
     </g>
    </g>
    <g id="ytick_6">
     <g id="line2d_21">
      <path d="M 27.878125 20.79 
L 195.278125 20.79 
" clip-path="url(#p8842c58ba5)" style="fill: none; stroke-dasharray: 0.8,1.32; stroke-dashoffset: 0; stroke: #b0b0b0; stroke-width: 0.8"/>
     </g>
     <g id="line2d_22">
      <g>
       <use xlink:href="#m6e66fd48e8" x="27.878125" y="20.79" style="stroke: #000000; stroke-width: 0.8"/>
      </g>
     </g>
    </g>
    <g id="text_2">
     <!-- Ampiezza [u.a.] -->
     <g transform="translate(14.798438 127.884531)rotate(-90)scale(0.1 -0.1)">
      <defs>
       <path id="DejaVuSans-41" d="M 2188 4044 
L 1331 1722 
L 3047 1722 
L 2188 4044 
z
M 1831 4666 
L 2547 4666 
L 4325 0 
L 3669 0 
L 3244 1197 
L 1141 1197 
L 716 0 
L 50 0 
L 1831 4666 
z
" transform="scale(0.015625)"/>
       <path id="DejaVuSans-69" d="M 603 3500 
L 1178 3500 
L 1178 0 
L 603 0 
L 603 3500 
z
M 603 4863 
L 1178 4863 
L 1178 4134 
L 603 4134 
L 603 4863 
z
" transform="scale(0.015625)"/>
       <path id="DejaVuSans-7a" d="M 353 3500 
L 3084 3500 
L 3084 2975 
L 922 459 
L 3084 459 
L 3084 0 
L 275 0 
L 275 525 
L 2438 3041 
L 353 3041 
L 353 3500 
z
" transform="scale(0.015625)"/>
       <path id="DejaVuSans-61" d="M 2194 1759 
Q 1497 1759 1228 1600 
Q 959 1441 959 1056 
Q 959 750 1161 570 
Q 1363 391 1709 391 
Q 2188 391 2477 730 
Q 2766 1069 2766 1631 
L 2766 1759 
L 2194 1759 
z
M 3341 1997 
L 3341 0 
L 2766 0 
L 2766 531 
Q 2569 213 2275 61 
Q 1981 -91 1556 -91 
Q 1019 -91 701 211 
Q 384 513 384 1019 
Q 384 1609 779 1909 
Q 1175 2209 1959 2209 
L 2766 2209 
L 2766 2266 
Q 2766 2663 2505 2880 
Q 2244 3097 1772 3097 
Q 1472 3097 1187 3025 
Q 903 2953 641 2809 
L 641 3341 
Q 956 3463 1253 3523 
Q 1550 3584 1831 3584 
Q 2591 3584 2966 3190 
Q 3341 2797 3341 1997 
z
" transform="scale(0.015625)"/>
       <path id="DejaVuSans-75" d="M 544 1381 
L 544 3500 
L 1119 3500 
L 1119 1403 
Q 1119 906 1312 657 
Q 1506 409 1894 409 
Q 2359 409 2629 706 
Q 2900 1003 2900 1516 
L 2900 3500 
L 3475 3500 
L 3475 0 
L 2900 0 
L 2900 538 
Q 2691 219 2414 64 
Q 2138 -91 1772 -91 
Q 1169 -91 856 284 
Q 544 659 544 1381 
z
M 1991 3584 
L 1991 3584 
z
" transform="scale(0.015625)"/>
       <path id="DejaVuSans-2e" d="M 684 794 
L 1344 794 
L 1344 0 
L 684 0 
L 684 794 
z
" transform="scale(0.015625)"/>
      </defs>
      <use xlink:href="#DejaVuSans-41"/>
      <use xlink:href="#DejaVuSans-6d" x="68.408203"/>
      <use xlink:href="#DejaVuSans-70" x="165.820312"/>
      <use xlink:href="#DejaVuSans-69" x="229.296875"/>
      <use xlink:href="#DejaVuSans-65" x="257.080078"/>
      <use xlink:href="#DejaVuSans-7a" x="318.603516"/>
      <use xlink:href="#DejaVuSans-7a" x="371.09375"/>
      <use xlink:href="#DejaVuSans-61" x="423.583984"/>
      <use xlink:href="#DejaVuSans-20" x="484.863281"/>
      <use xlink:href="#DejaVuSans-5b" x="516.650391"/>
      <use xlink:href="#DejaVuSans-75" x="555.664062"/>
      <use xlink:href="#DejaVuSans-2e" x="619.042969"/>
      <use xlink:href="#DejaVuSans-61" x="650.830078"/>
      <use xlink:href="#DejaVuSans-2e" x="712.109375"/>
      <use xlink:href="#DejaVuSans-5d" x="743.896484"/>
     </g>
    </g>
   </g>
   <g id="line2d_23">
    <path d="M 27.794425 73.964031 
L 28.547725 71.951198 
L 30.723925 66.626331 
L 30.891325 66.588186 
L 31.058725 66.830593 
L 31.309825 67.787869 
L 31.644625 70.446634 
L 32.063125 76.183925 
L 32.649025 87.811447 
L 33.904525 114.068825 
L 34.239325 117.533048 
L 34.490425 118.32741 
L 34.574125 118.215809 
L 34.741525 117.421097 
L 34.992625 114.830794 
L 35.411125 107.154526 
L 36.080725 89.085205 
L 37.085125 61.866404 
L 37.587325 53.542808 
L 37.922125 50.714901 
L 38.173225 50.082524 
L 38.340625 50.314111 
L 38.591725 51.548399 
L 38.926525 54.625105 
L 39.428725 61.975732 
L 40.014625 74.282841 
L 40.767925 95.319172 
L 41.772325 122.560969 
L 42.190825 128.5244 
L 42.441925 129.735295 
L 42.525625 129.700335 
L 42.693025 128.960916 
L 42.944125 126.21251 
L 43.362625 117.768343 
L 44.032225 98.24967 
L 44.952925 72.23423 
L 45.455125 63.187553 
L 45.789925 59.873913 
L 46.041025 58.854586 
L 46.208425 58.802067 
L 46.375825 59.272083 
L 46.626925 60.810727 
L 47.045425 65.321203 
L 47.547625 73.65028 
L 48.217225 89.305307 
L 49.137925 117.177426 
L 50.058625 144.321631 
L 50.477125 151.637183 
L 50.728225 153.614067 
L 50.895625 153.862385 
L 51.063025 153.280046 
L 51.314125 150.990965 
L 51.732625 144.245941 
L 52.485925 127.393231 
L 53.574025 98.041322 
L 54.578425 72.018494 
L 55.164325 62.014326 
L 55.582825 57.776523 
L 55.917625 56.3303 
L 56.085025 56.28168 
L 56.252425 56.763215 
L 56.503525 58.404256 
L 56.922025 63.341222 
L 57.591625 75.052644 
L 58.261225 86.067292 
L 58.596025 88.631426 
L 58.763425 88.761372 
L 58.930825 88.040478 
L 59.181925 85.355502 
L 59.600425 77.138683 
L 60.353725 55.984516 
L 61.190725 33.994916 
L 61.609225 27.603246 
L 61.860325 26.017806 
L 61.944025 25.862845 
L 62.027725 25.944651 
L 62.195125 26.676782 
L 62.446225 29.253593 
L 62.864725 36.732947 
L 63.534325 53.841129 
L 66.045325 121.510034 
L 67.133425 141.982625 
L 67.803025 151.349944 
L 68.305225 155.605209 
L 68.723725 157.543723 
L 69.142225 158.551866 
L 69.393325 158.808951 
L 69.644425 158.737152 
L 69.895525 158.311707 
L 70.230325 157.196653 
L 70.732525 154.458305 
L 71.653225 148.041182 
L 72.155425 143.167649 
L 72.573925 137.153404 
L 73.076125 126.208926 
L 73.662025 107.282205 
L 74.582725 67.62143 
L 75.252325 42.127809 
L 75.670825 32.464974 
L 76.005625 28.820941 
L 76.173025 28.239034 
L 76.256725 28.217741 
L 76.424125 28.641792 
L 76.675225 30.179911 
L 77.344825 36.75163 
L 77.763325 39.749095 
L 78.014425 40.291029 
L 78.181825 40.047859 
L 78.432925 38.929323 
L 79.521025 31.80489 
L 79.688425 31.694152 
L 79.855825 32.014336 
L 80.106925 33.256342 
L 80.441725 36.271926 
L 80.943925 43.307677 
L 83.622325 86.820321 
L 85.128925 106.657703 
L 85.463725 108.673211 
L 85.714825 109.067426 
L 85.882225 108.799083 
L 86.133325 107.664125 
L 86.551825 104.17085 
L 87.388825 94.325742 
L 88.225825 85.526496 
L 90.150925 68.228026 
L 91.657525 49.366426 
L 91.908625 48.73832 
L 92.076025 49.086897 
L 92.327125 50.726128 
L 92.661925 54.789738 
L 93.164125 63.85273 
L 94.838125 100.469955 
L 96.009925 125.62556 
L 96.428425 130.489962 
L 96.679525 131.610754 
L 96.763225 131.67042 
L 96.930625 131.289831 
L 97.181725 129.459402 
L 97.516525 124.989905 
L 98.186125 112.037707 
L 98.939425 98.624365 
L 99.441625 93.257589 
L 99.776425 91.792948 
L 99.943825 91.695954 
L 100.111225 92.064909 
L 100.362325 93.33863 
L 100.864525 97.558843 
L 101.534125 102.985356 
L 101.868925 104.312986 
L 102.036325 104.433326 
L 102.203725 104.149334 
L 102.454825 102.952769 
L 102.789625 100.054516 
L 103.375525 92.584458 
L 104.714725 75.193272 
L 105.216925 71.358829 
L 105.551725 69.987104 
L 105.802825 69.683023 
L 105.970225 69.848128 
L 106.221325 70.711318 
L 106.472425 72.368266 
L 106.807225 76.039606 
L 107.225725 83.011446 
L 107.895325 98.959906 
L 109.067125 127.583854 
L 109.569325 134.952765 
L 109.904125 137.549498 
L 110.155225 138.35431 
L 110.322625 138.329616 
L 110.490025 137.928392 
L 110.741125 136.582651 
L 111.075925 133.462844 
L 111.578125 126.144974 
L 112.331425 110.906326 
L 113.335825 91.790315 
L 114.172825 80.315486 
L 114.675025 76.070497 
L 115.009825 74.842275 
L 115.260925 74.557877 
L 115.679425 74.431919 
L 115.846825 74.178463 
L 116.097925 73.267136 
L 116.432725 70.790753 
L 116.934925 64.881639 
L 117.688225 56.048402 
L 118.106725 53.413098 
L 118.441525 52.558802 
L 118.692625 52.376209 
L 118.943725 52.466752 
L 119.362225 52.929958 
L 119.780725 53.708032 
L 120.199225 55.002712 
L 120.534025 56.743656 
L 120.952525 60.30448 
L 121.454725 66.742402 
L 122.124325 78.302516 
L 122.961325 97.242301 
L 125.221225 153.504265 
L 125.639725 157.860645 
L 125.890825 159.00615 
L 126.058225 159.136569 
L 126.225625 158.754708 
L 126.476725 157.237686 
L 126.811525 153.603843 
L 127.397425 144.138068 
L 128.401825 123.637341 
L 129.155125 103.170881 
L 130.996525 48.91714 
L 131.415025 42.859526 
L 131.749825 40.540867 
L 132.000925 40.100716 
L 132.168325 40.352688 
L 132.419425 41.438429 
L 132.837925 44.708038 
L 133.507525 52.40379 
L 134.177125 59.666039 
L 134.511925 61.176741 
L 134.595625 61.215811 
L 134.763025 60.848916 
L 135.014125 59.144442 
L 135.348925 54.959373 
L 135.934825 43.920553 
L 137.106625 20.594471 
L 137.525125 16.676545 
L 137.776225 16.027558 
L 137.943625 16.251446 
L 138.111025 16.935119 
L 138.445825 19.745766 
L 138.864325 25.757047 
L 139.366525 36.931212 
L 139.952425 55.673313 
L 140.789425 91.289168 
L 141.877525 137.024793 
L 142.379725 150.575634 
L 142.714525 155.316305 
L 142.965625 156.55963 
L 143.049325 156.568545 
L 143.216725 156.044386 
L 143.467825 154.095729 
L 143.886325 148.551382 
L 144.555925 136.329241 
L 146.397325 100.671938 
L 147.066925 92.663219 
L 147.820225 86.487444 
L 149.159425 77.587374 
L 149.410525 77.015192 
L 149.577925 77.08906 
L 149.745325 77.561497 
L 149.996425 79.220934 
L 150.331225 83.226081 
L 150.833425 92.916662 
L 152.507425 129.701951 
L 152.842225 132.478542 
L 153.093325 133.247531 
L 153.177025 133.263361 
L 153.344425 132.95568 
L 153.595525 131.669516 
L 153.930325 128.610094 
L 154.432525 121.323362 
L 155.185825 106.143009 
L 155.939125 92.373832 
L 156.273925 89.035804 
L 156.525025 88.161681 
L 156.608725 88.196913 
L 156.776125 88.763616 
L 157.027225 90.83396 
L 157.362025 95.687138 
L 157.864225 106.736135 
L 158.784925 133.316713 
L 159.705625 158.340474 
L 160.124125 165.17735 
L 160.375225 166.843514 
L 160.458925 166.931492 
L 160.542625 166.777611 
L 160.710025 165.743103 
L 160.961125 162.406069 
L 161.379625 152.798241 
L 162.049225 130.48837 
L 163.053625 96.984638 
L 163.723225 81.794658 
L 164.309125 73.306534 
L 165.732025 56.688903 
L 167.489725 29.696638 
L 168.243025 23.381939 
L 168.828925 19.708093 
L 169.080025 18.906232 
L 169.247425 18.845122 
L 169.414825 19.27351 
L 169.665925 21.012909 
L 170.000725 25.623603 
L 170.419225 34.984145 
L 171.088825 56.16519 
L 173.097625 124.559798 
L 173.432425 129.327309 
L 173.683525 130.366145 
L 173.767225 130.237934 
L 173.934625 129.272454 
L 174.185725 126.140754 
L 174.604225 117.412747 
L 175.608625 88.872863 
L 176.194525 75.374315 
L 176.613025 70.273085 
L 176.864125 69.514347 
L 177.031525 70.024131 
L 177.282625 72.302492 
L 177.617425 77.969857 
L 178.203325 93.108151 
L 179.040325 115.052175 
L 179.458825 120.977144 
L 179.709925 122.463682 
L 179.877325 122.660906 
L 180.044725 122.395306 
L 180.295825 121.283626 
L 180.881725 117.299175 
L 183.057925 102.006635 
L 183.727525 99.156706 
L 184.731925 95.28817 
L 185.401525 91.592485 
L 185.903725 87.7534 
L 186.657025 79.975426 
L 187.410325 72.575011 
L 187.828825 70.24749 
L 187.996225 69.89861 
L 188.163625 69.997913 
L 188.331025 70.54728 
L 188.582125 72.236889 
L 189.000625 77.046499 
L 190.423525 95.699363 
L 190.925725 99.064058 
L 191.260525 99.957772 
L 191.427925 99.940527 
L 191.595325 99.581936 
L 191.846425 98.320787 
L 192.181225 95.325994 
L 192.683425 88.161581 
L 194.273725 62.89904 
L 194.608525 61.37825 
L 194.775925 61.377323 
L 194.943325 61.835511 
L 195.194425 63.435436 
L 195.361825 65.012765 
L 195.361825 65.012765 
" clip-path="url(#p8842c58ba5)" style="fill: none; stroke: #ff0000; stroke-width: 1.5; stroke-linecap: square"/>
   </g>
   <g id="patch_3">
    <path d="M 27.878125 170.28 
L 27.878125 7.2 
" style="fill: none; stroke: #000000; stroke-width: 0.8; stroke-linejoin: miter; stroke-linecap: square"/>
   </g>
   <g id="patch_4">
    <path d="M 195.278125 170.28 
L 195.278125 7.2 
" style="fill: none; stroke: #000000; stroke-width: 0.8; stroke-linejoin: miter; stroke-linecap: square"/>
   </g>
   <g id="patch_5">
    <path d="M 27.878125 170.28 
L 195.278125 170.28 
" style="fill: none; stroke: #000000; stroke-width: 0.8; stroke-linejoin: miter; stroke-linecap: square"/>
   </g>
   <g id="patch_6">
    <path d="M 27.878125 7.2 
L 195.278125 7.2 
" style="fill: none; stroke: #000000; stroke-width: 0.8; stroke-linejoin: miter; stroke-linecap: square"/>
   </g>
  </g>
 </g>
 <defs>
  <clipPath id="p8842c58ba5">
   <rect x="27.878125" y="7.2" width="167.4" height="163.08"/>
  </clipPath>
 </defs>
</svg>
