<?xml version="1.0" encoding="utf-8" standalone="no"?>
<!DOCTYPE svg PUBLIC "-//W3C//DTD SVG 1.1//EN"
  "http://www.w3.org/Graphics/SVG/1.1/DTD/svg11.dtd">
<svg xmlns:xlink="http://www.w3.org/1999/xlink" width="360.978125pt" height="276.578125pt" viewBox="0 0 360.978125 276.578125" xmlns="http://www.w3.org/2000/svg" version="1.1">
 <metadata>
  <rdf:RDF xmlns:dc="http://purl.org/dc/elements/1.1/" xmlns:cc="http://creativecommons.org/ns#" xmlns:rdf="http://www.w3.org/1999/02/22-rdf-syntax-ns#">
   <cc:Work>
    <dc:type rdf:resource="http://purl.org/dc/dcmitype/StillImage"/>
    <dc:date>2022-09-10T11:13:20.729324</dc:date>
    <dc:format>image/svg+xml</dc:format>
    <dc:creator>
     <cc:Agent>
      <dc:title>Matplotlib v3.5.1, https://matplotlib.org/</dc:title>
     </cc:Agent>
    </dc:creator>
   </cc:Work>
  </rdf:RDF>
 </metadata>
 <defs>
  <style type="text/css">*{stroke-linejoin: round; stroke-linecap: butt}</style>
 </defs>
 <g id="figure_1">
  <g id="patch_1">
   <path d="M 0 276.578125 
L 360.978125 276.578125 
L 360.978125 0 
L 0 0 
L 0 276.578125 
z
" style="fill: none"/>
  </g>
  <g id="axes_1">
   <g id="patch_2">
    <path d="M 51.378125 237.6 
L 353.778125 237.6 
L 353.778125 7.2 
L 51.378125 7.2 
z
" style="fill: #ffffff"/>
   </g>
   <g id="patch_3">
    <path d="M 65.12358 46566.836419 
L 65.12358 17.672727 
L 70.621761 17.672727 
L 70.621761 71.071562 
L 76.119943 71.071562 
L 76.119943 83.394955 
L 81.618125 83.394955 
L 81.618125 92.449829 
L 87.116307 92.449829 
L 87.116307 98.850004 
L 92.614489 98.850004 
L 92.614489 103.831078 
L 98.11267 103.831078 
L 98.11267 109.368397 
L 103.610852 109.368397 
L 103.610852 111.878272 
L 109.109034 111.878272 
L 109.109034 113.621838 
L 114.607216 113.621838 
L 114.607216 118.178963 
L 120.105398 118.178963 
L 120.105398 123.592021 
L 125.60358 123.592021 
L 125.60358 124.197939 
L 131.101761 124.197939 
L 131.101761 128.731077 
L 136.599943 128.731077 
L 136.599943 132.25636 
L 142.098125 132.25636 
L 142.098125 133.978757 
L 147.596307 133.978757 
L 147.596307 139.717081 
L 153.094489 139.717081 
L 153.094489 142.563383 
L 158.59267 142.563383 
L 158.59267 142.871972 
L 164.090852 142.871972 
L 164.090852 151.208396 
L 169.589034 151.208396 
L 169.589034 157.812129 
L 175.087216 157.812129 
L 175.087216 154.793408 
L 180.585398 154.793408 
L 180.585398 158.472891 
L 186.08358 158.472891 
L 186.08358 171.156417 
L 191.581761 171.156417 
L 191.581761 176.962412 
L 197.079943 176.962412 
L 197.079943 175.344598 
L 202.578125 175.344598 
L 202.578125 173.8513 
L 208.076307 173.8513 
L 208.076307 204.939538 
L 213.574489 204.939538 
L 213.574489 213.110621 
L 219.07267 213.110621 
L 219.07267 187.83731 
L 224.570852 187.83731 
L 224.570852 187.83731 
L 230.069034 187.83731 
L 230.069034 190.943318 
L 235.567216 190.943318 
L 235.567216 213.110621 
L 241.065398 213.110621 
L 241.065398 194.628245 
L 246.56358 194.628245 
L 246.56358 204.939538 
L 252.061761 204.939538 
L 252.061761 46566.836419 
L 257.559943 46566.836419 
L 257.559943 194.628245 
L 263.058125 194.628245 
L 263.058125 227.127273 
L 268.556307 227.127273 
L 268.556307 46566.836419 
L 274.054489 46566.836419 
L 274.054489 46566.836419 
L 279.55267 46566.836419 
L 279.55267 227.127273 
L 285.050852 227.127273 
L 285.050852 227.127273 
L 290.549034 227.127273 
L 290.549034 46566.836419 
L 296.047216 46566.836419 
L 296.047216 46566.836419 
L 301.545398 46566.836419 
L 301.545398 227.127273 
L 307.04358 227.127273 
L 307.04358 46566.836419 
L 312.541761 46566.836419 
L 312.541761 46566.836419 
L 318.039943 46566.836419 
L 318.039943 227.127273 
L 323.538125 227.127273 
L 323.538125 46566.836419 
L 329.036307 46566.836419 
L 329.036307 46566.836419 
L 334.534489 46566.836419 
L 334.534489 46566.836419 
L 340.03267 46566.836419 
L 340.03267 46566.836419 
L 334.534489 46566.836419 
L 334.534489 46566.836419 
L 329.036307 46566.836419 
L 329.036307 46566.836419 
L 323.538125 46566.836419 
L 323.538125 46566.836419 
L 318.039943 46566.836419 
L 318.039943 46566.836419 
L 312.541761 46566.836419 
L 312.541761 46566.836419 
L 307.04358 46566.836419 
L 307.04358 46566.836419 
L 301.545398 46566.836419 
L 301.545398 46566.836419 
L 296.047216 46566.836419 
L 296.047216 46566.836419 
L 290.549034 46566.836419 
L 290.549034 46566.836419 
L 285.050852 46566.836419 
L 285.050852 46566.836419 
L 279.55267 46566.836419 
L 279.55267 46566.836419 
L 274.054489 46566.836419 
L 274.054489 46566.836419 
L 268.556307 46566.836419 
L 268.556307 46566.836419 
L 263.058125 46566.836419 
L 263.058125 46566.836419 
L 257.559943 46566.836419 
L 257.559943 46566.836419 
L 252.061761 46566.836419 
L 252.061761 46566.836419 
L 246.56358 46566.836419 
L 246.56358 46566.836419 
L 241.065398 46566.836419 
L 241.065398 46566.836419 
L 235.567216 46566.836419 
L 235.567216 46566.836419 
L 230.069034 46566.836419 
L 230.069034 46566.836419 
L 224.570852 46566.836419 
L 224.570852 46566.836419 
L 219.07267 46566.836419 
L 219.07267 46566.836419 
L 213.574489 46566.836419 
L 213.574489 46566.836419 
L 208.076307 46566.836419 
L 208.076307 46566.836419 
L 202.578125 46566.836419 
L 202.578125 46566.836419 
L 197.079943 46566.836419 
L 197.079943 46566.836419 
L 191.581761 46566.836419 
L 191.581761 46566.836419 
L 186.08358 46566.836419 
L 186.08358 46566.836419 
L 180.585398 46566.836419 
L 180.585398 46566.836419 
L 175.087216 46566.836419 
L 175.087216 46566.836419 
L 169.589034 46566.836419 
L 169.589034 46566.836419 
L 164.090852 46566.836419 
L 164.090852 46566.836419 
L 158.59267 46566.836419 
L 158.59267 46566.836419 
L 153.094489 46566.836419 
L 153.094489 46566.836419 
L 147.596307 46566.836419 
L 147.596307 46566.836419 
L 142.098125 46566.836419 
L 142.098125 46566.836419 
L 136.599943 46566.836419 
L 136.599943 46566.836419 
L 131.101761 46566.836419 
L 131.101761 46566.836419 
L 125.60358 46566.836419 
L 125.60358 46566.836419 
L 120.105398 46566.836419 
L 120.105398 46566.836419 
L 114.607216 46566.836419 
L 114.607216 46566.836419 
L 109.109034 46566.836419 
L 109.109034 46566.836419 
L 103.610852 46566.836419 
L 103.610852 46566.836419 
L 98.11267 46566.836419 
L 98.11267 46566.836419 
L 92.614489 46566.836419 
L 92.614489 46566.836419 
L 87.116307 46566.836419 
L 87.116307 46566.836419 
L 81.618125 46566.836419 
L 81.618125 46566.836419 
L 76.119943 46566.836419 
L 76.119943 46566.836419 
L 70.621761 46566.836419 
L 70.621761 46566.836419 
z
" clip-path="url(#p672ef5eb1c)" style="fill: #0000ff; opacity: 0.2"/>
   </g>
   <g id="matplotlib.axis_1">
    <g id="xtick_1">
     <g id="line2d_1">
      <path d="M 67.866567 237.6 
L 67.866567 7.2 
" clip-path="url(#p672ef5eb1c)" style="fill: none; stroke-dasharray: 0.8,1.32; stroke-dashoffset: 0; stroke: #b0b0b0; stroke-width: 0.8"/>
     </g>
     <g id="line2d_2">
      <defs>
       <path id="mf3290581bc" d="M 0 0 
L 0 3.5 
" style="stroke: #000000; stroke-width: 0.8"/>
      </defs>
      <g>
       <use xlink:href="#mf3290581bc" x="67.866567" y="237.6" style="stroke: #000000; stroke-width: 0.8"/>
      </g>
     </g>
     <g id="text_1">
      <!-- 0 -->
      <g transform="translate(64.685317 252.198437)scale(0.1 -0.1)">
       <defs>
        <path id="DejaVuSans-30" d="M 2034 4250 
Q 1547 4250 1301 3770 
Q 1056 3291 1056 2328 
Q 1056 1369 1301 889 
Q 1547 409 2034 409 
Q 2525 409 2770 889 
Q 3016 1369 3016 2328 
Q 3016 3291 2770 3770 
Q 2525 4250 2034 4250 
z
M 2034 4750 
Q 2819 4750 3233 4129 
Q 3647 3509 3647 2328 
Q 3647 1150 3233 529 
Q 2819 -91 2034 -91 
Q 1250 -91 836 529 
Q 422 1150 422 2328 
Q 422 3509 836 4129 
Q 1250 4750 2034 4750 
z
" transform="scale(0.015625)"/>
       </defs>
       <use xlink:href="#DejaVuSans-30"/>
      </g>
     </g>
    </g>
    <g id="xtick_2">
     <g id="line2d_3">
      <path d="M 136.595365 237.6 
L 136.595365 7.2 
" clip-path="url(#p672ef5eb1c)" style="fill: none; stroke-dasharray: 0.8,1.32; stroke-dashoffset: 0; stroke: #b0b0b0; stroke-width: 0.8"/>
     </g>
     <g id="line2d_4">
      <g>
       <use xlink:href="#mf3290581bc" x="136.595365" y="237.6" style="stroke: #000000; stroke-width: 0.8"/>
      </g>
     </g>
     <g id="text_2">
      <!-- 0.05 -->
      <g transform="translate(125.462553 252.198437)scale(0.1 -0.1)">
       <defs>
        <path id="DejaVuSans-2e" d="M 684 794 
L 1344 794 
L 1344 0 
L 684 0 
L 684 794 
z
" transform="scale(0.015625)"/>
        <path id="DejaVuSans-35" d="M 691 4666 
L 3169 4666 
L 3169 4134 
L 1269 4134 
L 1269 2991 
Q 1406 3038 1543 3061 
Q 1681 3084 1819 3084 
Q 2600 3084 3056 2656 
Q 3513 2228 3513 1497 
Q 3513 744 3044 326 
Q 2575 -91 1722 -91 
Q 1428 -91 1123 -41 
Q 819 9 494 109 
L 494 744 
Q 775 591 1075 516 
Q 1375 441 1709 441 
Q 2250 441 2565 725 
Q 2881 1009 2881 1497 
Q 2881 1984 2565 2268 
Q 2250 2553 1709 2553 
Q 1456 2553 1204 2497 
Q 953 2441 691 2322 
L 691 4666 
z
" transform="scale(0.015625)"/>
       </defs>
       <use xlink:href="#DejaVuSans-30"/>
       <use xlink:href="#DejaVuSans-2e" x="63.623047"/>
       <use xlink:href="#DejaVuSans-30" x="95.410156"/>
       <use xlink:href="#DejaVuSans-35" x="159.033203"/>
      </g>
     </g>
    </g>
    <g id="xtick_3">
     <g id="line2d_5">
      <path d="M 205.324164 237.6 
L 205.324164 7.2 
" clip-path="url(#p672ef5eb1c)" style="fill: none; stroke-dasharray: 0.8,1.32; stroke-dashoffset: 0; stroke: #b0b0b0; stroke-width: 0.8"/>
     </g>
     <g id="line2d_6">
      <g>
       <use xlink:href="#mf3290581bc" x="205.324164" y="237.6" style="stroke: #000000; stroke-width: 0.8"/>
      </g>
     </g>
     <g id="text_3">
      <!-- 0.1 -->
      <g transform="translate(197.372602 252.198437)scale(0.1 -0.1)">
       <defs>
        <path id="DejaVuSans-31" d="M 794 531 
L 1825 531 
L 1825 4091 
L 703 3866 
L 703 4441 
L 1819 4666 
L 2450 4666 
L 2450 531 
L 3481 531 
L 3481 0 
L 794 0 
L 794 531 
z
" transform="scale(0.015625)"/>
       </defs>
       <use xlink:href="#DejaVuSans-30"/>
       <use xlink:href="#DejaVuSans-2e" x="63.623047"/>
       <use xlink:href="#DejaVuSans-31" x="95.410156"/>
      </g>
     </g>
    </g>
    <g id="xtick_4">
     <g id="line2d_7">
      <path d="M 274.052963 237.6 
L 274.052963 7.2 
" clip-path="url(#p672ef5eb1c)" style="fill: none; stroke-dasharray: 0.8,1.32; stroke-dashoffset: 0; stroke: #b0b0b0; stroke-width: 0.8"/>
     </g>
     <g id="line2d_8">
      <g>
       <use xlink:href="#mf3290581bc" x="274.052963" y="237.6" style="stroke: #000000; stroke-width: 0.8"/>
      </g>
     </g>
     <g id="text_4">
      <!-- 0.15 -->
      <g transform="translate(262.92015 252.198437)scale(0.1 -0.1)">
       <use xlink:href="#DejaVuSans-30"/>
       <use xlink:href="#DejaVuSans-2e" x="63.623047"/>
       <use xlink:href="#DejaVuSans-31" x="95.410156"/>
       <use xlink:href="#DejaVuSans-35" x="159.033203"/>
      </g>
     </g>
    </g>
    <g id="xtick_5">
     <g id="line2d_9">
      <path d="M 342.781761 237.6 
L 342.781761 7.2 
" clip-path="url(#p672ef5eb1c)" style="fill: none; stroke-dasharray: 0.8,1.32; stroke-dashoffset: 0; stroke: #b0b0b0; stroke-width: 0.8"/>
     </g>
     <g id="line2d_10">
      <g>
       <use xlink:href="#mf3290581bc" x="342.781761" y="237.6" style="stroke: #000000; stroke-width: 0.8"/>
      </g>
     </g>
     <g id="text_5">
      <!-- 0.2 -->
      <g transform="translate(334.830199 252.198437)scale(0.1 -0.1)">
       <defs>
        <path id="DejaVuSans-32" d="M 1228 531 
L 3431 531 
L 3431 0 
L 469 0 
L 469 531 
Q 828 903 1448 1529 
Q 2069 2156 2228 2338 
Q 2531 2678 2651 2914 
Q 2772 3150 2772 3378 
Q 2772 3750 2511 3984 
Q 2250 4219 1831 4219 
Q 1534 4219 1204 4116 
Q 875 4013 500 3803 
L 500 4441 
Q 881 4594 1212 4672 
Q 1544 4750 1819 4750 
Q 2544 4750 2975 4387 
Q 3406 4025 3406 3419 
Q 3406 3131 3298 2873 
Q 3191 2616 2906 2266 
Q 2828 2175 2409 1742 
Q 1991 1309 1228 531 
z
" transform="scale(0.015625)"/>
       </defs>
       <use xlink:href="#DejaVuSans-30"/>
       <use xlink:href="#DejaVuSans-2e" x="63.623047"/>
       <use xlink:href="#DejaVuSans-32" x="95.410156"/>
      </g>
     </g>
    </g>
    <g id="text_6">
     <!-- Intensità link $W_{ij}$ [u.a.] -->
     <g transform="translate(146.728125 266.278125)scale(0.1 -0.1)">
      <defs>
       <path id="DejaVuSans-49" d="M 628 4666 
L 1259 4666 
L 1259 0 
L 628 0 
L 628 4666 
z
" transform="scale(0.015625)"/>
       <path id="DejaVuSans-6e" d="M 3513 2113 
L 3513 0 
L 2938 0 
L 2938 2094 
Q 2938 2591 2744 2837 
Q 2550 3084 2163 3084 
Q 1697 3084 1428 2787 
Q 1159 2491 1159 1978 
L 1159 0 
L 581 0 
L 581 3500 
L 1159 3500 
L 1159 2956 
Q 1366 3272 1645 3428 
Q 1925 3584 2291 3584 
Q 2894 3584 3203 3211 
Q 3513 2838 3513 2113 
z
" transform="scale(0.015625)"/>
       <path id="DejaVuSans-74" d="M 1172 4494 
L 1172 3500 
L 2356 3500 
L 2356 3053 
L 1172 3053 
L 1172 1153 
Q 1172 725 1289 603 
Q 1406 481 1766 481 
L 2356 481 
L 2356 0 
L 1766 0 
Q 1100 0 847 248 
Q 594 497 594 1153 
L 594 3053 
L 172 3053 
L 172 3500 
L 594 3500 
L 594 4494 
L 1172 4494 
z
" transform="scale(0.015625)"/>
       <path id="DejaVuSans-65" d="M 3597 1894 
L 3597 1613 
L 953 1613 
Q 991 1019 1311 708 
Q 1631 397 2203 397 
Q 2534 397 2845 478 
Q 3156 559 3463 722 
L 3463 178 
Q 3153 47 2828 -22 
Q 2503 -91 2169 -91 
Q 1331 -91 842 396 
Q 353 884 353 1716 
Q 353 2575 817 3079 
Q 1281 3584 2069 3584 
Q 2775 3584 3186 3129 
Q 3597 2675 3597 1894 
z
M 3022 2063 
Q 3016 2534 2758 2815 
Q 2500 3097 2075 3097 
Q 1594 3097 1305 2825 
Q 1016 2553 972 2059 
L 3022 2063 
z
" transform="scale(0.015625)"/>
       <path id="DejaVuSans-73" d="M 2834 3397 
L 2834 2853 
Q 2591 2978 2328 3040 
Q 2066 3103 1784 3103 
Q 1356 3103 1142 2972 
Q 928 2841 928 2578 
Q 928 2378 1081 2264 
Q 1234 2150 1697 2047 
L 1894 2003 
Q 2506 1872 2764 1633 
Q 3022 1394 3022 966 
Q 3022 478 2636 193 
Q 2250 -91 1575 -91 
Q 1294 -91 989 -36 
Q 684 19 347 128 
L 347 722 
Q 666 556 975 473 
Q 1284 391 1588 391 
Q 1994 391 2212 530 
Q 2431 669 2431 922 
Q 2431 1156 2273 1281 
Q 2116 1406 1581 1522 
L 1381 1569 
Q 847 1681 609 1914 
Q 372 2147 372 2553 
Q 372 3047 722 3315 
Q 1072 3584 1716 3584 
Q 2034 3584 2315 3537 
Q 2597 3491 2834 3397 
z
" transform="scale(0.015625)"/>
       <path id="DejaVuSans-69" d="M 603 3500 
L 1178 3500 
L 1178 0 
L 603 0 
L 603 3500 
z
M 603 4863 
L 1178 4863 
L 1178 4134 
L 603 4134 
L 603 4863 
z
" transform="scale(0.015625)"/>
       <path id="DejaVuSans-e0" d="M 2194 1759 
Q 1497 1759 1228 1600 
Q 959 1441 959 1056 
Q 959 750 1161 570 
Q 1363 391 1709 391 
Q 2188 391 2477 730 
Q 2766 1069 2766 1631 
L 2766 1759 
L 2194 1759 
z
M 3341 1997 
L 3341 0 
L 2766 0 
L 2766 531 
Q 2569 213 2275 61 
Q 1981 -91 1556 -91 
Q 1019 -91 701 211 
Q 384 513 384 1019 
Q 384 1609 779 1909 
Q 1175 2209 1959 2209 
L 2766 2209 
L 2766 2266 
Q 2766 2663 2505 2880 
Q 2244 3097 1772 3097 
Q 1472 3097 1187 3025 
Q 903 2953 641 2809 
L 641 3341 
Q 956 3463 1253 3523 
Q 1550 3584 1831 3584 
Q 2591 3584 2966 3190 
Q 3341 2797 3341 1997 
z
M 1403 5119 
L 2284 3950 
L 1806 3950 
L 788 5119 
L 1403 5119 
z
" transform="scale(0.015625)"/>
       <path id="DejaVuSans-20" transform="scale(0.015625)"/>
       <path id="DejaVuSans-6c" d="M 603 4863 
L 1178 4863 
L 1178 0 
L 603 0 
L 603 4863 
z
" transform="scale(0.015625)"/>
       <path id="DejaVuSans-6b" d="M 581 4863 
L 1159 4863 
L 1159 1991 
L 2875 3500 
L 3609 3500 
L 1753 1863 
L 3688 0 
L 2938 0 
L 1159 1709 
L 1159 0 
L 581 0 
L 581 4863 
z
" transform="scale(0.015625)"/>
       <path id="DejaVuSans-Oblique-57" d="M 616 4666 
L 1228 4666 
L 1453 697 
L 3213 4666 
L 3916 4666 
L 4147 697 
L 5888 4666 
L 6528 4666 
L 4453 0 
L 3659 0 
L 3444 3891 
L 1697 0 
L 903 0 
L 616 4666 
z
" transform="scale(0.015625)"/>
       <path id="DejaVuSans-Oblique-69" d="M 1172 4863 
L 1747 4863 
L 1606 4134 
L 1031 4134 
L 1172 4863 
z
M 909 3500 
L 1484 3500 
L 800 0 
L 225 0 
L 909 3500 
z
" transform="scale(0.015625)"/>
       <path id="DejaVuSans-Oblique-6a" d="M 928 3500 
L 1503 3500 
L 813 -63 
L 809 -78 
Q 694 -675 544 -897 
Q 403 -1106 132 -1218 
Q -138 -1331 -506 -1331 
L -722 -1331 
L -628 -844 
L -481 -844 
Q -144 -844 -1 -703 
Q 141 -563 238 -63 
L 928 3500 
z
M 1197 4863 
L 1772 4863 
L 1631 4134 
L 1056 4134 
L 1197 4863 
z
" transform="scale(0.015625)"/>
       <path id="DejaVuSans-5b" d="M 550 4863 
L 1875 4863 
L 1875 4416 
L 1125 4416 
L 1125 -397 
L 1875 -397 
L 1875 -844 
L 550 -844 
L 550 4863 
z
" transform="scale(0.015625)"/>
       <path id="DejaVuSans-75" d="M 544 1381 
L 544 3500 
L 1119 3500 
L 1119 1403 
Q 1119 906 1312 657 
Q 1506 409 1894 409 
Q 2359 409 2629 706 
Q 2900 1003 2900 1516 
L 2900 3500 
L 3475 3500 
L 3475 0 
L 2900 0 
L 2900 538 
Q 2691 219 2414 64 
Q 2138 -91 1772 -91 
Q 1169 -91 856 284 
Q 544 659 544 1381 
z
M 1991 3584 
L 1991 3584 
z
" transform="scale(0.015625)"/>
       <path id="DejaVuSans-61" d="M 2194 1759 
Q 1497 1759 1228 1600 
Q 959 1441 959 1056 
Q 959 750 1161 570 
Q 1363 391 1709 391 
Q 2188 391 2477 730 
Q 2766 1069 2766 1631 
L 2766 1759 
L 2194 1759 
z
M 3341 1997 
L 3341 0 
L 2766 0 
L 2766 531 
Q 2569 213 2275 61 
Q 1981 -91 1556 -91 
Q 1019 -91 701 211 
Q 384 513 384 1019 
Q 384 1609 779 1909 
Q 1175 2209 1959 2209 
L 2766 2209 
L 2766 2266 
Q 2766 2663 2505 2880 
Q 2244 3097 1772 3097 
Q 1472 3097 1187 3025 
Q 903 2953 641 2809 
L 641 3341 
Q 956 3463 1253 3523 
Q 1550 3584 1831 3584 
Q 2591 3584 2966 3190 
Q 3341 2797 3341 1997 
z
" transform="scale(0.015625)"/>
       <path id="DejaVuSans-5d" d="M 1947 4863 
L 1947 -844 
L 622 -844 
L 622 -397 
L 1369 -397 
L 1369 4416 
L 622 4416 
L 622 4863 
L 1947 4863 
z
" transform="scale(0.015625)"/>
      </defs>
      <use xlink:href="#DejaVuSans-49" transform="translate(0 0.015625)"/>
      <use xlink:href="#DejaVuSans-6e" transform="translate(29.492188 0.015625)"/>
      <use xlink:href="#DejaVuSans-74" transform="translate(92.871094 0.015625)"/>
      <use xlink:href="#DejaVuSans-65" transform="translate(132.080078 0.015625)"/>
      <use xlink:href="#DejaVuSans-6e" transform="translate(193.603516 0.015625)"/>
      <use xlink:href="#DejaVuSans-73" transform="translate(256.982422 0.015625)"/>
      <use xlink:href="#DejaVuSans-69" transform="translate(309.082031 0.015625)"/>
      <use xlink:href="#DejaVuSans-74" transform="translate(336.865234 0.015625)"/>
      <use xlink:href="#DejaVuSans-e0" transform="translate(376.074219 0.015625)"/>
      <use xlink:href="#DejaVuSans-20" transform="translate(437.353516 0.015625)"/>
      <use xlink:href="#DejaVuSans-6c" transform="translate(469.140625 0.015625)"/>
      <use xlink:href="#DejaVuSans-69" transform="translate(496.923828 0.015625)"/>
      <use xlink:href="#DejaVuSans-6e" transform="translate(524.707031 0.015625)"/>
      <use xlink:href="#DejaVuSans-6b" transform="translate(588.085938 0.015625)"/>
      <use xlink:href="#DejaVuSans-20" transform="translate(645.996094 0.015625)"/>
      <use xlink:href="#DejaVuSans-Oblique-57" transform="translate(677.783203 0.015625)"/>
      <use xlink:href="#DejaVuSans-Oblique-69" transform="translate(776.660156 -16.390625)scale(0.7)"/>
      <use xlink:href="#DejaVuSans-Oblique-6a" transform="translate(796.108398 -16.390625)scale(0.7)"/>
      <use xlink:href="#DejaVuSans-20" transform="translate(818.291016 0.015625)"/>
      <use xlink:href="#DejaVuSans-5b" transform="translate(850.078125 0.015625)"/>
      <use xlink:href="#DejaVuSans-75" transform="translate(889.091797 0.015625)"/>
      <use xlink:href="#DejaVuSans-2e" transform="translate(952.470703 0.015625)"/>
      <use xlink:href="#DejaVuSans-61" transform="translate(984.257812 0.015625)"/>
      <use xlink:href="#DejaVuSans-2e" transform="translate(1045.537109 0.015625)"/>
      <use xlink:href="#DejaVuSans-5d" transform="translate(1077.324219 0.015625)"/>
     </g>
    </g>
   </g>
   <g id="matplotlib.axis_2">
    <g id="ytick_1">
     <g id="line2d_11">
      <path d="M 51.378125 199.23637 
L 353.778125 199.23637 
" clip-path="url(#p672ef5eb1c)" style="fill: none; stroke-dasharray: 0.8,1.32; stroke-dashoffset: 0; stroke: #b0b0b0; stroke-width: 0.8"/>
     </g>
     <g id="line2d_12">
      <defs>
       <path id="m633ac4d94f" d="M 0 0 
L -3.5 0 
" style="stroke: #000000; stroke-width: 0.8"/>
      </defs>
      <g>
       <use xlink:href="#m633ac4d94f" x="51.378125" y="199.23637" style="stroke: #000000; stroke-width: 0.8"/>
      </g>
     </g>
     <g id="text_7">
      <!-- $\mathdefault{10^{-2}}$ -->
      <g transform="translate(20.878125 203.035589)scale(0.1 -0.1)">
       <defs>
        <path id="DejaVuSans-2212" d="M 678 2272 
L 4684 2272 
L 4684 1741 
L 678 1741 
L 678 2272 
z
" transform="scale(0.015625)"/>
       </defs>
       <use xlink:href="#DejaVuSans-31" transform="translate(0 0.765625)"/>
       <use xlink:href="#DejaVuSans-30" transform="translate(63.623047 0.765625)"/>
       <use xlink:href="#DejaVuSans-2212" transform="translate(128.203125 39.046875)scale(0.7)"/>
       <use xlink:href="#DejaVuSans-32" transform="translate(186.855469 39.046875)scale(0.7)"/>
      </g>
     </g>
    </g>
    <g id="ytick_2">
     <g id="line2d_13">
      <path d="M 51.378125 152.775849 
L 353.778125 152.775849 
" clip-path="url(#p672ef5eb1c)" style="fill: none; stroke-dasharray: 0.8,1.32; stroke-dashoffset: 0; stroke: #b0b0b0; stroke-width: 0.8"/>
     </g>
     <g id="line2d_14">
      <g>
       <use xlink:href="#m633ac4d94f" x="51.378125" y="152.775849" style="stroke: #000000; stroke-width: 0.8"/>
      </g>
     </g>
     <g id="text_8">
      <!-- $\mathdefault{10^{-1}}$ -->
      <g transform="translate(20.878125 156.575068)scale(0.1 -0.1)">
       <use xlink:href="#DejaVuSans-31" transform="translate(0 0.684375)"/>
       <use xlink:href="#DejaVuSans-30" transform="translate(63.623047 0.684375)"/>
       <use xlink:href="#DejaVuSans-2212" transform="translate(128.203125 38.965625)scale(0.7)"/>
       <use xlink:href="#DejaVuSans-31" transform="translate(186.855469 38.965625)scale(0.7)"/>
      </g>
     </g>
    </g>
    <g id="ytick_3">
     <g id="line2d_15">
      <path d="M 51.378125 106.315328 
L 353.778125 106.315328 
" clip-path="url(#p672ef5eb1c)" style="fill: none; stroke-dasharray: 0.8,1.32; stroke-dashoffset: 0; stroke: #b0b0b0; stroke-width: 0.8"/>
     </g>
     <g id="line2d_16">
      <g>
       <use xlink:href="#m633ac4d94f" x="51.378125" y="106.315328" style="stroke: #000000; stroke-width: 0.8"/>
      </g>
     </g>
     <g id="text_9">
      <!-- $\mathdefault{10^{0}}$ -->
      <g transform="translate(26.778125 110.114547)scale(0.1 -0.1)">
       <use xlink:href="#DejaVuSans-31" transform="translate(0 0.765625)"/>
       <use xlink:href="#DejaVuSans-30" transform="translate(63.623047 0.765625)"/>
       <use xlink:href="#DejaVuSans-30" transform="translate(128.203125 39.046875)scale(0.7)"/>
      </g>
     </g>
    </g>
    <g id="ytick_4">
     <g id="line2d_17">
      <path d="M 51.378125 59.854807 
L 353.778125 59.854807 
" clip-path="url(#p672ef5eb1c)" style="fill: none; stroke-dasharray: 0.8,1.32; stroke-dashoffset: 0; stroke: #b0b0b0; stroke-width: 0.8"/>
     </g>
     <g id="line2d_18">
      <g>
       <use xlink:href="#m633ac4d94f" x="51.378125" y="59.854807" style="stroke: #000000; stroke-width: 0.8"/>
      </g>
     </g>
     <g id="text_10">
      <!-- $\mathdefault{10^{1}}$ -->
      <g transform="translate(26.778125 63.654026)scale(0.1 -0.1)">
       <use xlink:href="#DejaVuSans-31" transform="translate(0 0.684375)"/>
       <use xlink:href="#DejaVuSans-30" transform="translate(63.623047 0.684375)"/>
       <use xlink:href="#DejaVuSans-31" transform="translate(128.203125 38.965625)scale(0.7)"/>
      </g>
     </g>
    </g>
    <g id="ytick_5">
     <g id="line2d_19">
      <path d="M 51.378125 13.394286 
L 353.778125 13.394286 
" clip-path="url(#p672ef5eb1c)" style="fill: none; stroke-dasharray: 0.8,1.32; stroke-dashoffset: 0; stroke: #b0b0b0; stroke-width: 0.8"/>
     </g>
     <g id="line2d_20">
      <g>
       <use xlink:href="#m633ac4d94f" x="51.378125" y="13.394286" style="stroke: #000000; stroke-width: 0.8"/>
      </g>
     </g>
     <g id="text_11">
      <!-- $\mathdefault{10^{2}}$ -->
      <g transform="translate(26.778125 17.193505)scale(0.1 -0.1)">
       <use xlink:href="#DejaVuSans-31" transform="translate(0 0.765625)"/>
       <use xlink:href="#DejaVuSans-30" transform="translate(63.623047 0.765625)"/>
       <use xlink:href="#DejaVuSans-32" transform="translate(128.203125 39.046875)scale(0.7)"/>
      </g>
     </g>
    </g>
    <g id="ytick_6">
     <g id="line2d_21">
      <defs>
       <path id="m6e17d99614" d="M 0 0 
L -2 0 
" style="stroke: #000000; stroke-width: 0.6"/>
      </defs>
      <g>
       <use xlink:href="#m6e17d99614" x="51.378125" y="231.710881" style="stroke: #000000; stroke-width: 0.6"/>
      </g>
     </g>
    </g>
    <g id="ytick_7">
     <g id="line2d_22">
      <g>
       <use xlink:href="#m6e17d99614" x="51.378125" y="223.529589" style="stroke: #000000; stroke-width: 0.6"/>
      </g>
     </g>
    </g>
    <g id="ytick_8">
     <g id="line2d_23">
      <g>
       <use xlink:href="#m6e17d99614" x="51.378125" y="217.72487" style="stroke: #000000; stroke-width: 0.6"/>
      </g>
     </g>
    </g>
    <g id="ytick_9">
     <g id="line2d_24">
      <g>
       <use xlink:href="#m6e17d99614" x="51.378125" y="213.222381" style="stroke: #000000; stroke-width: 0.6"/>
      </g>
     </g>
    </g>
    <g id="ytick_10">
     <g id="line2d_25">
      <g>
       <use xlink:href="#m6e17d99614" x="51.378125" y="209.543579" style="stroke: #000000; stroke-width: 0.6"/>
      </g>
     </g>
    </g>
    <g id="ytick_11">
     <g id="line2d_26">
      <g>
       <use xlink:href="#m6e17d99614" x="51.378125" y="206.433196" style="stroke: #000000; stroke-width: 0.6"/>
      </g>
     </g>
    </g>
    <g id="ytick_12">
     <g id="line2d_27">
      <g>
       <use xlink:href="#m6e17d99614" x="51.378125" y="203.73886" style="stroke: #000000; stroke-width: 0.6"/>
      </g>
     </g>
    </g>
    <g id="ytick_13">
     <g id="line2d_28">
      <g>
       <use xlink:href="#m6e17d99614" x="51.378125" y="201.362287" style="stroke: #000000; stroke-width: 0.6"/>
      </g>
     </g>
    </g>
    <g id="ytick_14">
     <g id="line2d_29">
      <g>
       <use xlink:href="#m6e17d99614" x="51.378125" y="185.25036" style="stroke: #000000; stroke-width: 0.6"/>
      </g>
     </g>
    </g>
    <g id="ytick_15">
     <g id="line2d_30">
      <g>
       <use xlink:href="#m6e17d99614" x="51.378125" y="177.069068" style="stroke: #000000; stroke-width: 0.6"/>
      </g>
     </g>
    </g>
    <g id="ytick_16">
     <g id="line2d_31">
      <g>
       <use xlink:href="#m6e17d99614" x="51.378125" y="171.264349" style="stroke: #000000; stroke-width: 0.6"/>
      </g>
     </g>
    </g>
    <g id="ytick_17">
     <g id="line2d_32">
      <g>
       <use xlink:href="#m6e17d99614" x="51.378125" y="166.76186" style="stroke: #000000; stroke-width: 0.6"/>
      </g>
     </g>
    </g>
    <g id="ytick_18">
     <g id="line2d_33">
      <g>
       <use xlink:href="#m6e17d99614" x="51.378125" y="163.083058" style="stroke: #000000; stroke-width: 0.6"/>
      </g>
     </g>
    </g>
    <g id="ytick_19">
     <g id="line2d_34">
      <g>
       <use xlink:href="#m6e17d99614" x="51.378125" y="159.972675" style="stroke: #000000; stroke-width: 0.6"/>
      </g>
     </g>
    </g>
    <g id="ytick_20">
     <g id="line2d_35">
      <g>
       <use xlink:href="#m6e17d99614" x="51.378125" y="157.278339" style="stroke: #000000; stroke-width: 0.6"/>
      </g>
     </g>
    </g>
    <g id="ytick_21">
     <g id="line2d_36">
      <g>
       <use xlink:href="#m6e17d99614" x="51.378125" y="154.901766" style="stroke: #000000; stroke-width: 0.6"/>
      </g>
     </g>
    </g>
    <g id="ytick_22">
     <g id="line2d_37">
      <g>
       <use xlink:href="#m6e17d99614" x="51.378125" y="138.789839" style="stroke: #000000; stroke-width: 0.6"/>
      </g>
     </g>
    </g>
    <g id="ytick_23">
     <g id="line2d_38">
      <g>
       <use xlink:href="#m6e17d99614" x="51.378125" y="130.608547" style="stroke: #000000; stroke-width: 0.6"/>
      </g>
     </g>
    </g>
    <g id="ytick_24">
     <g id="line2d_39">
      <g>
       <use xlink:href="#m6e17d99614" x="51.378125" y="124.803828" style="stroke: #000000; stroke-width: 0.6"/>
      </g>
     </g>
    </g>
    <g id="ytick_25">
     <g id="line2d_40">
      <g>
       <use xlink:href="#m6e17d99614" x="51.378125" y="120.301338" style="stroke: #000000; stroke-width: 0.6"/>
      </g>
     </g>
    </g>
    <g id="ytick_26">
     <g id="line2d_41">
      <g>
       <use xlink:href="#m6e17d99614" x="51.378125" y="116.622536" style="stroke: #000000; stroke-width: 0.6"/>
      </g>
     </g>
    </g>
    <g id="ytick_27">
     <g id="line2d_42">
      <g>
       <use xlink:href="#m6e17d99614" x="51.378125" y="113.512154" style="stroke: #000000; stroke-width: 0.6"/>
      </g>
     </g>
    </g>
    <g id="ytick_28">
     <g id="line2d_43">
      <g>
       <use xlink:href="#m6e17d99614" x="51.378125" y="110.817818" style="stroke: #000000; stroke-width: 0.6"/>
      </g>
     </g>
    </g>
    <g id="ytick_29">
     <g id="line2d_44">
      <g>
       <use xlink:href="#m6e17d99614" x="51.378125" y="108.441245" style="stroke: #000000; stroke-width: 0.6"/>
      </g>
     </g>
    </g>
    <g id="ytick_30">
     <g id="line2d_45">
      <g>
       <use xlink:href="#m6e17d99614" x="51.378125" y="92.329318" style="stroke: #000000; stroke-width: 0.6"/>
      </g>
     </g>
    </g>
    <g id="ytick_31">
     <g id="line2d_46">
      <g>
       <use xlink:href="#m6e17d99614" x="51.378125" y="84.148026" style="stroke: #000000; stroke-width: 0.6"/>
      </g>
     </g>
    </g>
    <g id="ytick_32">
     <g id="line2d_47">
      <g>
       <use xlink:href="#m6e17d99614" x="51.378125" y="78.343307" style="stroke: #000000; stroke-width: 0.6"/>
      </g>
     </g>
    </g>
    <g id="ytick_33">
     <g id="line2d_48">
      <g>
       <use xlink:href="#m6e17d99614" x="51.378125" y="73.840817" style="stroke: #000000; stroke-width: 0.6"/>
      </g>
     </g>
    </g>
    <g id="ytick_34">
     <g id="line2d_49">
      <g>
       <use xlink:href="#m6e17d99614" x="51.378125" y="70.162015" style="stroke: #000000; stroke-width: 0.6"/>
      </g>
     </g>
    </g>
    <g id="ytick_35">
     <g id="line2d_50">
      <g>
       <use xlink:href="#m6e17d99614" x="51.378125" y="67.051633" style="stroke: #000000; stroke-width: 0.6"/>
      </g>
     </g>
    </g>
    <g id="ytick_36">
     <g id="line2d_51">
      <g>
       <use xlink:href="#m6e17d99614" x="51.378125" y="64.357297" style="stroke: #000000; stroke-width: 0.6"/>
      </g>
     </g>
    </g>
    <g id="ytick_37">
     <g id="line2d_52">
      <g>
       <use xlink:href="#m6e17d99614" x="51.378125" y="61.980724" style="stroke: #000000; stroke-width: 0.6"/>
      </g>
     </g>
    </g>
    <g id="ytick_38">
     <g id="line2d_53">
      <g>
       <use xlink:href="#m6e17d99614" x="51.378125" y="45.868796" style="stroke: #000000; stroke-width: 0.6"/>
      </g>
     </g>
    </g>
    <g id="ytick_39">
     <g id="line2d_54">
      <g>
       <use xlink:href="#m6e17d99614" x="51.378125" y="37.687505" style="stroke: #000000; stroke-width: 0.6"/>
      </g>
     </g>
    </g>
    <g id="ytick_40">
     <g id="line2d_55">
      <g>
       <use xlink:href="#m6e17d99614" x="51.378125" y="31.882786" style="stroke: #000000; stroke-width: 0.6"/>
      </g>
     </g>
    </g>
    <g id="ytick_41">
     <g id="line2d_56">
      <g>
       <use xlink:href="#m6e17d99614" x="51.378125" y="27.380296" style="stroke: #000000; stroke-width: 0.6"/>
      </g>
     </g>
    </g>
    <g id="ytick_42">
     <g id="line2d_57">
      <g>
       <use xlink:href="#m6e17d99614" x="51.378125" y="23.701494" style="stroke: #000000; stroke-width: 0.6"/>
      </g>
     </g>
    </g>
    <g id="ytick_43">
     <g id="line2d_58">
      <g>
       <use xlink:href="#m6e17d99614" x="51.378125" y="20.591112" style="stroke: #000000; stroke-width: 0.6"/>
      </g>
     </g>
    </g>
    <g id="ytick_44">
     <g id="line2d_59">
      <g>
       <use xlink:href="#m6e17d99614" x="51.378125" y="17.896775" style="stroke: #000000; stroke-width: 0.6"/>
      </g>
     </g>
    </g>
    <g id="ytick_45">
     <g id="line2d_60">
      <g>
       <use xlink:href="#m6e17d99614" x="51.378125" y="15.520203" style="stroke: #000000; stroke-width: 0.6"/>
      </g>
     </g>
    </g>
    <g id="text_12">
     <!-- Percentuale di occorrenza [%] -->
     <g transform="translate(14.798438 197.350781)rotate(-90)scale(0.1 -0.1)">
      <defs>
       <path id="DejaVuSans-50" d="M 1259 4147 
L 1259 2394 
L 2053 2394 
Q 2494 2394 2734 2622 
Q 2975 2850 2975 3272 
Q 2975 3691 2734 3919 
Q 2494 4147 2053 4147 
L 1259 4147 
z
M 628 4666 
L 2053 4666 
Q 2838 4666 3239 4311 
Q 3641 3956 3641 3272 
Q 3641 2581 3239 2228 
Q 2838 1875 2053 1875 
L 1259 1875 
L 1259 0 
L 628 0 
L 628 4666 
z
" transform="scale(0.015625)"/>
       <path id="DejaVuSans-72" d="M 2631 2963 
Q 2534 3019 2420 3045 
Q 2306 3072 2169 3072 
Q 1681 3072 1420 2755 
Q 1159 2438 1159 1844 
L 1159 0 
L 581 0 
L 581 3500 
L 1159 3500 
L 1159 2956 
Q 1341 3275 1631 3429 
Q 1922 3584 2338 3584 
Q 2397 3584 2469 3576 
Q 2541 3569 2628 3553 
L 2631 2963 
z
" transform="scale(0.015625)"/>
       <path id="DejaVuSans-63" d="M 3122 3366 
L 3122 2828 
Q 2878 2963 2633 3030 
Q 2388 3097 2138 3097 
Q 1578 3097 1268 2742 
Q 959 2388 959 1747 
Q 959 1106 1268 751 
Q 1578 397 2138 397 
Q 2388 397 2633 464 
Q 2878 531 3122 666 
L 3122 134 
Q 2881 22 2623 -34 
Q 2366 -91 2075 -91 
Q 1284 -91 818 406 
Q 353 903 353 1747 
Q 353 2603 823 3093 
Q 1294 3584 2113 3584 
Q 2378 3584 2631 3529 
Q 2884 3475 3122 3366 
z
" transform="scale(0.015625)"/>
       <path id="DejaVuSans-64" d="M 2906 2969 
L 2906 4863 
L 3481 4863 
L 3481 0 
L 2906 0 
L 2906 525 
Q 2725 213 2448 61 
Q 2172 -91 1784 -91 
Q 1150 -91 751 415 
Q 353 922 353 1747 
Q 353 2572 751 3078 
Q 1150 3584 1784 3584 
Q 2172 3584 2448 3432 
Q 2725 3281 2906 2969 
z
M 947 1747 
Q 947 1113 1208 752 
Q 1469 391 1925 391 
Q 2381 391 2643 752 
Q 2906 1113 2906 1747 
Q 2906 2381 2643 2742 
Q 2381 3103 1925 3103 
Q 1469 3103 1208 2742 
Q 947 2381 947 1747 
z
" transform="scale(0.015625)"/>
       <path id="DejaVuSans-6f" d="M 1959 3097 
Q 1497 3097 1228 2736 
Q 959 2375 959 1747 
Q 959 1119 1226 758 
Q 1494 397 1959 397 
Q 2419 397 2687 759 
Q 2956 1122 2956 1747 
Q 2956 2369 2687 2733 
Q 2419 3097 1959 3097 
z
M 1959 3584 
Q 2709 3584 3137 3096 
Q 3566 2609 3566 1747 
Q 3566 888 3137 398 
Q 2709 -91 1959 -91 
Q 1206 -91 779 398 
Q 353 888 353 1747 
Q 353 2609 779 3096 
Q 1206 3584 1959 3584 
z
" transform="scale(0.015625)"/>
       <path id="DejaVuSans-7a" d="M 353 3500 
L 3084 3500 
L 3084 2975 
L 922 459 
L 3084 459 
L 3084 0 
L 275 0 
L 275 525 
L 2438 3041 
L 353 3041 
L 353 3500 
z
" transform="scale(0.015625)"/>
       <path id="DejaVuSans-25" d="M 4653 2053 
Q 4381 2053 4226 1822 
Q 4072 1591 4072 1178 
Q 4072 772 4226 539 
Q 4381 306 4653 306 
Q 4919 306 5073 539 
Q 5228 772 5228 1178 
Q 5228 1588 5073 1820 
Q 4919 2053 4653 2053 
z
M 4653 2450 
Q 5147 2450 5437 2106 
Q 5728 1763 5728 1178 
Q 5728 594 5436 251 
Q 5144 -91 4653 -91 
Q 4153 -91 3862 251 
Q 3572 594 3572 1178 
Q 3572 1766 3864 2108 
Q 4156 2450 4653 2450 
z
M 1428 4353 
Q 1159 4353 1004 4120 
Q 850 3888 850 3481 
Q 850 3069 1003 2837 
Q 1156 2606 1428 2606 
Q 1700 2606 1854 2837 
Q 2009 3069 2009 3481 
Q 2009 3884 1853 4118 
Q 1697 4353 1428 4353 
z
M 4250 4750 
L 4750 4750 
L 1831 -91 
L 1331 -91 
L 4250 4750 
z
M 1428 4750 
Q 1922 4750 2215 4408 
Q 2509 4066 2509 3481 
Q 2509 2891 2217 2550 
Q 1925 2209 1428 2209 
Q 931 2209 642 2551 
Q 353 2894 353 3481 
Q 353 4063 643 4406 
Q 934 4750 1428 4750 
z
" transform="scale(0.015625)"/>
      </defs>
      <use xlink:href="#DejaVuSans-50"/>
      <use xlink:href="#DejaVuSans-65" x="56.677734"/>
      <use xlink:href="#DejaVuSans-72" x="118.201172"/>
      <use xlink:href="#DejaVuSans-63" x="157.064453"/>
      <use xlink:href="#DejaVuSans-65" x="212.044922"/>
      <use xlink:href="#DejaVuSans-6e" x="273.568359"/>
      <use xlink:href="#DejaVuSans-74" x="336.947266"/>
      <use xlink:href="#DejaVuSans-75" x="376.15625"/>
      <use xlink:href="#DejaVuSans-61" x="439.535156"/>
      <use xlink:href="#DejaVuSans-6c" x="500.814453"/>
      <use xlink:href="#DejaVuSans-65" x="528.597656"/>
      <use xlink:href="#DejaVuSans-20" x="590.121094"/>
      <use xlink:href="#DejaVuSans-64" x="621.908203"/>
      <use xlink:href="#DejaVuSans-69" x="685.384766"/>
      <use xlink:href="#DejaVuSans-20" x="713.167969"/>
      <use xlink:href="#DejaVuSans-6f" x="744.955078"/>
      <use xlink:href="#DejaVuSans-63" x="806.136719"/>
      <use xlink:href="#DejaVuSans-63" x="861.117188"/>
      <use xlink:href="#DejaVuSans-6f" x="916.097656"/>
      <use xlink:href="#DejaVuSans-72" x="977.279297"/>
      <use xlink:href="#DejaVuSans-72" x="1016.642578"/>
      <use xlink:href="#DejaVuSans-65" x="1055.505859"/>
      <use xlink:href="#DejaVuSans-6e" x="1117.029297"/>
      <use xlink:href="#DejaVuSans-7a" x="1180.408203"/>
      <use xlink:href="#DejaVuSans-61" x="1232.898438"/>
      <use xlink:href="#DejaVuSans-20" x="1294.177734"/>
      <use xlink:href="#DejaVuSans-5b" x="1325.964844"/>
      <use xlink:href="#DejaVuSans-25" x="1364.978516"/>
      <use xlink:href="#DejaVuSans-5d" x="1459.998047"/>
     </g>
    </g>
   </g>
   <g id="patch_4">
    <path d="M 65.12358 277.578125 
L 65.12358 17.672727 
L 70.621761 17.672727 
L 70.621761 71.071562 
L 76.119943 71.071562 
L 76.119943 83.394955 
L 81.618125 83.394955 
L 81.618125 92.449829 
L 87.116307 92.449829 
L 87.116307 98.850004 
L 92.614489 98.850004 
L 92.614489 103.831078 
L 98.11267 103.831078 
L 98.11267 109.368397 
L 103.610852 109.368397 
L 103.610852 111.878272 
L 109.109034 111.878272 
L 109.109034 113.621838 
L 114.607216 113.621838 
L 114.607216 118.178963 
L 120.105398 118.178963 
L 120.105398 123.592021 
L 125.60358 123.592021 
L 125.60358 124.197939 
L 131.101761 124.197939 
L 131.101761 128.731077 
L 136.599943 128.731077 
L 136.599943 132.25636 
L 142.098125 132.25636 
L 142.098125 133.978757 
L 147.596307 133.978757 
L 147.596307 139.717081 
L 153.094489 139.717081 
L 153.094489 142.563383 
L 158.59267 142.563383 
L 158.59267 142.871972 
L 164.090852 142.871972 
L 164.090852 151.208396 
L 169.589034 151.208396 
L 169.589034 157.812129 
L 175.087216 157.812129 
L 175.087216 154.793408 
L 180.585398 154.793408 
L 180.585398 158.472891 
L 186.08358 158.472891 
L 186.08358 171.156417 
L 191.581761 171.156417 
L 191.581761 176.962412 
L 197.079943 176.962412 
L 197.079943 175.344598 
L 202.578125 175.344598 
L 202.578125 173.8513 
L 208.076307 173.8513 
L 208.076307 204.939538 
L 213.574489 204.939538 
L 213.574489 213.110621 
L 219.07267 213.110621 
L 219.07267 187.83731 
L 224.570852 187.83731 
L 224.570852 187.83731 
L 230.069034 187.83731 
L 230.069034 190.943318 
L 235.567216 190.943318 
L 235.567216 213.110621 
L 241.065398 213.110621 
L 241.065398 194.628245 
L 246.56358 194.628245 
L 246.56358 204.939538 
L 252.061761 204.939538 
L 252.061761 277.578125 
M 257.559943 277.578125 
L 257.559943 194.628245 
L 263.058125 194.628245 
L 263.058125 227.127273 
L 268.556307 227.127273 
L 268.556307 277.578125 
M 279.55267 277.578125 
L 279.55267 227.127273 
L 285.050852 227.127273 
L 285.050852 227.127273 
L 290.549034 227.127273 
L 290.549034 277.578125 
M 301.545398 277.578125 
L 301.545398 227.127273 
L 307.04358 227.127273 
L 307.04358 277.578125 
M 318.039943 277.578125 
L 318.039943 227.127273 
L 323.538125 227.127273 
L 323.538125 277.578125 
" clip-path="url(#p672ef5eb1c)" style="fill: none; stroke: #0000ff; stroke-width: 2; stroke-linejoin: miter"/>
   </g>
   <g id="patch_5">
    <path d="M 51.378125 237.6 
L 51.378125 7.2 
" style="fill: none; stroke: #000000; stroke-width: 0.8; stroke-linejoin: miter; stroke-linecap: square"/>
   </g>
   <g id="patch_6">
    <path d="M 353.778125 237.6 
L 353.778125 7.2 
" style="fill: none; stroke: #000000; stroke-width: 0.8; stroke-linejoin: miter; stroke-linecap: square"/>
   </g>
   <g id="patch_7">
    <path d="M 51.378125 237.6 
L 353.778125 237.6 
" style="fill: none; stroke: #000000; stroke-width: 0.8; stroke-linejoin: miter; stroke-linecap: square"/>
   </g>
   <g id="patch_8">
    <path d="M 51.378125 7.2 
L 353.778125 7.2 
" style="fill: none; stroke: #000000; stroke-width: 0.8; stroke-linejoin: miter; stroke-linecap: square"/>
   </g>
  </g>
 </g>
 <defs>
  <clipPath id="p672ef5eb1c">
   <rect x="51.378125" y="7.2" width="302.4" height="230.4"/>
  </clipPath>
 </defs>
</svg>
