<svg id="Livello_1" data-name="Livello 1" xmlns="http://www.w3.org/2000/svg" viewBox="0 0 737.73 414.97"><defs><style>.cls-1{font-size:33px;}.cls-1,.cls-2{fill:#fff;}.cls-1,.cls-3{font-family:Helvetica;}.cls-3{font-size:38px;fill:#faf9f9;}.cls-4{fill:none;stroke:red;stroke-linecap:round;stroke-miterlimit:10;stroke-width:5px;}.cls-5{font-size:48px;fill:red;font-family:Helvetica-Bold, Helvetica;font-weight:700;}</style></defs><title>potenzialeazione</title><path d="M693.18.31h-648v283c3.49.19,7,.28,10.48.62,4.06.38,5.54-1.13,5.51-5.36C61,250.75,61,222.92,61,195.09q0-64.21-.05-128.45c0-12.5,0-25-.24-37.49-.09-4.27,1.24-6,5.71-5.81,7.65.28,15.33-.09,23,.13,1.85.05,3.67,1.35,5.5,2.07-1.92.8-3.8,2.21-5.75,2.3-6,.3-12,.19-18,0-3.63-.1-5.14,1.34-5,5,.17,5,.15,10,0,15-.11,3.59,1.21,5.17,5,5,6-.2,12-.24,18,.05,2,.09,3.85,1.41,5.76,2.17C93,55.8,91.14,57,89.27,57.06c-6.16.25-12.33.21-18.5.06C67.33,57,66,58.41,66.1,61.85c.16,5.83.18,11.67,0,17.49C66,83,67.3,84.45,71,84.33Q80.5,84,90,84.4c1.46.06,2.87,1.36,4.31,2.08-1.48.68-2.95,1.89-4.45,2-6.16.24-12.34.26-18.5.1C67.49,88.43,66,90,66.1,93.84c.18,6.33.11,12.66,0,19-.06,3.2,1.31,4.54,4.46,4.51,6.66,0,13.34-.12,20,.14,1.48.06,2.91,1.44,4.37,2.21-1.48.75-2.94,2.09-4.45,2.15-6.32.25-12.66.24-19,.07-3.77-.11-5.53,1.14-5.36,5.16.22,5,.17,10,0,15-.15,3.81,1.17,5.31,5.19,5.23,11.16-.22,22.33-.17,33.49,0,1.76,0,3.5,1.4,5.25,2.15-1.83.68-3.66,1.92-5.5,2-10.83.18-21.67.23-32.49,0-4.22-.08-6.16,1.1-5.91,5.63.28,5.31.21,10.67,0,16-.17,3.85,1.11,5.43,5.11,5.28,6.5-.23,13-.2,19.5.05,1.42.06,2.8,1.48,4.2,2.27-1.38.63-2.74,1.76-4.14,1.81-6.16.21-12.33.26-18.49.05-4.39-.15-6.48,1.21-6.18,6a144.56,144.56,0,0,1,0,16c-.21,4.42,1.19,6.38,6,6.11,6.31-.35,12.66-.21,19,0,1.32,0,2.6,1.33,3.91,2-1.29.73-2.55,2.06-3.85,2.11-6.66.22-13.34.25-20,.07-3.71-.1-5.06,1.39-5,5,.16,5.33.22,10.67-.07,16-.23,4.27,1.16,6.05,5.65,5.83,6.32-.3,12.67-.21,19,0,1.41.05,2.77,1.51,4.15,2.32-1.38.64-2.73,1.77-4.13,1.82-6.49.2-13,.21-19.49.08-3.58-.06-5.18,1.28-5.07,5,.15,5.66.08,11.33,0,17-.06,3.21,1.35,4.46,4.51,4.41,6.67-.11,13.34-.16,20,.09,1.44.05,2.82,1.47,4.23,2.26-1.37.63-2.72,1.75-4.11,1.79-6.33.21-12.67.11-19,.12-2.75,0-5.55-.13-5.5,3.91,0,3.87,2.86,3.47,5.31,3.5q48.74.58,97.47,1.09c10.16.1,20.32,0,30.47-.24a8.35,8.35,0,0,0,5.33-2.57c3.32-3.67,6.57-4.7,10.25-1.11,7.77,7.59,14.88,3.52,17.93-4.65a165.21,165.21,0,0,0,8.52-35.68c3.65-26.34,6.57-58.72,8.14-89,2-38.72,5.57-93.43,9.18-117.7a63.16,63.16,0,0,1,1.68-9.32c.53-1.67,2.19-3,3.34-4.46,1.53,1.29,3.83,2.29,4.44,3.93a54.55,54.55,0,0,1,3.39,13c2.65,24.66,5.26,49.33,7.42,74,2.17,24.88,3.74,49.82,5.67,74.72,1.35,17.43,2.44,34.91,4.4,52.28,2.7,23.95,4.55,48.11,11.84,71.27a42.37,42.37,0,0,0,8.21,14.64c2.27,2.64,6.94,4.81,10.34,4.57a218.33,218.33,0,0,0,30-4.42c16.72-3.62,33.28-8,49.92-11.95,21.32-5.1,42.61-10.35,64-15.15,9.4-2.1,19-3.3,28.54-4.78,18.53-2.88,37-6.32,55.62-8.33,26.31-2.85,52.7-5.18,79.11-6.65,22.1-1.22,44.28-.87,66.42-1.22Z"/><path d="M588.27,289.74c-17.85.45-35.66,4.19-53.39,7.08-19.21,3.14-38.41,6.48-57.4,10.71-20,4.45-39.68,10.11-59.52,15.15-25.3,6.42-50.59,12.9-76,19a82,82,0,0,1-17.86,1.79c-13.8.2-22.84-5.46-27-18.55-3.62-11.34-6.9-23.13-7.88-34.93-4-47.12-6.68-94.34-10.38-141.48-2.52-32.2-5.76-64.34-9-96.48-.68-6.79-2.63-13.45-4-20.17l-2.17-.11c-.82,3.34-2,6.64-2.4,10C259.77,55.17,258,68.57,257.19,82c-2,32.25-3.21,64.55-5.16,96.81-1.7,28.07-3.47,56.17-6.28,84.15-.91,9-4.29,18.13-8.27,26.37-4.33,9-13.38,11.34-23,8.08a8.09,8.09,0,0,0-2.43-.45c-29.43-.52-58.86-.92-88.29-1.54-17.16-.36-34.31-1-51.46-1.68-3.66-.14-6.19.27-6.1,4.89.08,4,.4,6.75,5.61,6.39a175.44,175.44,0,0,1,18.49,0c1.53.06,3,1.24,4.53,1.9-1.58.79-3.13,2.19-4.74,2.26-6.15.27-12.33.22-18.49.06-3.5-.09-5.35,1.08-5.28,4.82.11,5.83.16,11.66.06,17.49-.06,3.07,1.34,4.1,4.24,4.06,6.16-.09,12.34-.19,18.49.11,1.95.09,3.84,1.42,5.76,2.18-2,.7-4,1.91-6,2-5.82.27-11.66.22-17.49.06-3.8-.1-5.5,1.34-5.38,5.26.16,5.49.16,11-.06,16.49-.15,3.62,1.52,4.66,4.8,4.61,6.66-.11,13.33-.15,20,.05,1.32,0,2.6,1.28,3.9,2-1.32.64-2.63,1.8-4,1.83-8,.17-16-.12-24,.17-4.42.16-5.79-1.43-5.75-5.76.17-21.5,0-43,.21-64.49.06-5-1.3-7.14-6.43-6.7-3.14.26-6.32,0-9.49-.08v121h648c0-41.34,1.47-88.33,1.47-129.66C659.67,284.34,623.21,288.86,588.27,289.74Z"/><text class="cls-1" transform="translate(114.06 151.86)">0</text><text class="cls-1" transform="translate(114.06 377.61)">-70</text><text class="cls-1" transform="translate(114.06 35.05)">+40</text><rect y="0.31" width="54.14" height="414"/><rect x="685.07" y="0.31" width="52.65" height="414"/><path class="cls-2" d="M737.73,286.94c-35-.3-111.83.25-151.34,4.23-21.9,1.48-33.78,2.76-51.51,5.65-19.21,3.14-38.41,6.48-57.4,10.71-20,4.45-39.68,10.11-59.52,15.15-25.3,6.42-50.59,12.9-76,19a82,82,0,0,1-17.86,1.79c-13.8.2-22.84-5.46-27-18.55-3.62-11.34-6.9-23.13-7.88-34.93-4-47.12-6.68-94.34-10.38-141.48-2.52-32.2-5.76-64.34-9-96.48-.68-6.79-2.63-13.45-4-20.17l-2.17-.11c-.82,3.34-2,6.64-2.4,10C259.77,55.17,258,68.57,257.19,82c-2,32.25-3.21,64.55-5.16,96.81-1.7,28.07-3.47,56.17-6.28,84.15-.91,9-4.29,18.13-8.27,26.37-4.33,9-13.38,11.34-23,8.08a8.09,8.09,0,0,0-2.43-.45c-29.43-.52-58.86-.92-88.29-1.54-17.16-.36-34.31-1-51.46-1.68-3.66-.14-6.19.27-6.1,4.89.08,4,.4,6.75,5.61,6.39a175.44,175.44,0,0,1,18.49,0c1.53.06,3,1.24,4.53,1.9-1.58.79-3.13,2.19-4.74,2.26-6.15.27-12.33.22-18.49.06-3.5-.09-5.35,1.08-5.28,4.82.11,5.83.16,11.66.06,17.49-.06,3.07,1.34,4.1,4.24,4.06,6.16-.09,12.34-.19,18.49.11,1.95.09,3.84,1.42,5.76,2.18-2,.7-4,1.91-6,2-5.82.27-11.66.22-17.49.06-3.8-.1-5.5,1.34-5.38,5.26.16,5.49.16,11-.06,16.49-.15,3.62,1.52,4.66,4.8,4.61,6.66-.11,13.33-.15,20,.05,1.32,0,2.6,1.28,3.9,2-1.32.64-2.63,1.8-4,1.83-8,.17-16-.12-24,.17-4.42.16-5.79-1.43-5.75-5.76.17-21.5,0-43,.21-64.49.06-5-1.3-7.14-6.43-6.7-3.14.26-54-1.28-57.22-1.32v-10c3.49.19,54.73,1.52,58.21,1.86,4.06.38,5.54-1.13,5.51-5.36C61,250.75,61,222.92,61,195.09q0-64.21-.05-128.45c0-12.5,0-25-.24-37.49-.09-4.27,1.24-6,5.71-5.81,7.65.28,15.33-.09,23,.13,1.85.05,3.67,1.35,5.5,2.07-1.92.8-3.8,2.21-5.75,2.3-6,.3-12,.19-18,0-3.63-.1-5.14,1.34-5,5,.17,5,.15,10,0,15-.11,3.59,1.21,5.17,5,5,6-.2,12-.24,18,.05,2,.09,3.85,1.41,5.76,2.17C93,55.8,91.14,57,89.27,57.06c-6.16.25-12.33.21-18.5.06C67.33,57,66,58.41,66.1,61.85c.16,5.83.18,11.67,0,17.49C66,83,67.3,84.45,71,84.33Q80.5,84,90,84.4c1.46.06,2.87,1.36,4.31,2.08-1.48.68-2.95,1.89-4.45,2-6.16.24-12.34.26-18.5.1C67.49,88.43,66,90,66.1,93.84c.18,6.33.11,12.66,0,19-.06,3.2,1.31,4.54,4.46,4.51,6.66,0,13.34-.12,20,.14,1.48.06,2.91,1.44,4.37,2.21-1.48.75-2.94,2.09-4.45,2.15-6.32.25-12.66.24-19,.07-3.77-.11-5.53,1.14-5.36,5.16.22,5,.17,10,0,15-.15,3.81,1.17,5.31,5.19,5.23,11.16-.22,22.33-.17,33.49,0,1.76,0,3.5,1.4,5.25,2.15-1.83.68-3.66,1.92-5.5,2-10.83.18-21.67.23-32.49,0-4.22-.08-6.16,1.1-5.91,5.63.28,5.31.21,10.67,0,16-.17,3.85,1.11,5.43,5.11,5.28,6.5-.23,13-.2,19.5.05,1.42.06,2.8,1.48,4.2,2.27-1.38.63-2.74,1.76-4.14,1.81-6.16.21-12.33.26-18.49.05-4.39-.15-6.48,1.21-6.18,6a144.56,144.56,0,0,1,0,16c-.21,4.42,1.19,6.38,6,6.11,6.31-.35,12.66-.21,19,0,1.32,0,2.6,1.33,3.91,2-1.29.73-2.55,2.06-3.85,2.11-6.66.22-13.34.25-20,.07-3.71-.1-5.06,1.39-5,5,.16,5.33.22,10.67-.07,16-.23,4.27,1.16,6.05,5.65,5.83,6.32-.3,12.67-.21,19,0,1.41.05,2.77,1.51,4.15,2.32-1.38.64-2.73,1.77-4.13,1.82-6.49.2-13,.21-19.49.08-3.58-.06-5.18,1.28-5.07,5,.15,5.66.08,11.33,0,17-.06,3.21,1.35,4.46,4.51,4.41,6.67-.11,13.34-.16,20,.09,1.44.05,2.82,1.47,4.23,2.26-1.37.63-2.72,1.75-4.11,1.79-6.33.21-12.67.11-19,.12-2.75,0-5.55-.13-5.5,3.91,0,3.87,2.86,3.47,5.31,3.5q48.74.58,97.47,1.09c10.16.1,20.32,0,30.47-.24a8.39,8.39,0,0,0,5.34-2.57c3.31-3.67,6.56-4.7,10.24-1.11,7.77,7.59,14.88,3.52,17.93-4.65a229.2,229.2,0,0,0,10.24-35.86c5.85-29.82,6.75-60.15,8.32-90.42,2-38.72,4.77-77.4,7.28-116.09a40.8,40.8,0,0,1,1.68-9.32c.53-1.67,2.19-3,3.34-4.46,1.53,1.29,3.83,2.29,4.44,3.93a54.55,54.55,0,0,1,3.39,13c2.65,24.66,5.26,49.33,7.42,74,2.17,24.88,3.74,49.82,5.67,74.72,1.35,17.43,2.44,34.91,4.4,52.28,2.7,23.95,4.55,48.11,11.84,71.27a42.37,42.37,0,0,0,8.21,14.64c2.27,2.64,6.94,4.81,10.34,4.57a218.33,218.33,0,0,0,30-4.42c16.72-3.62,33.28-8,49.92-11.95,21.32-5.1,42.61-10.35,64-15.15,9.4-2.1,19-3.3,28.54-4.78,18.53-2.88,37-6.32,55.62-8.33,26.31-2.85,52.7-5.18,79.11-6.65,22.1-1.22,88.82-1.57,111-1.92Z"/><text class="cls-3" transform="translate(45.18 235.98) rotate(-90)">mV</text><line class="cls-4" x1="64.26" y1="244.65" x2="243.26" y2="244.65"/><text class="cls-5" transform="translate(187.35 238.04)">T</text></svg>