<svg id="Livello_1" data-name="Livello 1" xmlns="http://www.w3.org/2000/svg" viewBox="0 0 798.77 216.96"><defs><style>.cls-1,.cls-3,.cls-5{fill:#fff;}.cls-1{stroke:#e20613;}.cls-1,.cls-10,.cls-11,.cls-12,.cls-13,.cls-3,.cls-5,.cls-7,.cls-8,.cls-9{stroke-miterlimit:10;}.cls-1,.cls-13,.cls-3,.cls-5{stroke-width:6px;}.cls-2,.cls-4,.cls-6{font-size:20px;}.cls-2{fill:#e20613;letter-spacing:-0.04em;}.cls-15,.cls-2,.cls-4,.cls-6{font-family:Helvetica-Bold, Helvetica;font-weight:700;}.cls-3{stroke:blue;}.cls-4{fill:blue;}.cls-13,.cls-5{stroke:#1d1d1b;}.cls-14,.cls-6{fill:#1d1d1b;}.cls-10,.cls-11,.cls-12,.cls-13,.cls-7,.cls-8,.cls-9{fill:none;}.cls-10,.cls-11,.cls-12,.cls-7,.cls-8,.cls-9{stroke:#a9a9a8;}.cls-7{stroke-width:4px;}.cls-8{stroke-width:8px;}.cls-9{stroke-width:3px;}.cls-10{stroke-width:10px;}.cls-11{stroke-width:7px;}.cls-12{stroke-width:5px;}.cls-13{stroke-linecap:round;}.cls-15{font-size:31px;}</style></defs><title>schema_cellular_automata copia</title><rect class="cls-1" x="11.23" y="31.17" width="34.28" height="34.28"/><text class="cls-2" transform="translate(21.31 56.1)">A</text><rect class="cls-3" x="11.23" y="91.41" width="34.28" height="34.28"/><text class="cls-4" transform="translate(21.14 115.34)">R</text><rect class="cls-5" x="11.23" y="151.51" width="34.28" height="34.28"/><text class="cls-6" transform="translate(25.59 175.44)">I</text><line class="cls-7" x1="146.86" y1="34.04" x2="154.85" y2="59.85"/><line class="cls-8" x1="102.34" y1="48.47" x2="146.86" y2="64.57"/><line class="cls-9" x1="131.58" y1="18.76" x2="102.71" y2="34.04"/><line class="cls-10" x1="200.75" y1="93.56" x2="169.68" y2="84.88"/><line class="cls-8" x1="146.86" y1="81.23" x2="124.38" y2="89.22"/><line class="cls-11" x1="117.15" y1="106.91" x2="158.81" y2="126.67"/><line class="cls-12" x1="169.93" y1="64.89" x2="193.24" y2="46.75"/><circle class="cls-1" cx="89.06" cy="40.9" r="15.28"/><circle class="cls-1" cx="146.86" cy="18.76" r="15.28"/><circle class="cls-3" cx="109.73" cy="93.56" r="15.28"/><circle class="cls-5" cx="158.26" cy="74.74" r="15.28"/><circle class="cls-5" cx="173.54" cy="130.72" r="15.28"/><circle class="cls-5" cx="214.53" cy="100.16" r="15.28"/><circle class="cls-5" cx="204.66" cy="36.61" r="15.28"/><line class="cls-7" x1="331.17" y1="34.04" x2="339.16" y2="59.85"/><line class="cls-8" x1="286.64" y1="48.47" x2="331.17" y2="64.57"/><line class="cls-9" x1="315.89" y1="18.76" x2="287.02" y2="34.04"/><line class="cls-10" x1="385.06" y1="93.56" x2="353.99" y2="84.88"/><line class="cls-8" x1="331.17" y1="81.23" x2="308.68" y2="89.22"/><line class="cls-11" x1="301.45" y1="106.91" x2="343.11" y2="126.67"/><line class="cls-12" x1="354.24" y1="64.89" x2="377.55" y2="46.75"/><circle class="cls-3" cx="273.37" cy="40.9" r="15.28"/><circle class="cls-3" cx="331.17" cy="18.76" r="15.28"/><circle class="cls-3" cx="294.03" cy="93.56" r="15.28"/><circle class="cls-1" cx="342.57" cy="74.74" r="15.28"/><circle class="cls-5" cx="357.85" cy="130.72" r="15.28"/><circle class="cls-5" cx="398.84" cy="100.16" r="15.28"/><circle class="cls-5" cx="388.97" cy="36.61" r="15.28"/><line class="cls-7" x1="515.48" y1="34.04" x2="523.46" y2="59.85"/><line class="cls-8" x1="470.95" y1="48.47" x2="515.48" y2="64.57"/><line class="cls-9" x1="500.2" y1="18.76" x2="471.32" y2="34.04"/><line class="cls-10" x1="569.37" y1="93.56" x2="538.3" y2="84.88"/><line class="cls-8" x1="515.48" y1="81.23" x2="492.99" y2="89.22"/><line class="cls-11" x1="485.76" y1="106.91" x2="527.42" y2="126.67"/><line class="cls-12" x1="538.55" y1="64.89" x2="561.85" y2="46.75"/><circle class="cls-5" cx="457.67" cy="40.9" r="15.28"/><circle class="cls-3" cx="515.48" cy="18.76" r="15.28"/><circle class="cls-3" cx="478.34" cy="93.56" r="15.28"/><circle class="cls-3" cx="526.87" cy="74.74" r="15.28"/><circle class="cls-5" cx="542.15" cy="130.72" r="15.28"/><circle class="cls-1" cx="583.15" cy="100.16" r="15.28"/><circle class="cls-5" cx="573.28" cy="36.61" r="15.28"/><line class="cls-7" x1="706.26" y1="34.04" x2="714.25" y2="59.85"/><line class="cls-8" x1="661.73" y1="48.47" x2="706.26" y2="64.57"/><line class="cls-9" x1="690.98" y1="18.76" x2="662.11" y2="34.04"/><line class="cls-10" x1="760.15" y1="93.56" x2="729.08" y2="84.88"/><line class="cls-8" x1="706.26" y1="81.23" x2="683.78" y2="89.22"/><line class="cls-11" x1="676.55" y1="106.91" x2="718.21" y2="126.67"/><line class="cls-12" x1="729.33" y1="64.89" x2="752.64" y2="46.75"/><circle class="cls-1" cx="648.46" cy="40.9" r="15.28"/><circle class="cls-5" cx="706.26" cy="18.76" r="15.28"/><circle class="cls-3" cx="669.13" cy="93.56" r="15.28"/><circle class="cls-5" cx="717.66" cy="74.74" r="15.28"/><circle class="cls-5" cx="732.94" cy="130.72" r="15.28"/><circle class="cls-3" cx="773.93" cy="100.16" r="15.28"/><circle class="cls-5" cx="764.06" cy="36.61" r="15.28"/><line class="cls-13" x1="73.78" y1="167.39" x2="776.17" y2="167.39"/><path class="cls-14" d="M789.21,167.39c-6.13,2.28-13.74,6.16-18.46,10.27l3.71-10.27-3.71-10.27C775.47,161.23,783.08,165.12,789.21,167.39Z"/><line class="cls-13" x1="158.26" y1="160.64" x2="158.26" y2="175.64"/><line class="cls-13" x1="526.87" y1="175.64" x2="526.87" y2="160.01"/><line class="cls-13" x1="711.2" y1="175.2" x2="711.2" y2="159.57"/><line class="cls-13" x1="342.57" y1="160.01" x2="342.57" y2="175.64"/><text class="cls-15" transform="translate(139.91 200)">t</text><text class="cls-15" transform="translate(150.23 210.32) scale(0.58)">i-1</text><text class="cls-15" transform="translate(509.12 200)">t</text><text class="cls-15" transform="translate(519.44 210.32) scale(0.58)">i+1</text><text class="cls-15" transform="translate(694.45 200)">t</text><text class="cls-15" transform="translate(704.77 210.32) scale(0.58)">i+2</text><text class="cls-15" transform="translate(323.68 200)">t</text><text class="cls-15" transform="translate(334.01 210.32) scale(0.58)">i</text></svg>