<svg id="Livello_1" data-name="Livello 1" xmlns="http://www.w3.org/2000/svg" viewBox="0 0 729.18 265.13"><defs><style>.cls-1,.cls-3,.cls-5{fill:#fff;}.cls-1{stroke:#e20613;}.cls-1,.cls-10,.cls-11,.cls-12,.cls-13,.cls-3,.cls-5,.cls-7,.cls-8,.cls-9{stroke-miterlimit:10;}.cls-1,.cls-13,.cls-3,.cls-5{stroke-width:6px;}.cls-2,.cls-4,.cls-6{font-size:20px;}.cls-2{fill:#e20613;letter-spacing:-0.04em;}.cls-15,.cls-2,.cls-4,.cls-6{font-family:Helvetica-Bold, Helvetica;font-weight:700;}.cls-3{stroke:blue;}.cls-4{fill:blue;}.cls-13,.cls-5{stroke:#1d1d1b;}.cls-14,.cls-6{fill:#1d1d1b;}.cls-10,.cls-11,.cls-12,.cls-13,.cls-7,.cls-8,.cls-9{fill:none;}.cls-10,.cls-11,.cls-12,.cls-7,.cls-8,.cls-9{stroke:#a9a9a8;}.cls-7{stroke-width:4px;}.cls-8{stroke-width:8px;}.cls-9{stroke-width:3px;}.cls-10{stroke-width:10px;}.cls-11{stroke-width:7px;}.cls-12{stroke-width:5px;}.cls-13{stroke-linecap:round;}.cls-15{font-size:31px;}</style></defs><title>schema_cellular_automata</title><rect class="cls-1" x="257.58" y="221.47" width="34.28" height="34.28"/><text class="cls-2" transform="translate(267.66 246.4)">A</text><rect class="cls-3" x="347.03" y="221.61" width="34.28" height="34.28"/><text class="cls-4" transform="translate(356.95 245.53)">R</text><rect class="cls-5" x="436.48" y="221.61" width="34.28" height="34.28"/><text class="cls-6" transform="translate(450.84 245.53)">I</text><line class="cls-7" x1="82.27" y1="34.04" x2="90.25" y2="59.85"/><line class="cls-8" x1="37.74" y1="48.47" x2="82.27" y2="64.57"/><line class="cls-9" x1="66.99" y1="18.76" x2="38.12" y2="34.04"/><line class="cls-10" x1="136.16" y1="93.56" x2="105.09" y2="84.88"/><line class="cls-8" x1="82.27" y1="81.23" x2="59.78" y2="89.22"/><line class="cls-11" x1="52.55" y1="106.91" x2="94.21" y2="126.67"/><line class="cls-12" x1="105.34" y1="64.89" x2="128.65" y2="46.75"/><circle class="cls-1" cx="24.47" cy="40.9" r="15.28"/><circle class="cls-1" cx="82.27" cy="18.76" r="15.28"/><circle class="cls-3" cx="45.13" cy="93.56" r="15.28"/><circle class="cls-5" cx="93.67" cy="74.74" r="15.28"/><circle class="cls-5" cx="108.95" cy="130.72" r="15.28"/><circle class="cls-5" cx="149.94" cy="100.16" r="15.28"/><circle class="cls-5" cx="140.07" cy="36.61" r="15.28"/><line class="cls-7" x1="266.57" y1="34.04" x2="274.56" y2="59.85"/><line class="cls-8" x1="222.05" y1="48.47" x2="266.57" y2="64.57"/><line class="cls-9" x1="251.3" y1="18.76" x2="222.42" y2="34.04"/><line class="cls-10" x1="320.46" y1="93.56" x2="289.4" y2="84.88"/><line class="cls-8" x1="266.57" y1="81.23" x2="244.09" y2="89.22"/><line class="cls-11" x1="236.86" y1="106.91" x2="278.52" y2="126.67"/><line class="cls-12" x1="289.64" y1="64.89" x2="312.95" y2="46.75"/><circle class="cls-3" cx="208.77" cy="40.9" r="15.28"/><circle class="cls-3" cx="266.57" cy="18.76" r="15.28"/><circle class="cls-3" cx="229.44" cy="93.56" r="15.28"/><circle class="cls-1" cx="277.97" cy="74.74" r="15.28"/><circle class="cls-5" cx="293.25" cy="130.72" r="15.28"/><circle class="cls-5" cx="334.24" cy="100.16" r="15.28"/><circle class="cls-5" cx="324.38" cy="36.61" r="15.28"/><line class="cls-7" x1="450.88" y1="34.04" x2="458.87" y2="59.85"/><line class="cls-8" x1="406.35" y1="48.47" x2="450.88" y2="64.57"/><line class="cls-9" x1="435.6" y1="18.76" x2="406.73" y2="34.04"/><line class="cls-10" x1="504.77" y1="93.56" x2="473.7" y2="84.88"/><line class="cls-8" x1="450.88" y1="81.23" x2="428.4" y2="89.22"/><line class="cls-11" x1="421.17" y1="106.91" x2="462.82" y2="126.67"/><line class="cls-12" x1="473.95" y1="64.89" x2="497.26" y2="46.75"/><circle class="cls-5" cx="393.08" cy="40.9" r="15.28"/><circle class="cls-3" cx="450.88" cy="18.76" r="15.28"/><circle class="cls-3" cx="413.75" cy="93.56" r="15.28"/><circle class="cls-3" cx="462.28" cy="74.74" r="15.28"/><circle class="cls-5" cx="477.56" cy="130.72" r="15.28"/><circle class="cls-1" cx="518.55" cy="100.16" r="15.28"/><circle class="cls-5" cx="508.68" cy="36.61" r="15.28"/><line class="cls-7" x1="641.67" y1="34.04" x2="649.65" y2="59.85"/><line class="cls-8" x1="597.14" y1="48.47" x2="641.67" y2="64.57"/><line class="cls-9" x1="626.39" y1="18.76" x2="597.52" y2="34.04"/><line class="cls-10" x1="695.56" y1="93.56" x2="664.49" y2="84.88"/><line class="cls-8" x1="641.67" y1="81.23" x2="619.18" y2="89.22"/><line class="cls-11" x1="611.95" y1="106.91" x2="653.61" y2="126.67"/><line class="cls-12" x1="664.74" y1="64.89" x2="688.05" y2="46.75"/><circle class="cls-1" cx="583.87" cy="40.9" r="15.28"/><circle class="cls-5" cx="641.67" cy="18.76" r="15.28"/><circle class="cls-3" cx="604.53" cy="93.56" r="15.28"/><circle class="cls-5" cx="653.07" cy="74.74" r="15.28"/><circle class="cls-5" cx="668.34" cy="130.72" r="15.28"/><circle class="cls-3" cx="709.34" cy="100.16" r="15.28"/><circle class="cls-5" cx="699.47" cy="36.61" r="15.28"/><line class="cls-13" x1="9.19" y1="167.39" x2="711.58" y2="167.39"/><path class="cls-14" d="M724.62,167.39c-6.14,2.28-13.75,6.16-18.47,10.27l3.72-10.27-3.72-10.27C710.87,161.23,718.48,165.12,724.62,167.39Z"/><line class="cls-13" x1="93.67" y1="160.64" x2="93.67" y2="175.64"/><line class="cls-13" x1="462.28" y1="175.64" x2="462.28" y2="160.01"/><line class="cls-13" x1="646.6" y1="175.2" x2="646.6" y2="159.57"/><line class="cls-13" x1="277.97" y1="160.01" x2="277.97" y2="175.64"/><text class="cls-15" transform="translate(75.31 200)">t</text><text class="cls-15" transform="translate(85.64 210.32) scale(0.58)">i-1</text><text class="cls-15" transform="translate(444.53 200)">t</text><text class="cls-15" transform="translate(454.85 210.32) scale(0.58)">i+1</text><text class="cls-15" transform="translate(629.85 200)">t</text><text class="cls-15" transform="translate(640.17 210.32) scale(0.58)">i+2</text><text class="cls-15" transform="translate(259.09 200)">t</text><text class="cls-15" transform="translate(269.41 210.32) scale(0.58)">i</text></svg>